<?xml version="1.0" encoding="UTF-8"?><svg id="Layer_2" xmlns="http://www.w3.org/2000/svg" xmlns:xlink="http://www.w3.org/1999/xlink" viewBox="0 0 100 82"><defs><style>.cls-1{clip-path:url(#clippath);}.cls-2{fill:none;}.cls-3{fill:#f11cd6;}</style><clipPath id="clippath"><rect class="cls-2" width="100" height="82"/></clipPath></defs><g id="Layer_1-2"><g class="cls-1"><path class="cls-3" d="M93.03,46.39h-16.17l-6.49-11.23,6.58-11.39-6.97-12.06h-16.18L47.04,0H29.91l-6.96,12.06,6.7,11.59-6.23,10.78H6.97L0,46.5l6.7,11.6L0,69.69l6.97,12.06H24.1l6.64-11.49h15.44l6.78,11.74h17.13l6.64-11.49h16.29l6.97-12.06-6.97-12.06Zm-39.33,11.28l-6.32-10.93,6.3-10.91h15.76l6.28,10.87-6.34,10.97h-15.68Zm15.62-44.82l6.31,10.92-6.31,10.92h-15.64l-6.37-11.03,6.25-10.82h15.76Zm-45.06-.78L30.57,1.14h15.81l6.28,10.88-6.34,10.97h-15.76l-6.31-10.92Zm6.31,12.27h15.64l6.37,11.02-6.23,10.79h-15.49l-6.44-11.15,6.16-10.66ZM1.32,46.5l6.31-10.92h15.5l6.44,11.14-6.18,10.7H7.63L1.32,46.5Zm22.13,34.11H7.63l-6.31-10.92,6.31-10.92h15.64l6.4,11.08-6.22,10.77Zm.93-22.52l6.23-10.78h15.72l6.33,10.95-6.28,10.86h-15.64l-6.37-11.03Zm45.07,22.77h-15.81l-6.31-10.92,6.31-10.92h15.64l6.4,11.07-6.22,10.77Zm22.93-11.49h-15.64l-6.36-11.03,6.25-10.81h15.76l6.31,10.92-6.31,10.92Z"/></g></g></svg>