<?xml version="1.0" encoding="UTF-8"?><svg id="Layer_2" xmlns="http://www.w3.org/2000/svg" xmlns:xlink="http://www.w3.org/1999/xlink" viewBox="0 0 97 97"><defs><style>.cls-1{clip-path:url(#clippath);}.cls-2{fill:none;}.cls-3{fill:#f11cd6;}</style><clipPath id="clippath"><rect class="cls-2" width="97" height="97"/></clipPath></defs><g id="Layer_1-2"><g><path class="cls-3" d="M62.52,39.56h-.58v-1.92c0-3.6-1.4-6.98-3.93-9.51-2.54-2.54-5.92-3.94-9.52-3.94s-6.96,1.4-9.51,3.94c-2.54,2.54-3.94,5.92-3.94,9.51v1.92h-.57c-2,0-3.63,1.63-3.63,3.63v8.42c0,9.73,7.92,17.66,17.64,17.66s17.66-7.92,17.66-17.66v-8.42c0-2-1.63-3.63-3.63-3.63Zm-25.82-1.92c0-3.15,1.23-6.11,3.45-8.34,2.24-2.23,5.2-3.46,8.34-3.46s6.12,1.23,8.35,3.46c2.22,2.21,3.45,5.18,3.45,8.34v1.92h-3.26v-1.92c0-4.7-3.83-8.54-8.54-8.54s-8.53,3.83-8.53,8.54v1.92h-3.27v-1.92Zm4.92,1.92v-1.92c0-3.8,3.09-6.89,6.89-6.89s6.89,3.09,6.89,6.89v1.92h-13.78Zm22.89,12.04c0,8.83-7.18,16.01-16.01,16.01s-15.99-7.18-15.99-16.01v-8.42c0-1.09,.89-1.98,1.98-1.98h1.37s.04,0,.05,0h25.19s.04,0,.05,0h1.38c1.09,0,1.98,.89,1.98,1.98v8.42Z"/><path class="cls-3" d="M53.59,50.73c0-2.81-2.29-5.09-5.1-5.09s-5.09,2.29-5.09,5.09c0,1.67,.81,3.2,2.15,4.15l-1.05,4.19c-.07,.28,.01,.58,.21,.78,.69,.69,2.24,1.04,3.79,1.04s3.09-.34,3.78-1.04c.21-.2,.29-.5,.22-.78l-1.04-4.19c1.33-.94,2.14-2.48,2.14-4.15Zm-3.47,3.04c-.33,.18-.5,.56-.41,.93l1.05,4.22c-1.05,.46-3.48,.46-4.53,0l1.06-4.22c.09-.37-.08-.75-.42-.93-1.13-.59-1.83-1.76-1.83-3.04,0-1.9,1.54-3.44,3.44-3.44s3.45,1.54,3.45,3.44c0,1.28-.7,2.44-1.82,3.04Z"/><g class="cls-1"><path class="cls-3" d="M94.41,68.46v-10.1c0-.46-.37-.83-.82-.83h-13.7c.91-2.63,1.5-5.4,1.72-8.27h5.2c.37,1.48,1.71,2.59,3.31,2.59,1.89,0,3.42-1.53,3.42-3.42s-1.53-3.42-3.42-3.42c-1.6,0-2.94,1.11-3.31,2.59h-5.12c0-.3,.01-.59,.01-.89,0-2.46-.27-4.85-.78-7.17h6.61c.45,0,.82-.36,.82-.82v-8.51c1.49-.37,2.59-1.71,2.59-3.31,0-1.89-1.53-3.42-3.42-3.42s-3.42,1.53-3.42,3.42c0,1.6,1.1,2.94,2.59,3.31v7.69h-6.19c-2.92-10.6-10.98-19.09-21.32-22.62V4.24h9.28c.37,1.48,1.71,2.59,3.31,2.59,1.88,0,3.42-1.54,3.42-3.42s-1.54-3.42-3.42-3.42c-1.6,0-2.94,1.1-3.31,2.59h-10.1c-.45,0-.82,.37-.82,.82V14.78c-2.64-.74-5.41-1.17-8.28-1.24v-3.34c1.49-.37,2.59-1.71,2.59-3.31,0-1.89-1.53-3.42-3.42-3.42s-3.42,1.53-3.42,3.42c0,1.6,1.1,2.94,2.59,3.31v3.35c-2.79,.07-5.48,.49-8.06,1.21v-5.28c0-.45-.37-.82-.82-.82h-8.51c-.37-1.48-1.71-2.59-3.31-2.59-1.89,0-3.42,1.53-3.42,3.42s1.54,3.42,3.42,3.42c1.6,0,2.94-1.1,3.31-2.59h7.69v4.96c-10.35,3.49-18.44,11.96-21.4,22.55H4.24v-9.28c1.49-.37,2.59-1.71,2.59-3.31,0-1.89-1.53-3.42-3.42-3.42-1.88,0-3.42,1.54-3.42,3.42,0,1.6,1.11,2.94,2.59,3.31v10.1c0,.45,.37,.82,.82,.82h12.69c-.53,2.34-.8,4.77-.8,7.27,0,.34,0,.67,.02,1.01h-5.13c-.37-1.48-1.71-2.59-3.31-2.59-1.89,0-3.42,1.53-3.42,3.42s1.53,3.42,3.42,3.42c1.6,0,2.94-1.1,3.31-2.59h5.21c.22,2.8,.8,5.5,1.67,8.06h-7.6c-.45,0-.82,.37-.82,.82v8.52c-1.49,.37-2.59,1.71-2.59,3.31,0,1.88,1.53,3.42,3.42,3.42s3.42-1.53,3.42-3.42c0-1.6-1.11-2.94-2.59-3.31v-7.69h7.39c3.6,8.93,10.96,15.95,20.12,19.07v14.6h-9.28c-.37-1.49-1.71-2.59-3.31-2.59-1.89,0-3.42,1.53-3.42,3.42s1.53,3.42,3.42,3.42c1.6,0,2.94-1.1,3.31-2.59h10.1c.46,0,.83-.37,.83-.82v-14.92c2.64,.75,5.41,1.18,8.28,1.24v6.89c-1.49,.37-2.59,1.71-2.59,3.31,0,1.89,1.53,3.42,3.42,3.42s3.42-1.53,3.42-3.42c0-1.6-1.1-2.94-2.59-3.31v-6.9c2.78-.07,5.48-.49,8.06-1.21v8.82c0,.17,.05,.33,.14,.46h0l.03,.05s.04,.06,.07,.08c.16,.16,.36,.24,.58,.24h8.51c.37,1.48,1.71,2.59,3.31,2.59,1.89,0,3.42-1.54,3.42-3.42s-1.53-3.42-3.42-3.42c-1.6,0-2.94,1.11-3.31,2.59h-7.69v-8.51c9.17-3.09,16.56-10.09,20.18-19h13.49v9.28c-1.49,.37-2.6,1.71-2.6,3.31,0,1.89,1.54,3.42,3.42,3.42s3.42-1.53,3.42-3.42c0-1.6-1.11-2.94-2.59-3.31Zm-4.29-21.8c.97,0,1.77,.8,1.77,1.77s-.8,1.77-1.77,1.77-1.77-.79-1.77-1.77h0c0-.98,.8-1.78,1.77-1.78Zm-4.36-19.76c0-.98,.8-1.77,1.77-1.77s1.77,.79,1.77,1.77-.79,1.77-1.77,1.77-1.77-.8-1.77-1.77ZM26.92,11.24c-.98,0-1.77-.79-1.77-1.77s.79-1.77,1.77-1.77,1.77,.8,1.77,1.77-.79,1.77-1.77,1.77ZM1.65,25.22c0-.98,.8-1.77,1.77-1.77s1.77,.79,1.77,1.77-.79,1.77-1.77,1.77-1.77-.79-1.77-1.77Zm9.6,44.86c0,.97-.8,1.77-1.77,1.77s-1.77-.8-1.77-1.77,.79-1.77,1.77-1.77,1.77,.79,1.77,1.77Zm13.97,25.27c-.97,0-1.77-.8-1.77-1.77s.8-1.77,1.77-1.77,1.77,.79,1.77,1.77-.79,1.77-1.77,1.77ZM71.78,1.65c.97,0,1.77,.79,1.77,1.77s-.79,1.77-1.77,1.77-1.77-.79-1.77-1.77,.79-1.77,1.77-1.77Zm-25.11,5.23c0-.97,.8-1.77,1.77-1.77s1.77,.8,1.77,1.77-.8,1.77-1.77,1.77-1.77-.79-1.77-1.77ZM6.89,50.33c-.98,0-1.77-.79-1.77-1.77s.79-1.77,1.77-1.77,1.77,.8,1.77,1.77-.8,1.77-1.77,1.77Zm43.45,39.79c0,.98-.8,1.77-1.77,1.77s-1.77-.79-1.77-1.77,.79-1.77,1.77-1.77h0s0,0,0,0c.97,0,1.77,.8,1.77,1.77Zm19.76-4.36c.98,0,1.77,.8,1.77,1.77s-.79,1.77-1.77,1.77-1.77-.79-1.77-1.77,.8-1.77,1.77-1.77Zm-21.59-7.48c-17.4,0-31.55-14.15-31.55-31.55S31.1,15.17,48.5,15.17s31.55,14.16,31.55,31.55-14.15,31.55-31.55,31.55Zm45.09-4.72c-.98,0-1.77-.8-1.77-1.77s.79-1.77,1.77-1.77,1.77,.8,1.77,1.77-.79,1.77-1.77,1.77Z"/></g></g></g></svg>