<?xml version="1.0" encoding="UTF-8"?><svg id="Layer_2" xmlns="http://www.w3.org/2000/svg" xmlns:xlink="http://www.w3.org/1999/xlink" viewBox="0 0 85 92.93"><defs><style>.cls-1{clip-path:url(#clippath-1);}.cls-2{clip-path:url(#clippath);}.cls-3{fill:none;}.cls-4{fill:#f11cd6;}</style><clipPath id="clippath"><rect class="cls-3" width="77.94" height="54.67"/></clipPath><clipPath id="clippath-1"><rect class="cls-3" x="7.27" y="37.33" width="77.73" height="55.59"/></clipPath></defs><g id="Layer_1-2"><g><g class="cls-2"><path class="cls-4" d="M37.4,53.89c.29-.04,.53-.24,.61-.52l4.05-13.59c.07-.23,.02-.48-.14-.67-.15-.19-.38-.29-.64-.27-11.13,.89-19.22-.43-24.68-4.04,10.22-5.48,22.14-9,35.44-10.44v7.17c0,.27,.15,.52,.39,.65,.24,.13,.53,.12,.76-.03l24.05-15.39c.21-.14,.34-.37,.34-.62s-.13-.48-.34-.62L53.19,.12c-.23-.15-.52-.16-.76-.03-.24,.14-.39,.38-.39,.65v7.58C32.31,10.43,15.64,17.05,2.48,27.98c-1.46,1.21-2.3,2.98-2.3,4.86v11.99c0,1.07,.59,2.13,1.76,3.14,4.09,3.53,15.41,6.46,27.04,6.46,2.82,0,5.66-.17,8.42-.55ZM1.67,32.85c0-1.44,.64-2.8,1.77-3.73,13.07-10.87,29.7-17.4,49.43-19.4,.38-.04,.67-.35,.67-.73V2.09l21.93,14.03-21.93,14.04v-6.63c0-.21-.09-.41-.25-.55-.16-.14-.36-.2-.57-.18-14.27,1.45-26.99,5.23-37.82,11.24-.02,.01-.05,.02-.07,.03-4.66,2.59-9.08,5.66-13.16,9.15v-10.36Z"/></g><g class="cls-1"><path class="cls-4" d="M83.1,44.95c-5.08-4.39-21.33-7.84-35.46-5.91-.29,.04-.53,.24-.61,.52l-4.05,13.59c-.07,.23-.02,.48,.14,.67,.15,.19,.39,.29,.64,.27,11.14-.89,19.22,.43,24.68,4.04-10.22,5.48-22.14,9-35.44,10.44v-7.17c0-.27-.15-.52-.39-.65-.24-.13-.53-.11-.76,.03l-24.05,15.39c-.21,.14-.34,.37-.34,.62s.13,.48,.34,.62l24.05,15.39c.13,.08,.27,.11,.41,.11,.12,0,.24-.03,.35-.09,.24-.13,.39-.38,.39-.65v-7.58c19.73-2.11,36.41-8.72,49.57-19.66,1.46-1.21,2.3-2.98,2.3-4.87v-11.99c0-1.07-.59-2.13-1.76-3.14Zm-38.4,7.6l3.61-12.11c13.43-1.71,29.12,1.58,33.81,5.63,.49,.42,1.07,1.05,1.21,1.71-4.15,3.66-8.67,6.87-13.46,9.57-5.58-3.99-13.83-5.57-25.17-4.8Z"/></g></g></g></svg>