<?xml version="1.0" encoding="UTF-8"?><svg id="Layer_2" xmlns="http://www.w3.org/2000/svg" xmlns:xlink="http://www.w3.org/1999/xlink" viewBox="0 0 90 90"><defs><style>.cls-1{clip-path:url(#clippath-1);}.cls-2{clip-path:url(#clippath);}.cls-3{fill:none;}.cls-4{fill:#f11cd6;}</style><clipPath id="clippath"><rect class="cls-3" width="54.2" height="90"/></clipPath><clipPath id="clippath-1"><rect class="cls-3" x="59.54" y="37.49" width="30.46" height="14.67"/></clipPath></defs><g id="Layer_1-2"><g><g class="cls-2"><path class="cls-4" d="M53.91,55.92V26.11c0-3.34-2.72-6.05-6.05-6.05h-14.93V.79c0-.23-.11-.45-.31-.59-.2-.14-.45-.16-.67-.08L.49,12.39c-.28,.1-.46,.37-.46,.66V89.29c0,.24,.12,.46,.31,.59,.12,.08,.26,.13,.41,.13,.08,0,.17-.02,.26-.05l31.47-12.26c.28-.11,.45-.37,.45-.67v-1.42h11.76c.4,0,.71-.32,.71-.71v-12.92h2.46c3.34,0,6.05-2.71,6.05-6.05Zm-47.71,.62c.34,.17,.71,.29,1.09,.35v5.4c-.41-.11-.78-.31-1.09-.6v-5.15Zm2.52,.52c1.15,.32,2.01,1.36,2.01,2.61s-.85,2.29-2.01,2.61v-5.22Zm-1.43-1.64c-.41-.11-.78-.31-1.09-.59v-4.03c.32-.29,.69-.49,1.09-.6v5.22Zm-1.09,7.98c.34,.17,.71,.29,1.09,.35v.74c0,.39,.32,.71,.71,.71s.71-.32,.71-.71v-.74c1.95-.34,3.43-2.04,3.43-4.08s-1.48-3.74-3.43-4.08v-5.39c1.15,.32,2.01,1.36,2.01,2.61,0,.4,.32,.71,.71,.71s.71-.32,.71-.71c0-2.04-1.48-3.74-3.43-4.08v-.73c0-.4-.32-.71-.71-.71s-.71,.32-.71,.71v.73c-.39,.07-.75,.18-1.09,.35v-2.64c.6-.11,1.2-.18,1.81-.18,5.5,0,9.97,4.47,9.97,9.98s-4.47,9.98-9.97,9.98c-.6,0-1.21-.07-1.81-.18v-2.64Zm0,4.09c.6,.09,1.2,.16,1.81,.16,6.29,0,11.4-5.12,11.4-11.41s-5.11-11.41-11.4-11.41c-.6,0-1.21,.07-1.81,.16v-3.76h29.66c.32,2.48,2.29,4.46,4.78,4.78v20.45c-1.21,.16-2.33,.7-3.2,1.58s-1.42,2-1.57,3.2H6.19v-3.76ZM52.48,26.11v1.99H6.19v-6.61H47.85c2.55,0,4.63,2.07,4.63,4.63Zm-20.98,50.43L1.46,88.24V13.54L31.5,1.83V20.06h-2.54V7.41c0-.24-.11-.46-.31-.59-.2-.13-.45-.16-.67-.07L5.21,16.04c-.27,.11-.44,.37-.44,.66V82.52c0,.24,.12,.46,.32,.59,.11,.08,.26,.12,.4,.12,.09,0,.18-.02,.27-.05l18.58-7.58h7.17v.93Zm12.47-2.36H6.19v-1.49h30.33c.39,0,.71-.32,.71-.72,0-1.09,.43-2.12,1.2-2.91,.78-.78,1.81-1.2,2.91-1.2,.4,0,.71-.32,.71-.71v-21.79c0-.39-.32-.71-.71-.71-2.27,0-4.11-1.84-4.11-4.11,0-.4-.32-.71-.71-.71H6.19v-1.5H43.97v35.86Zm1.43-25.33c2.04,.34,3.61,2.11,3.61,4.24s-1.57,3.91-3.61,4.26v-8.5Zm0,9.94c2.83-.35,5.04-2.77,5.04-5.7s-2.2-5.34-5.04-5.69v-9.8c0-.39-.32-.71-.71-.71H6.19v-1.15H52.48v20.18c0,2.55-2.08,4.62-4.63,4.62h-2.46v-1.76Z"/></g><path class="cls-4" d="M81.01,67.88c0-.08-.02-.17-.05-.25,0-.02-.01-.03-.02-.04-.04-.07-.08-.14-.14-.19-.01-.02-.02-.03-.03-.04-.02-.02-.04-.04-.06-.06l-8.48-6.17c-.32-.23-.77-.16-1,.16-.23,.32-.16,.77,.16,.99l6.71,4.88h-25.97c-.4,0-.71,.32-.71,.71s.32,.71,.71,.71h25.97l-6.71,4.88c-.32,.23-.39,.68-.16,1,.14,.19,.36,.29,.58,.29,.15,0,.29-.04,.42-.14l8.48-6.17s.04-.04,.06-.06c.01-.01,.02-.02,.04-.03,.05-.06,.09-.13,.13-.19l.02-.05c.03-.08,.05-.16,.05-.25Z"/><g class="cls-1"><path class="cls-4" d="M89.9,45.33l.02-.05c.03-.08,.05-.16,.05-.25s-.02-.17-.05-.25c0-.02-.01-.03-.02-.04-.03-.07-.08-.14-.13-.2-.01-.01-.03-.02-.04-.03-.02-.02-.04-.04-.06-.06l-8.48-6.17c-.32-.23-.77-.16-.99,.16-.23,.32-.16,.77,.16,.99l6.71,4.88h-25.97c-.39,0-.71,.32-.71,.71s.32,.71,.71,.71h25.97l-6.71,4.88c-.32,.23-.39,.68-.16,1,.14,.19,.35,.29,.58,.29,.15,0,.29-.04,.42-.14l8.48-6.17s.04-.04,.06-.06c.01-.01,.03-.02,.04-.03,.05-.06,.1-.13,.13-.19Z"/></g><path class="cls-4" d="M55.04,19.6h25.96l-6.71,4.88c-.32,.23-.39,.68-.16,1,.14,.19,.35,.29,.58,.29,.15,0,.29-.04,.42-.14l8.49-6.17s.04-.04,.06-.06c.02-.01,.03-.02,.04-.03,.06-.06,.1-.13,.13-.2,.01-.01,.01-.03,.02-.04,.03-.08,.05-.16,.05-.25s-.02-.17-.05-.25c0-.02-.01-.03-.02-.04-.03-.07-.07-.14-.13-.19-.01-.02-.02-.03-.04-.04-.02-.02-.04-.04-.06-.06l-8.49-6.17c-.32-.23-.76-.16-.99,.16-.23,.32-.16,.77,.16,1l6.71,4.88h-25.97c-.4,0-.71,.32-.71,.71s.32,.71,.71,.71Z"/></g></g></svg>