<svg width="390" height="1513" viewBox="0 0 390 1513" fill="none" xmlns="http://www.w3.org/2000/svg">
<rect width="393" height="1513" transform="translate(-2)" fill="url(#paint0_radial_1162_2956)"/>
<rect x="62.5" y="1230.88" width="265" height="94.6864" rx="19.5" fill="#1C043C" stroke="#8A15D5"/>
<path d="M127.468 1276.97C128.412 1277.15 129.188 1277.62 129.796 1278.39C130.404 1279.16 130.708 1280.04 130.708 1281.03C130.708 1281.92 130.484 1282.72 130.036 1283.4C129.604 1284.08 128.972 1284.6 128.14 1284.99C127.308 1285.37 126.324 1285.56 125.188 1285.56H117.964L117.964 1268.81H124.876C126.012 1268.81 126.988 1269 127.804 1269.36C128.636 1269.73 129.26 1270.24 129.676 1270.9C130.108 1271.56 130.324 1272.3 130.324 1273.13C130.324 1274.11 130.06 1274.92 129.532 1275.58C129.02 1276.24 128.332 1276.7 127.468 1276.97ZM121.324 1275.72H124.396C125.196 1275.72 125.812 1275.55 126.244 1275.2C126.676 1274.83 126.892 1274.31 126.892 1273.64C126.892 1272.96 126.676 1272.44 126.244 1272.08C125.812 1271.71 125.196 1271.52 124.396 1271.52H121.324L121.324 1275.72ZM124.708 1282.83C125.524 1282.83 126.156 1282.64 126.604 1282.25C127.068 1281.87 127.3 1281.32 127.3 1280.62C127.3 1279.9 127.06 1279.34 126.58 1278.94C126.1 1278.52 125.452 1278.32 124.636 1278.32H121.324V1282.83H124.708ZM144.786 1268.81V1271.52H140.322L140.322 1285.56H136.962L136.962 1271.52L132.498 1271.52V1268.81L144.786 1268.81ZM153.022 1285.73C151.854 1285.73 150.798 1285.53 149.854 1285.13C148.926 1284.73 148.19 1284.16 147.646 1283.4C147.102 1282.65 146.822 1281.76 146.806 1280.74H150.406C150.454 1281.43 150.694 1281.97 151.126 1282.37C151.574 1282.77 152.182 1282.97 152.95 1282.97C153.734 1282.97 154.35 1282.79 154.798 1282.42C155.246 1282.04 155.47 1281.54 155.47 1280.93C155.47 1280.44 155.318 1280.03 155.014 1279.71C154.71 1279.39 154.326 1279.14 153.862 1278.96C153.414 1278.77 152.79 1278.56 151.99 1278.34C150.902 1278.02 150.014 1277.71 149.326 1277.4C148.654 1277.08 148.07 1276.61 147.574 1275.99C147.094 1275.35 146.854 1274.5 146.854 1273.44C146.854 1272.45 147.102 1271.59 147.598 1270.85C148.094 1270.12 148.79 1269.56 149.686 1269.17C150.582 1268.77 151.606 1268.57 152.758 1268.57C154.486 1268.57 155.886 1269 156.958 1269.84C158.046 1270.68 158.646 1271.84 158.758 1273.35H155.062C155.03 1272.77 154.782 1272.3 154.318 1271.93C153.87 1271.55 153.27 1271.36 152.518 1271.36C151.862 1271.36 151.334 1271.52 150.934 1271.86C150.55 1272.2 150.358 1272.68 150.358 1273.32C150.358 1273.77 150.502 1274.15 150.79 1274.45C151.094 1274.74 151.462 1274.98 151.894 1275.17C152.342 1275.35 152.966 1275.56 153.766 1275.8C154.854 1276.12 155.742 1276.44 156.43 1276.76C157.118 1277.08 157.71 1277.56 158.206 1278.2C158.702 1278.84 158.95 1279.68 158.95 1280.72C158.95 1281.61 158.718 1282.44 158.254 1283.21C157.79 1283.98 157.11 1284.6 156.214 1285.06C155.318 1285.51 154.254 1285.73 153.022 1285.73ZM170.941 1282.9H176.461V1285.56H167.581L167.581 1268.81H170.941L170.941 1282.9ZM190.813 1274C190.813 1274.89 190.597 1275.73 190.165 1276.52C189.749 1277.3 189.085 1277.93 188.173 1278.41C187.277 1278.89 186.141 1279.13 184.765 1279.13H181.957L181.957 1285.56H178.597L178.597 1268.81H184.765C186.061 1268.81 187.165 1269.04 188.077 1269.48C188.989 1269.93 189.669 1270.55 190.117 1271.33C190.581 1272.12 190.813 1273 190.813 1274ZM184.621 1276.42C185.549 1276.42 186.237 1276.21 186.685 1275.8C187.133 1275.36 187.357 1274.76 187.357 1274C187.357 1272.36 186.445 1271.55 184.621 1271.55H181.957L181.957 1276.42H184.621Z" fill="white"/>
<path d="M210.317 1268.81L210.317 1271.52H205.853V1285.56H202.493V1271.52H198.029L198.029 1268.81H210.317ZM216.129 1274.33C216.561 1273.63 217.121 1273.08 217.809 1272.68C218.513 1272.28 219.313 1272.08 220.209 1272.08V1275.6H219.321C218.265 1275.6 217.465 1275.85 216.921 1276.35C216.393 1276.84 216.129 1277.71 216.129 1278.94V1285.56H212.769V1272.27H216.129V1274.33ZM221.608 1278.87C221.608 1277.52 221.872 1276.33 222.4 1275.29C222.944 1274.25 223.672 1273.45 224.584 1272.89C225.512 1272.33 226.544 1272.05 227.68 1272.05C228.672 1272.05 229.536 1272.25 230.272 1272.65C231.024 1273.05 231.624 1273.56 232.072 1274.16V1272.27H235.456V1285.56H232.072V1283.62C231.64 1284.24 231.04 1284.76 230.272 1285.18C229.52 1285.58 228.648 1285.78 227.656 1285.78C226.536 1285.78 225.512 1285.49 224.584 1284.92C223.672 1284.34 222.944 1283.53 222.4 1282.49C221.872 1281.44 221.608 1280.23 221.608 1278.87ZM232.072 1278.92C232.072 1278.1 231.912 1277.4 231.592 1276.83C231.272 1276.24 230.84 1275.79 230.296 1275.48C229.752 1275.16 229.168 1275 228.544 1275C227.92 1275 227.344 1275.16 226.816 1275.46C226.288 1275.76 225.856 1276.21 225.52 1276.8C225.2 1277.38 225.04 1278.07 225.04 1278.87C225.04 1279.67 225.2 1280.37 225.52 1280.98C225.856 1281.57 226.288 1282.03 226.816 1282.35C227.36 1282.67 227.936 1282.83 228.544 1282.83C229.168 1282.83 229.752 1282.68 230.296 1282.37C230.84 1282.05 231.272 1281.6 231.592 1281.03C231.912 1280.44 232.072 1279.73 232.072 1278.92ZM237.874 1278.87C237.874 1277.52 238.138 1276.33 238.666 1275.29C239.21 1274.25 239.946 1273.45 240.874 1272.89C241.802 1272.33 242.834 1272.05 243.97 1272.05C244.834 1272.05 245.658 1272.24 246.442 1272.63C247.226 1273 247.85 1273.49 248.314 1274.12L248.314 1267.8H251.722L251.722 1285.56H248.314V1283.6C247.898 1284.25 247.314 1284.78 246.562 1285.18C245.81 1285.58 244.938 1285.78 243.946 1285.78C242.826 1285.78 241.802 1285.49 240.874 1284.92C239.946 1284.34 239.21 1283.53 238.666 1282.49C238.138 1281.44 237.874 1280.23 237.874 1278.87ZM248.338 1278.92C248.338 1278.1 248.178 1277.4 247.858 1276.83C247.538 1276.24 247.106 1275.79 246.562 1275.48C246.018 1275.16 245.434 1275 244.81 1275C244.186 1275 243.61 1275.16 243.082 1275.46C242.554 1275.76 242.122 1276.21 241.786 1276.8C241.466 1277.38 241.306 1278.07 241.306 1278.87C241.306 1279.67 241.466 1280.37 241.786 1280.98C242.122 1281.57 242.554 1282.03 243.082 1282.35C243.626 1282.67 244.202 1282.83 244.81 1282.83C245.434 1282.83 246.018 1282.68 246.562 1282.37C247.106 1282.05 247.538 1281.6 247.858 1281.03C248.178 1280.44 248.338 1279.73 248.338 1278.92ZM267.363 1278.63C267.363 1279.11 267.331 1279.54 267.267 1279.92L257.547 1279.92C257.627 1280.88 257.963 1281.64 258.555 1282.18C259.147 1282.72 259.875 1283 260.739 1283C261.987 1283 262.875 1282.46 263.403 1281.39L267.027 1281.39C266.643 1282.67 265.907 1283.72 264.819 1284.56C263.731 1285.37 262.395 1285.78 260.811 1285.78C259.531 1285.78 258.379 1285.5 257.355 1284.94C256.347 1284.36 255.555 1283.56 254.979 1282.52C254.419 1281.48 254.139 1280.28 254.139 1278.92C254.139 1277.54 254.419 1276.33 254.979 1275.29C255.539 1274.25 256.323 1273.45 257.331 1272.89C258.339 1272.33 259.499 1272.05 260.811 1272.05C262.075 1272.05 263.203 1272.32 264.195 1272.87C265.203 1273.41 265.979 1274.19 266.523 1275.2C267.083 1276.19 267.363 1277.33 267.363 1278.63ZM263.883 1277.67C263.867 1276.8 263.555 1276.12 262.947 1275.6C262.339 1275.08 261.595 1274.81 260.715 1274.81C259.883 1274.81 259.179 1275.07 258.603 1275.58C258.043 1276.08 257.699 1276.77 257.571 1277.67H263.883ZM273.176 1274.33C273.608 1273.63 274.168 1273.08 274.856 1272.68C275.56 1272.28 276.36 1272.08 277.256 1272.08V1275.6H276.368C275.312 1275.6 274.512 1275.85 273.968 1276.35C273.44 1276.84 273.176 1277.71 273.176 1278.94V1285.56H269.816V1272.27H273.176V1274.33Z" fill="#FB3FFF"/>
<rect x="62.5" y="378.878" width="264.842" height="94.6864" rx="19.5" fill="#1C043C" stroke="#8A15D5"/>
<path d="M126.141 426.39C127.085 426.566 127.861 427.038 128.469 427.806C129.077 428.574 129.381 429.454 129.381 430.446C129.381 431.342 129.157 432.134 128.709 432.822C128.277 433.494 127.645 434.022 126.813 434.406C125.981 434.79 124.997 434.982 123.861 434.982H116.637L116.637 418.23H123.549C124.685 418.23 125.661 418.414 126.477 418.782C127.309 419.15 127.933 419.662 128.349 420.318C128.781 420.974 128.997 421.718 128.997 422.55C128.997 423.526 128.733 424.342 128.205 424.998C127.693 425.654 127.005 426.118 126.141 426.39ZM119.997 425.142H123.069C123.869 425.142 124.485 424.966 124.917 424.614C125.349 424.246 125.565 423.726 125.565 423.054C125.565 422.382 125.349 421.862 124.917 421.494C124.485 421.126 123.869 420.942 123.069 420.942H119.997L119.997 425.142ZM123.381 432.246C124.197 432.246 124.829 432.054 125.277 431.67C125.741 431.286 125.973 430.742 125.973 430.038C125.973 429.318 125.733 428.758 125.253 428.358C124.773 427.942 124.125 427.734 123.309 427.734H119.997V432.246H123.381ZM143.459 418.23V420.942H138.995L138.995 434.982L135.635 434.982L135.635 420.942H131.171V418.23L143.459 418.23ZM151.695 435.15C150.527 435.15 149.471 434.95 148.527 434.55C147.599 434.15 146.863 433.574 146.319 432.822C145.775 432.07 145.495 431.182 145.479 430.158H149.079C149.127 430.846 149.367 431.39 149.799 431.79C150.247 432.19 150.855 432.39 151.623 432.39C152.407 432.39 153.023 432.206 153.471 431.838C153.919 431.454 154.143 430.958 154.143 430.35C154.143 429.854 153.991 429.446 153.687 429.126C153.383 428.806 152.999 428.558 152.535 428.382C152.087 428.19 151.463 427.982 150.663 427.758C149.575 427.438 148.687 427.126 147.999 426.822C147.327 426.502 146.743 426.03 146.247 425.406C145.767 424.766 145.527 423.918 145.527 422.862C145.527 421.87 145.775 421.006 146.271 420.27C146.767 419.534 147.463 418.974 148.359 418.59C149.255 418.19 150.279 417.99 151.431 417.99C153.159 417.99 154.559 418.414 155.631 419.262C156.719 420.094 157.319 421.262 157.431 422.766H153.735C153.703 422.19 153.455 421.718 152.991 421.35C152.543 420.966 151.943 420.774 151.191 420.774C150.535 420.774 150.007 420.942 149.607 421.278C149.223 421.614 149.031 422.102 149.031 422.742C149.031 423.19 149.175 423.566 149.463 423.87C149.767 424.158 150.135 424.398 150.567 424.59C151.015 424.766 151.639 424.974 152.439 425.214C153.527 425.534 154.415 425.854 155.103 426.174C155.791 426.494 156.383 426.974 156.879 427.614C157.375 428.254 157.623 429.094 157.623 430.134C157.623 431.03 157.391 431.862 156.927 432.63C156.463 433.398 155.783 434.014 154.887 434.478C153.991 434.926 152.927 435.15 151.695 435.15ZM169.615 432.318L175.135 432.318V434.982L166.255 434.982L166.255 418.23H169.615L169.615 432.318ZM189.486 423.414C189.486 424.31 189.27 425.15 188.838 425.934C188.422 426.718 187.758 427.35 186.846 427.83C185.95 428.31 184.814 428.55 183.438 428.55H180.63L180.63 434.982H177.27L177.27 418.23H183.438C184.734 418.23 185.838 418.454 186.75 418.902C187.662 419.35 188.342 419.966 188.79 420.75C189.254 421.534 189.486 422.422 189.486 423.414ZM183.294 425.838C184.222 425.838 184.91 425.63 185.358 425.214C185.806 424.782 186.03 424.182 186.03 423.414C186.03 421.782 185.118 420.966 183.294 420.966H180.63L180.63 425.838H183.294Z" fill="white"/>
<path d="M211.487 418.23L211.487 434.982H208.127L208.127 427.854L200.951 427.854L200.951 434.982H197.591L197.591 418.23H200.951L200.951 425.118L208.127 425.118L208.127 418.23H211.487ZM220.698 435.198C219.418 435.198 218.266 434.918 217.242 434.358C216.218 433.782 215.41 432.974 214.818 431.934C214.242 430.894 213.954 429.694 213.954 428.334C213.954 426.974 214.25 425.774 214.842 424.734C215.45 423.694 216.274 422.894 217.314 422.334C218.354 421.758 219.514 421.47 220.794 421.47C222.074 421.47 223.234 421.758 224.274 422.334C225.314 422.894 226.13 423.694 226.722 424.734C227.33 425.774 227.634 426.974 227.634 428.334C227.634 429.694 227.322 430.894 226.698 431.934C226.09 432.974 225.258 433.782 224.202 434.358C223.162 434.918 221.994 435.198 220.698 435.198ZM220.698 432.27C221.306 432.27 221.874 432.126 222.402 431.838C222.946 431.534 223.378 431.086 223.698 430.494C224.018 429.902 224.178 429.182 224.178 428.334C224.178 427.07 223.842 426.102 223.17 425.43C222.514 424.742 221.706 424.398 220.746 424.398C219.786 424.398 218.978 424.742 218.322 425.43C217.682 426.102 217.362 427.07 217.362 428.334C217.362 429.598 217.674 430.574 218.298 431.262C218.938 431.934 219.738 432.27 220.698 432.27ZM233.458 417.222L233.458 434.982H230.098L230.098 417.222H233.458ZM235.914 428.286C235.914 426.942 236.178 425.75 236.706 424.71C237.25 423.67 237.986 422.87 238.914 422.31C239.842 421.75 240.874 421.47 242.01 421.47C242.874 421.47 243.698 421.662 244.482 422.046C245.266 422.414 245.89 422.91 246.354 423.534L246.354 417.222H249.762L249.762 434.982H246.354V433.014C245.938 433.67 245.354 434.198 244.602 434.598C243.85 434.998 242.978 435.198 241.986 435.198C240.866 435.198 239.842 434.91 238.914 434.334C237.986 433.758 237.25 432.95 236.706 431.91C236.178 430.854 235.914 429.646 235.914 428.286ZM246.378 428.334C246.378 427.518 246.218 426.822 245.898 426.246C245.578 425.654 245.146 425.206 244.602 424.902C244.058 424.582 243.474 424.422 242.85 424.422C242.226 424.422 241.65 424.574 241.122 424.878C240.594 425.182 240.162 425.63 239.826 426.222C239.506 426.798 239.346 427.486 239.346 428.286C239.346 429.086 239.506 429.79 239.826 430.398C240.162 430.99 240.594 431.446 241.122 431.766C241.666 432.086 242.242 432.246 242.85 432.246C243.474 432.246 244.058 432.094 244.602 431.79C245.146 431.47 245.578 431.022 245.898 430.446C246.218 429.854 246.378 429.15 246.378 428.334ZM265.404 428.046C265.404 428.526 265.372 428.958 265.308 429.342H255.588C255.668 430.302 256.004 431.054 256.596 431.598C257.188 432.142 257.916 432.414 258.78 432.414C260.028 432.414 260.916 431.878 261.444 430.806H265.068C264.684 432.086 263.948 433.142 262.86 433.974C261.772 434.79 260.436 435.198 258.852 435.198C257.572 435.198 256.42 434.918 255.396 434.358C254.388 433.782 253.596 432.974 253.02 431.934C252.46 430.894 252.18 429.694 252.18 428.334C252.18 426.958 252.46 425.75 253.02 424.71C253.58 423.67 254.364 422.87 255.372 422.31C256.38 421.75 257.54 421.47 258.852 421.47C260.116 421.47 261.244 421.742 262.236 422.286C263.244 422.83 264.02 423.606 264.564 424.614C265.124 425.606 265.404 426.75 265.404 428.046ZM261.924 427.086C261.908 426.222 261.596 425.534 260.988 425.022C260.38 424.494 259.636 424.23 258.756 424.23C257.924 424.23 257.22 424.486 256.644 424.998C256.084 425.494 255.74 426.19 255.612 427.086H261.924ZM271.216 423.75C271.648 423.046 272.208 422.494 272.896 422.094C273.6 421.694 274.4 421.494 275.296 421.494V425.022H274.408C273.352 425.022 272.552 425.27 272.008 425.766C271.48 426.262 271.216 427.126 271.216 428.358V434.982L267.856 434.982V421.686L271.216 421.686V423.75Z" fill="#FB3FFF"/>
<path d="M59.8287 345.66L59.8287 337.04H62.6287L62.6287 345.68C62.6287 347.6 63.6687 348.6 65.4487 348.6C67.2487 348.6 68.2887 347.6 68.2887 345.68L68.2887 337.04H71.1087L71.1087 345.66C71.1087 349.34 68.4687 351.14 65.4087 351.14C62.3487 351.14 59.8287 349.34 59.8287 345.66ZM82.014 347.84C82.014 349.74 80.354 351.18 77.654 351.18C74.874 351.18 72.934 349.56 72.814 347.5H75.634C75.734 348.34 76.514 348.98 77.634 348.98C78.734 348.98 79.334 348.48 79.334 347.84C79.334 345.86 73.074 347.12 73.074 343.06C73.074 341.22 74.714 339.74 77.454 339.74C80.134 339.74 81.754 341.2 81.914 343.4H79.234C79.154 342.54 78.474 341.96 77.374 341.96C76.334 341.96 75.794 342.38 75.794 343.02C75.794 345.04 81.934 343.78 82.014 347.84ZM88.6724 342.04C87.3324 342.04 86.2724 342.9 86.0524 344.42H91.3124C91.2724 342.96 90.1124 342.04 88.6724 342.04ZM93.9324 347.52C93.3324 349.56 91.4924 351.18 88.7524 351.18C85.5324 351.18 83.1924 348.94 83.1924 345.46C83.1924 341.96 85.4724 339.74 88.7524 339.74C91.9524 339.74 94.2124 341.92 94.2124 345.22C94.2124 345.58 94.1924 345.94 94.1324 346.3H86.0324C86.1724 347.94 87.2924 348.86 88.6924 348.86C89.8924 348.86 90.5524 348.26 90.9124 347.52H93.9324ZM98.6562 345.48L98.6562 351H95.8562L95.8562 339.92H98.6562V341.64C99.3562 340.5 100.516 339.76 102.056 339.76V342.7H101.316C99.6562 342.7 98.6562 343.34 98.6562 345.48ZM107.188 345.42C107.188 341.96 109.428 339.74 112.248 339.74C113.988 339.74 115.248 340.54 115.908 341.5V339.92H118.728L118.728 351.08C118.728 354.08 116.888 356.46 113.248 356.46C110.128 356.46 107.948 354.9 107.668 352.36H110.448C110.728 353.36 111.768 354.02 113.168 354.02C114.708 354.02 115.908 353.14 115.908 351.08L115.908 349.36C115.248 350.32 113.988 351.18 112.248 351.18C109.428 351.18 107.188 348.88 107.188 345.42ZM115.908 345.46C115.908 343.36 114.508 342.2 112.968 342.2C111.468 342.2 110.048 343.32 110.048 345.42C110.048 347.52 111.468 348.72 112.968 348.72C114.508 348.72 115.908 347.56 115.908 345.46ZM125.822 342.04C124.482 342.04 123.422 342.9 123.202 344.42H128.462C128.422 342.96 127.262 342.04 125.822 342.04ZM131.082 347.52C130.482 349.56 128.642 351.18 125.902 351.18C122.682 351.18 120.342 348.94 120.342 345.46C120.342 341.96 122.622 339.74 125.902 339.74C129.102 339.74 131.362 341.92 131.362 345.22C131.362 345.58 131.342 345.94 131.282 346.3H123.182C123.322 347.94 124.442 348.86 125.842 348.86C127.042 348.86 127.702 348.26 128.062 347.52H131.082ZM133.446 347.56L133.446 342.22H132.126V339.92H133.446V337.18H136.266V339.92H138.746V342.22H136.266L136.266 347.58C136.266 348.32 136.566 348.64 137.446 348.64H138.746V351H136.986C134.866 351 133.446 350.1 133.446 347.56ZM148.96 347.84C148.96 349.74 147.3 351.18 144.6 351.18C141.82 351.18 139.88 349.56 139.76 347.5H142.58C142.68 348.34 143.46 348.98 144.58 348.98C145.68 348.98 146.28 348.48 146.28 347.84C146.28 345.86 140.02 347.12 140.02 343.06C140.02 341.22 141.66 339.74 144.4 339.74C147.08 339.74 148.7 341.2 148.86 343.4H146.18C146.1 342.54 145.42 341.96 144.32 341.96C143.28 341.96 142.74 342.38 142.74 343.02C142.74 345.04 148.88 343.78 148.96 347.84ZM161.344 351L159.064 347.56L157.044 351H154.044L157.664 345.44L154.004 339.92H157.164L159.424 343.34L161.464 339.92H164.464L160.824 345.44L164.504 351H161.344ZM169.351 340C169.351 337.92 170.711 336.76 172.531 336.76C174.351 336.76 175.711 337.92 175.711 340C175.711 342.1 174.351 343.26 172.531 343.26C170.711 343.26 169.351 342.1 169.351 340ZM172.511 338.44C171.831 338.44 171.411 338.9 171.411 340C171.411 341.1 171.831 341.58 172.511 341.58C173.211 341.58 173.651 341.1 173.651 340C173.651 338.9 173.211 338.44 172.511 338.44ZM171.611 351L179.451 337H182.191L174.331 351H171.611ZM178.131 347.98C178.131 345.88 179.491 344.74 181.311 344.74C183.111 344.74 184.451 345.88 184.451 347.98C184.451 350.1 183.111 351.24 181.311 351.24C179.491 351.24 178.131 350.1 178.131 347.98ZM181.291 346.42C180.591 346.42 180.151 346.88 180.151 347.98C180.151 349.1 180.591 349.56 181.291 349.56C181.971 349.56 182.411 349.1 182.411 347.98C182.411 346.88 181.971 346.42 181.291 346.42ZM201.238 345.46C201.238 348.94 198.678 351.18 195.458 351.18C192.258 351.18 189.838 348.94 189.838 345.46C189.838 341.96 192.338 339.74 195.538 339.74C198.738 339.74 201.238 341.96 201.238 345.46ZM192.678 345.46C192.678 347.66 193.958 348.74 195.458 348.74C196.938 348.74 198.358 347.66 198.358 345.46C198.358 343.24 196.978 342.18 195.498 342.18C194.018 342.18 192.678 343.24 192.678 345.46ZM203.192 351L203.192 342.22H201.932V339.92H203.192V339.36C203.192 336.64 204.732 335.38 207.852 335.46V337.82C206.492 337.78 206.032 338.22 206.032 339.46V339.92H207.972V342.22H206.032L206.032 351H203.192ZM214.192 347.56L214.192 342.22H212.872V339.92H214.192V337.18L217.012 337.18V339.92H219.492V342.22H217.012L217.012 347.58C217.012 348.32 217.312 348.64 218.192 348.64H219.492V351H217.732C215.612 351 214.192 350.1 214.192 347.56ZM223.906 345.48L223.906 351H221.106L221.106 339.92H223.906V341.64C224.606 340.5 225.766 339.76 227.306 339.76V342.7H226.566C224.906 342.7 223.906 343.34 223.906 345.48ZM228.072 345.42C228.072 341.96 230.312 339.74 233.132 339.74C234.912 339.74 236.132 340.58 236.792 341.5V339.92H239.612L239.612 351H236.792V349.38C236.132 350.34 234.872 351.18 233.112 351.18C230.312 351.18 228.072 348.88 228.072 345.42ZM236.792 345.46C236.792 343.36 235.392 342.2 233.852 342.2C232.352 342.2 230.932 343.32 230.932 345.42C230.932 347.52 232.352 348.72 233.852 348.72C235.392 348.72 236.792 347.56 236.792 345.46ZM241.227 345.42C241.227 341.96 243.467 339.74 246.307 339.74C247.767 339.74 249.167 340.42 249.927 341.46V336.2L252.767 336.2L252.767 351L249.927 351V349.36C249.267 350.38 248.027 351.18 246.287 351.18C243.467 351.18 241.227 348.88 241.227 345.42ZM249.947 345.46C249.947 343.36 248.547 342.2 247.007 342.2C245.507 342.2 244.087 343.32 244.087 345.42C244.087 347.52 245.507 348.72 247.007 348.72C248.547 348.72 249.947 347.56 249.947 345.46ZM255.101 351L255.101 339.92H257.901L257.901 351H255.101ZM256.521 338.6C255.521 338.6 254.801 337.88 254.801 336.96C254.801 336.04 255.521 335.32 256.521 335.32C257.501 335.32 258.241 336.04 258.241 336.96C258.241 337.88 257.501 338.6 256.521 338.6ZM268.028 351L268.028 344.88C268.028 343.1 267.048 342.14 265.568 342.14C264.048 342.14 263.068 343.1 263.068 344.88L263.068 351H260.268L260.268 339.92H263.068V341.3C263.788 340.36 264.988 339.76 266.408 339.76C268.988 339.76 270.828 341.44 270.828 344.5L270.828 351H268.028ZM272.371 345.42C272.371 341.96 274.611 339.74 277.431 339.74C279.171 339.74 280.431 340.54 281.091 341.5V339.92L283.911 339.92L283.911 351.08C283.911 354.08 282.071 356.46 278.431 356.46C275.311 356.46 273.131 354.9 272.851 352.36H275.631C275.911 353.36 276.951 354.02 278.351 354.02C279.891 354.02 281.091 353.14 281.091 351.08V349.36C280.431 350.32 279.171 351.18 277.431 351.18C274.611 351.18 272.371 348.88 272.371 345.42ZM281.091 345.46C281.091 343.36 279.691 342.2 278.151 342.2C276.651 342.2 275.231 343.32 275.231 345.42C275.231 347.52 276.651 348.72 278.151 348.72C279.691 348.72 281.091 347.56 281.091 345.46ZM290.911 351L290.911 342.22H289.651V339.92H290.911V339.36C290.911 336.64 292.451 335.38 295.571 335.46V337.82C294.211 337.78 293.751 338.22 293.751 339.46V339.92H295.691V342.22H293.751V351H290.911ZM301.865 342.04C300.525 342.04 299.465 342.9 299.245 344.42H304.505C304.465 342.96 303.305 342.04 301.865 342.04ZM307.125 347.52C306.525 349.56 304.685 351.18 301.945 351.18C298.725 351.18 296.385 348.94 296.385 345.46C296.385 341.96 298.665 339.74 301.945 339.74C305.145 339.74 307.405 341.92 307.405 345.22C307.405 345.58 307.385 345.94 307.325 346.3H299.225C299.365 347.94 300.485 348.86 301.885 348.86C303.085 348.86 303.745 348.26 304.105 347.52H307.125ZM313.809 342.04C312.469 342.04 311.409 342.9 311.189 344.42H316.449C316.409 342.96 315.249 342.04 313.809 342.04ZM319.069 347.52C318.469 349.56 316.629 351.18 313.889 351.18C310.669 351.18 308.329 348.94 308.329 345.46C308.329 341.96 310.609 339.74 313.889 339.74C317.089 339.74 319.349 341.92 319.349 345.22C319.349 345.58 319.329 345.94 319.269 346.3L311.169 346.3C311.309 347.94 312.429 348.86 313.829 348.86C315.029 348.86 315.689 348.26 316.049 347.52L319.069 347.52ZM329.593 347.84C329.593 349.74 327.933 351.18 325.233 351.18C322.453 351.18 320.513 349.56 320.393 347.5H323.213C323.313 348.34 324.093 348.98 325.213 348.98C326.313 348.98 326.913 348.48 326.913 347.84C326.913 345.86 320.653 347.12 320.653 343.06C320.653 341.22 322.293 339.74 325.033 339.74C327.713 339.74 329.333 341.2 329.493 343.4H326.813C326.733 342.54 326.053 341.96 324.953 341.96C323.913 341.96 323.373 342.38 323.373 343.02C323.373 345.04 329.513 343.78 329.593 347.84Z" fill="white"/>
<rect x="139" y="272" width="111" height="37" rx="8" fill="url(#paint1_linear_1162_2956)"/>
<path d="M163.807 297.5H159.098L159.098 282.955H163.956C165.381 282.955 166.605 283.246 167.628 283.828C168.651 284.406 169.434 285.237 169.979 286.321C170.528 287.401 170.803 288.696 170.803 290.206C170.803 291.721 170.526 293.023 169.972 294.112C169.422 295.201 168.627 296.039 167.585 296.626C166.544 297.209 165.284 297.5 163.807 297.5ZM161.293 295.582H163.686C164.794 295.582 165.715 295.374 166.449 294.957C167.183 294.536 167.732 293.928 168.097 293.132C168.461 292.332 168.643 291.357 168.643 290.206C168.643 289.065 168.461 288.097 168.097 287.301C167.737 286.506 167.199 285.902 166.484 285.49C165.769 285.078 164.882 284.872 163.821 284.872H161.293L161.293 295.582ZM178.063 297.72C176.988 297.72 176.062 297.491 175.286 297.031C174.514 296.567 173.917 295.916 173.496 295.078C173.079 294.235 172.871 293.248 172.871 292.116C172.871 290.999 173.079 290.014 173.496 289.162C173.917 288.31 174.505 287.644 175.257 287.166C176.015 286.688 176.9 286.449 177.914 286.449C178.529 286.449 179.126 286.551 179.703 286.754C180.281 286.958 180.8 287.277 181.259 287.713C181.718 288.149 182.08 288.714 182.346 289.411C182.611 290.102 182.743 290.942 182.743 291.932V292.685L174.071 292.685V291.094L180.662 291.094C180.662 290.535 180.549 290.04 180.321 289.609C180.094 289.174 179.775 288.83 179.363 288.58C178.955 288.329 178.477 288.203 177.928 288.203C177.331 288.203 176.81 288.35 176.365 288.643C175.925 288.932 175.584 289.311 175.343 289.78C175.106 290.244 174.988 290.748 174.988 291.293V292.536C174.988 293.265 175.115 293.885 175.371 294.396C175.632 294.908 175.994 295.298 176.458 295.568C176.922 295.833 177.464 295.966 178.084 295.966C178.487 295.966 178.854 295.909 179.185 295.795C179.516 295.677 179.803 295.502 180.044 295.27C180.286 295.038 180.471 294.751 180.598 294.411L182.608 294.773C182.447 295.365 182.158 295.883 181.742 296.328C181.33 296.768 180.811 297.112 180.186 297.358C179.566 297.599 178.858 297.72 178.063 297.72ZM185.099 301.591L185.099 286.591H187.173V288.359H187.351C187.474 288.132 187.652 287.869 187.884 287.571C188.116 287.273 188.438 287.012 188.849 286.79C189.261 286.562 189.806 286.449 190.483 286.449C191.364 286.449 192.15 286.671 192.841 287.116C193.532 287.562 194.074 288.203 194.467 289.041C194.865 289.879 195.064 290.888 195.064 292.067C195.064 293.246 194.867 294.257 194.474 295.099C194.081 295.937 193.542 296.584 192.855 297.038C192.169 297.488 191.385 297.713 190.504 297.713C189.841 297.713 189.299 297.602 188.878 297.379C188.461 297.157 188.134 296.896 187.898 296.598C187.661 296.3 187.479 296.035 187.351 295.803H187.223V301.591H185.099ZM187.18 292.045C187.18 292.812 187.292 293.485 187.514 294.062C187.737 294.64 188.059 295.092 188.48 295.419C188.902 295.741 189.418 295.902 190.028 295.902C190.663 295.902 191.193 295.734 191.619 295.398C192.045 295.057 192.367 294.595 192.585 294.013C192.808 293.43 192.919 292.775 192.919 292.045C192.919 291.326 192.81 290.679 192.592 290.107C192.379 289.534 192.057 289.081 191.626 288.75C191.2 288.419 190.668 288.253 190.028 288.253C189.413 288.253 188.892 288.411 188.466 288.729C188.045 289.046 187.725 289.489 187.507 290.057C187.289 290.625 187.18 291.288 187.18 292.045ZM202.038 297.72C201.016 297.72 200.123 297.486 199.361 297.017C198.598 296.548 198.007 295.893 197.585 295.05C197.164 294.207 196.953 293.222 196.953 292.095C196.953 290.964 197.164 289.974 197.585 289.126C198.007 288.279 198.598 287.621 199.361 287.152C200.123 286.683 201.016 286.449 202.038 286.449C203.061 286.449 203.954 286.683 204.716 287.152C205.478 287.621 206.07 288.279 206.491 289.126C206.913 289.974 207.124 290.964 207.124 292.095C207.124 293.222 206.913 294.207 206.491 295.05C206.07 295.893 205.478 296.548 204.716 297.017C203.954 297.486 203.061 297.72 202.038 297.72ZM202.045 295.937C202.708 295.937 203.258 295.762 203.693 295.412C204.129 295.062 204.451 294.595 204.659 294.013C204.872 293.43 204.979 292.789 204.979 292.088C204.979 291.392 204.872 290.753 204.659 290.17C204.451 289.583 204.129 289.112 203.693 288.757C203.258 288.402 202.708 288.224 202.045 288.224C201.378 288.224 200.824 288.402 200.384 288.757C199.948 289.112 199.624 289.583 199.411 290.17C199.202 290.753 199.098 291.392 199.098 292.088C199.098 292.789 199.202 293.43 199.411 294.013C199.624 294.595 199.948 295.062 200.384 295.412C200.824 295.762 201.378 295.937 202.045 295.937ZM217.669 289.254L215.744 289.595C215.663 289.349 215.536 289.115 215.36 288.892C215.19 288.67 214.958 288.487 214.664 288.345C214.371 288.203 214.004 288.132 213.564 288.132C212.962 288.132 212.46 288.267 212.058 288.537C211.655 288.802 211.454 289.145 211.454 289.567C211.454 289.931 211.589 290.225 211.859 290.447C212.129 290.67 212.565 290.852 213.166 290.994L214.899 291.392C215.903 291.624 216.651 291.982 217.143 292.464C217.636 292.947 217.882 293.575 217.882 294.347C217.882 295 217.692 295.582 217.314 296.094C216.94 296.6 216.416 296.998 215.744 297.287C215.076 297.576 214.302 297.72 213.422 297.72C212.2 297.72 211.203 297.46 210.431 296.939C209.66 296.413 209.186 295.668 209.011 294.702L211.064 294.389C211.191 294.924 211.454 295.329 211.852 295.604C212.25 295.874 212.768 296.009 213.407 296.009C214.103 296.009 214.66 295.864 215.076 295.575C215.493 295.282 215.701 294.924 215.701 294.503C215.701 294.162 215.574 293.875 215.318 293.643C215.067 293.411 214.681 293.236 214.16 293.118L212.314 292.713C211.296 292.481 210.543 292.112 210.055 291.605C209.572 291.098 209.331 290.457 209.331 289.68C209.331 289.036 209.511 288.473 209.87 287.99C210.23 287.507 210.727 287.131 211.362 286.861C211.996 286.586 212.723 286.449 213.542 286.449C214.721 286.449 215.649 286.705 216.326 287.216C217.003 287.723 217.451 288.402 217.669 289.254ZM220.217 297.5L220.217 286.591H222.34L222.34 297.5H220.217ZM221.289 284.908C220.92 284.908 220.603 284.785 220.337 284.538C220.077 284.287 219.947 283.989 219.947 283.643C219.947 283.293 220.077 282.995 220.337 282.749C220.603 282.498 220.92 282.372 221.289 282.372C221.658 282.372 221.973 282.498 222.234 282.749C222.499 282.995 222.631 283.293 222.631 283.643C222.631 283.989 222.499 284.287 222.234 284.538C221.973 284.785 221.658 284.908 221.289 284.908ZM230.289 286.591V288.295H224.331V286.591H230.289ZM225.929 283.977H228.052L228.052 294.297C228.052 294.709 228.114 295.019 228.237 295.227C228.36 295.431 228.519 295.571 228.713 295.646C228.912 295.717 229.127 295.753 229.359 295.753C229.529 295.753 229.679 295.741 229.806 295.717C229.934 295.694 230.034 295.675 230.105 295.661L230.488 297.415C230.365 297.462 230.19 297.509 229.963 297.557C229.735 297.609 229.451 297.637 229.11 297.642C228.552 297.652 228.031 297.552 227.548 297.344C227.065 297.135 226.674 296.813 226.376 296.378C226.078 295.942 225.929 295.395 225.929 294.737L225.929 283.977Z" fill="#FAFAFA"/>
<rect x="146" y="1128" width="97" height="36" rx="8" fill="url(#paint2_linear_1162_2956)"/>
<path d="M177.031 1142.28C176.955 1141.6 176.643 1141.08 176.094 1140.71C175.545 1140.34 174.853 1140.15 174.02 1140.15C173.423 1140.15 172.907 1140.25 172.472 1140.44C172.036 1140.62 171.697 1140.88 171.456 1141.2C171.219 1141.53 171.101 1141.89 171.101 1142.3C171.101 1142.65 171.181 1142.95 171.342 1143.2C171.508 1143.45 171.723 1143.66 171.989 1143.83C172.259 1144 172.547 1144.14 172.855 1144.25C173.163 1144.36 173.459 1144.45 173.743 1144.52L175.163 1144.89C175.627 1145 176.103 1145.16 176.591 1145.35C177.079 1145.54 177.531 1145.8 177.947 1146.12C178.364 1146.44 178.7 1146.83 178.956 1147.3C179.216 1147.77 179.347 1148.33 179.347 1148.98C179.347 1149.8 179.134 1150.54 178.707 1151.17C178.286 1151.81 177.673 1152.32 176.868 1152.69C176.068 1153.06 175.099 1153.24 173.963 1153.24C172.874 1153.24 171.932 1153.07 171.136 1152.72C170.341 1152.38 169.718 1151.89 169.268 1151.25C168.819 1150.61 168.57 1149.86 168.523 1148.98H170.724C170.767 1149.51 170.938 1149.94 171.236 1150.29C171.539 1150.64 171.925 1150.9 172.393 1151.07C172.867 1151.23 173.385 1151.32 173.949 1151.32C174.569 1151.32 175.121 1151.22 175.604 1151.03C176.091 1150.83 176.475 1150.55 176.754 1150.2C177.034 1149.85 177.173 1149.43 177.173 1148.96C177.173 1148.53 177.05 1148.18 176.804 1147.9C176.563 1147.63 176.233 1147.4 175.817 1147.22C175.405 1147.04 174.938 1146.88 174.418 1146.74L172.699 1146.27C171.534 1145.96 170.611 1145.49 169.929 1144.88C169.252 1144.26 168.913 1143.45 168.913 1142.43C168.913 1141.59 169.141 1140.86 169.595 1140.24C170.05 1139.61 170.665 1139.13 171.442 1138.78C172.218 1138.43 173.094 1138.26 174.07 1138.26C175.054 1138.26 175.923 1138.43 176.676 1138.77C177.434 1139.12 178.03 1139.6 178.466 1140.2C178.902 1140.8 179.129 1141.49 179.148 1142.28H177.031ZM184.164 1153L180.953 1142.09H183.148L185.286 1150.1H185.392L187.537 1142.09H189.732L191.863 1150.07H191.969L194.093 1142.09H196.287L193.084 1153H190.918L188.702 1145.12H188.539L186.323 1153H184.164ZM201.477 1153.24C200.786 1153.24 200.161 1153.11 199.602 1152.86C199.044 1152.6 198.601 1152.22 198.274 1151.73C197.952 1151.24 197.791 1150.63 197.791 1149.92C197.791 1149.3 197.91 1148.8 198.146 1148.4C198.383 1148 198.703 1147.69 199.105 1147.45C199.508 1147.22 199.957 1147.05 200.455 1146.93C200.952 1146.81 201.458 1146.72 201.974 1146.66C202.628 1146.58 203.158 1146.52 203.565 1146.47C203.973 1146.42 204.268 1146.34 204.453 1146.22C204.638 1146.11 204.73 1145.93 204.73 1145.67V1145.62C204.73 1145 204.555 1144.52 204.205 1144.18C203.859 1143.84 203.343 1143.67 202.656 1143.67C201.941 1143.67 201.378 1143.83 200.966 1144.14C200.559 1144.46 200.277 1144.8 200.121 1145.19L198.125 1144.73C198.362 1144.07 198.707 1143.54 199.162 1143.13C199.621 1142.72 200.149 1142.42 200.746 1142.23C201.342 1142.04 201.97 1141.95 202.628 1141.95C203.063 1141.95 203.525 1142 204.013 1142.11C204.505 1142.2 204.964 1142.39 205.391 1142.66C205.821 1142.93 206.174 1143.31 206.449 1143.82C206.723 1144.31 206.861 1144.96 206.861 1145.76L206.861 1153H204.787V1151.51H204.702C204.564 1151.78 204.358 1152.05 204.084 1152.32C203.809 1152.58 203.456 1152.8 203.026 1152.98C202.595 1153.15 202.079 1153.24 201.477 1153.24ZM201.939 1151.54C202.526 1151.54 203.028 1151.42 203.445 1151.19C203.866 1150.96 204.186 1150.65 204.403 1150.28C204.626 1149.9 204.737 1149.5 204.737 1149.07V1147.66C204.661 1147.73 204.515 1147.81 204.297 1147.87C204.084 1147.93 203.84 1147.99 203.565 1148.04C203.291 1148.08 203.023 1148.12 202.763 1148.16C202.502 1148.19 202.285 1148.22 202.109 1148.24C201.697 1148.29 201.321 1148.38 200.98 1148.5C200.644 1148.63 200.374 1148.8 200.17 1149.04C199.972 1149.26 199.872 1149.57 199.872 1149.95C199.872 1150.47 200.066 1150.87 200.455 1151.14C200.843 1151.4 201.338 1151.54 201.939 1151.54ZM209.689 1157.09L209.689 1142.09H211.763V1143.86H211.941C212.064 1143.63 212.241 1143.37 212.473 1143.07C212.705 1142.77 213.027 1142.51 213.439 1142.29C213.851 1142.06 214.396 1141.95 215.073 1141.95C215.953 1141.95 216.739 1142.17 217.431 1142.62C218.122 1143.06 218.664 1143.7 219.057 1144.54C219.455 1145.38 219.654 1146.39 219.654 1147.57C219.654 1148.75 219.457 1149.76 219.064 1150.6C218.671 1151.44 218.132 1152.08 217.445 1152.54C216.758 1152.99 215.975 1153.21 215.094 1153.21C214.431 1153.21 213.889 1153.1 213.468 1152.88C213.051 1152.66 212.724 1152.4 212.488 1152.1C212.251 1151.8 212.069 1151.53 211.941 1151.3H211.813V1157.09H209.689ZM211.77 1147.55C211.77 1148.31 211.882 1148.98 212.104 1149.56C212.327 1150.14 212.649 1150.59 213.07 1150.92C213.491 1151.24 214.007 1151.4 214.618 1151.4C215.253 1151.4 215.783 1151.23 216.209 1150.9C216.635 1150.56 216.957 1150.1 217.175 1149.51C217.398 1148.93 217.509 1148.27 217.509 1147.55C217.509 1146.83 217.4 1146.18 217.182 1145.61C216.969 1145.03 216.647 1144.58 216.216 1144.25C215.79 1143.92 215.257 1143.75 214.618 1143.75C214.003 1143.75 213.482 1143.91 213.056 1144.23C212.634 1144.55 212.315 1144.99 212.097 1145.56C211.879 1146.12 211.77 1146.79 211.77 1147.55Z" fill="#FAFAFA"/>
<path d="M51.3592 1202.88C51.3592 1201.68 50.4992 1200.96 49.1392 1200.96H46.3792V1204.72H49.1992C50.5592 1204.72 51.3592 1204.06 51.3592 1202.88ZM51.0192 1197.06C51.0192 1195.94 50.2592 1195.3 48.9392 1195.3H46.3792L46.3792 1198.8H48.9392C50.2592 1198.8 51.0192 1198.2 51.0192 1197.06ZM54.1992 1203.22C54.1992 1205.44 52.4992 1207 49.5992 1207H43.5792L43.5792 1193.04H49.3392C52.2592 1193.04 53.8792 1194.56 53.8792 1196.64C53.8792 1198.34 52.8592 1199.4 51.4992 1199.84C53.0792 1200.12 54.1992 1201.58 54.1992 1203.22ZM66.4908 1195.92L66.4908 1207H63.6708L63.6708 1205.6C62.9708 1206.54 61.7508 1207.14 60.3708 1207.14C57.7908 1207.14 55.9308 1205.46 55.9308 1202.42L55.9308 1195.92H58.7308L58.7308 1202.02C58.7308 1203.8 59.7108 1204.76 61.1908 1204.76C62.7108 1204.76 63.6708 1203.8 63.6708 1202.02L63.6708 1195.92H66.4908ZM73.5734 1203.66L76.4734 1195.92H79.4534L72.5934 1212.24H69.6134L72.0134 1206.72L67.5734 1195.92H70.7134L73.5734 1203.66ZM79.9228 1210.62L85.3228 1188.06H88.0628L82.6628 1210.62H79.9228ZM98.4894 1203.84C98.4894 1205.74 96.8294 1207.18 94.1294 1207.18C91.3494 1207.18 89.4094 1205.56 89.2894 1203.5H92.1094C92.2094 1204.34 92.9894 1204.98 94.1094 1204.98C95.2094 1204.98 95.8094 1204.48 95.8094 1203.84C95.8094 1201.86 89.5494 1203.12 89.5494 1199.06C89.5494 1197.22 91.1894 1195.74 93.9294 1195.74C96.6094 1195.74 98.2294 1197.2 98.3894 1199.4H95.7094C95.6294 1198.54 94.9494 1197.96 93.8494 1197.96C92.8094 1197.96 92.2694 1198.38 92.2694 1199.02C92.2694 1201.04 98.4094 1199.78 98.4894 1203.84ZM105.148 1198.04C103.808 1198.04 102.748 1198.9 102.528 1200.42L107.788 1200.42C107.748 1198.96 106.588 1198.04 105.148 1198.04ZM110.408 1203.52C109.808 1205.56 107.968 1207.18 105.228 1207.18C102.008 1207.18 99.6678 1204.94 99.6678 1201.46C99.6678 1197.96 101.948 1195.74 105.228 1195.74C108.428 1195.74 110.688 1197.92 110.688 1201.22C110.688 1201.58 110.668 1201.94 110.608 1202.3L102.508 1202.3C102.648 1203.94 103.768 1204.86 105.168 1204.86C106.368 1204.86 107.028 1204.26 107.388 1203.52H110.408ZM112.332 1207L112.332 1192.2H115.132L115.132 1207H112.332ZM117.498 1207L117.498 1192.2H120.298L120.298 1207H117.498ZM134.81 1202.88C134.81 1201.68 133.95 1200.96 132.59 1200.96H129.83V1204.72H132.65C134.01 1204.72 134.81 1204.06 134.81 1202.88ZM134.47 1197.06C134.47 1195.94 133.71 1195.3 132.39 1195.3H129.83L129.83 1198.8H132.39C133.71 1198.8 134.47 1198.2 134.47 1197.06ZM137.65 1203.22C137.65 1205.44 135.95 1207 133.05 1207H127.03L127.03 1193.04H132.79C135.71 1193.04 137.33 1194.56 137.33 1196.64C137.33 1198.34 136.31 1199.4 134.95 1199.84C136.53 1200.12 137.65 1201.58 137.65 1203.22ZM138.742 1195.3V1193.04H148.982V1195.3H145.262L145.262 1207H142.462L142.462 1195.3H138.742ZM160.385 1202.96C160.385 1205.16 158.625 1207.14 155.445 1207.14C152.545 1207.14 150.305 1205.62 150.265 1202.98H153.265C153.345 1204.1 154.085 1204.84 155.385 1204.84C156.705 1204.84 157.485 1204.14 157.485 1203.14C157.485 1200.12 150.285 1201.94 150.305 1196.88C150.305 1194.36 152.345 1192.84 155.225 1192.84C158.085 1192.84 160.045 1194.3 160.225 1196.82H157.145C157.085 1195.9 156.345 1195.18 155.145 1195.16C154.045 1195.12 153.225 1195.66 153.225 1196.8C153.225 1199.6 160.385 1198.04 160.385 1202.96ZM166.778 1193.04H169.578L169.578 1204.78H174.178V1207H166.778L166.778 1193.04ZM178.357 1199.38H180.577C182.157 1199.38 182.857 1198.6 182.857 1197.36C182.857 1196.08 182.157 1195.32 180.577 1195.32H178.357V1199.38ZM185.737 1197.36C185.737 1199.48 184.297 1201.64 180.697 1201.64H178.357L178.357 1207H175.557L175.557 1193.04H180.697C184.057 1193.04 185.737 1194.94 185.737 1197.36ZM192.131 1203.56L192.131 1198.22H190.811V1195.92H192.131V1193.18H194.951V1195.92H197.431V1198.22H194.951L194.951 1203.58C194.951 1204.32 195.251 1204.64 196.131 1204.64H197.431V1207H195.671C193.551 1207 192.131 1206.1 192.131 1203.56ZM209.745 1201.46C209.745 1204.94 207.185 1207.18 203.965 1207.18C200.765 1207.18 198.345 1204.94 198.345 1201.46C198.345 1197.96 200.845 1195.74 204.045 1195.74C207.245 1195.74 209.745 1197.96 209.745 1201.46ZM201.185 1201.46C201.185 1203.66 202.465 1204.74 203.965 1204.74C205.445 1204.74 206.865 1203.66 206.865 1201.46C206.865 1199.24 205.485 1198.18 204.005 1198.18C202.525 1198.18 201.185 1199.24 201.185 1201.46ZM211.399 1207L211.399 1192.2H214.199V1200.62L217.919 1195.92H221.559L216.679 1201.48L221.599 1207H217.959L214.199 1202.28L214.199 1207H211.399ZM227.438 1198.04C226.098 1198.04 225.038 1198.9 224.818 1200.42H230.078C230.038 1198.96 228.878 1198.04 227.438 1198.04ZM232.698 1203.52C232.098 1205.56 230.258 1207.18 227.518 1207.18C224.298 1207.18 221.958 1204.94 221.958 1201.46C221.958 1197.96 224.238 1195.74 227.518 1195.74C230.718 1195.74 232.978 1197.92 232.978 1201.22C232.978 1201.58 232.958 1201.94 232.898 1202.3H224.798C224.938 1203.94 226.058 1204.86 227.458 1204.86C228.658 1204.86 229.318 1204.26 229.678 1203.52H232.698ZM242.382 1207L242.382 1200.88C242.382 1199.1 241.402 1198.14 239.922 1198.14C238.402 1198.14 237.422 1199.1 237.422 1200.88L237.422 1207H234.622L234.622 1195.92H237.422V1197.3C238.142 1196.36 239.342 1195.76 240.762 1195.76C243.342 1195.76 245.182 1197.44 245.182 1200.5L245.182 1207H242.382ZM256.045 1203.84C256.045 1205.74 254.385 1207.18 251.685 1207.18C248.905 1207.18 246.965 1205.56 246.845 1203.5H249.665C249.765 1204.34 250.545 1204.98 251.665 1204.98C252.765 1204.98 253.365 1204.48 253.365 1203.84C253.365 1201.86 247.105 1203.12 247.105 1199.06C247.105 1197.22 248.745 1195.74 251.485 1195.74C254.165 1195.74 255.785 1197.2 255.945 1199.4H253.265C253.185 1198.54 252.505 1197.96 251.405 1197.96C250.365 1197.96 249.825 1198.38 249.825 1199.02C249.825 1201.04 255.965 1199.78 256.045 1203.84ZM273.009 1201.46C273.009 1204.94 270.449 1207.18 267.229 1207.18C264.029 1207.18 261.609 1204.94 261.609 1201.46C261.609 1197.96 264.109 1195.74 267.309 1195.74C270.509 1195.74 273.009 1197.96 273.009 1201.46ZM264.449 1201.46C264.449 1203.66 265.729 1204.74 267.229 1204.74C268.709 1204.74 270.129 1203.66 270.129 1201.46C270.129 1199.24 268.749 1198.18 267.269 1198.18C265.789 1198.18 264.449 1199.24 264.449 1201.46ZM282.423 1207L282.423 1200.88C282.423 1199.1 281.443 1198.14 279.963 1198.14C278.443 1198.14 277.463 1199.1 277.463 1200.88L277.463 1207H274.663L274.663 1195.92H277.463V1197.3C278.183 1196.36 279.383 1195.76 280.803 1195.76C283.383 1195.76 285.223 1197.44 285.223 1200.5L285.223 1207H282.423ZM300.631 1207V1201.06H294.651V1207H291.851L291.851 1193.04H294.651L294.651 1198.78H300.631L300.631 1193.04H303.431L303.431 1207H300.631ZM305.787 1207V1195.92H308.587V1207H305.787ZM307.207 1194.6C306.207 1194.6 305.487 1193.88 305.487 1192.96C305.487 1192.04 306.207 1191.32 307.207 1191.32C308.187 1191.32 308.927 1192.04 308.927 1192.96C308.927 1193.88 308.187 1194.6 307.207 1194.6ZM309.773 1195.92H312.773L315.573 1204.42L318.373 1195.92H321.353L317.253 1207H313.853L309.773 1195.92ZM327.286 1198.04C325.946 1198.04 324.886 1198.9 324.666 1200.42H329.926C329.886 1198.96 328.726 1198.04 327.286 1198.04ZM332.546 1203.52C331.946 1205.56 330.106 1207.18 327.366 1207.18C324.146 1207.18 321.806 1204.94 321.806 1201.46C321.806 1197.96 324.086 1195.74 327.366 1195.74C330.566 1195.74 332.826 1197.92 332.826 1201.22C332.826 1201.58 332.806 1201.94 332.746 1202.3H324.646C324.786 1203.94 325.906 1204.86 327.306 1204.86C328.506 1204.86 329.166 1204.26 329.526 1203.52H332.546ZM342.83 1207L339.81 1202.3L337.07 1207H333.91L338.31 1199.96L333.85 1193.04H337.07L340.09 1197.72L342.81 1193.04H345.97L341.59 1200.06L346.05 1207H342.83Z" fill="white"/>
<g opacity="0.42">
<rect x="370" y="1010" width="353" height="353" rx="176.5" transform="rotate(-180 370 1010)" fill="url(#paint3_diamond_1162_2956)"/>
<rect x="370" y="1010" width="353" height="353" rx="176.5" transform="rotate(-180 370 1010)" stroke="#8A15D5"/>
</g>
<g opacity="0.21">
<rect x="313" y="953" width="239" height="239" rx="119.5" transform="rotate(-180 313 953)" fill="url(#paint4_radial_1162_2956)"/>
<rect x="313" y="953" width="239" height="239" rx="119.5" transform="rotate(-180 313 953)" stroke="#8A15D5"/>
</g>
<rect x="285" y="925" width="182" height="183" rx="91" transform="rotate(-180 285 925)" fill="#250D44"/>
<g opacity="0.21" filter="url(#filter0_i_1162_2956)">
<rect x="285" y="925" width="182" height="183" rx="91" transform="rotate(-180 285 925)" fill="url(#paint5_radial_1162_2956)" fill-opacity="0.5"/>
</g>
<g opacity="0.34">
<path d="M159.2 848.518L159.684 849.389L139.466 849.389L122.334 820.422C119.989 816.305 118.772 811.648 118.806 806.917C118.84 802.187 120.124 797.548 122.529 793.464C124.933 789.38 128.375 785.993 132.51 783.643C136.645 781.292 141.329 780.059 146.094 780.067L187.712 780.488L159.321 828.085C157.496 831.18 156.524 834.698 156.503 838.285C156.482 841.872 157.412 845.401 159.2 848.518Z" fill="#1C043C"/>
<path d="M255.005 803.145L233.667 839.203L207.576 794.13L205.669 790.795C203.854 787.75 201.28 785.219 198.195 783.446C195.11 781.672 191.618 780.716 188.054 780.669H187.6L198.223 762.64L231.669 762.64C236.42 762.69 241.076 763.973 245.173 766.361C249.27 768.749 252.667 772.16 255.026 776.255C257.385 780.35 258.625 784.986 258.621 789.703C258.617 794.42 257.371 799.054 255.005 803.145Z" fill="#1C043C"/>
<path d="M243.763 856.811L226.904 885.056C224.487 889.13 221.036 892.503 216.896 894.839C212.757 897.176 208.072 898.395 203.31 898.373C198.548 898.352 193.875 897.092 189.756 894.718C185.638 892.345 182.218 888.941 179.838 884.846L159.68 849.359L215.856 849.178C219.457 849.185 222.996 848.257 226.123 846.486C229.251 844.715 231.857 842.162 233.684 839.082L243.763 856.811Z" fill="#1C043C"/>
</g>
<path d="M241.061 501.939C240.475 501.354 239.525 501.354 238.939 501.939L229.393 511.485C228.808 512.071 228.808 513.021 229.393 513.607C229.979 514.192 230.929 514.192 231.515 513.607L240 505.121L248.485 513.607C249.071 514.192 250.021 514.192 250.607 513.607C251.192 513.021 251.192 512.071 250.607 511.485L241.061 501.939ZM241.5 678L241.5 503L238.5 503L238.5 678L241.5 678Z" fill="white"/>
<path d="M148.939 679.061C149.525 679.646 150.475 679.646 151.061 679.061L160.607 669.515C161.192 668.929 161.192 667.979 160.607 667.393C160.021 666.808 159.071 666.808 158.485 667.393L150 675.879L141.515 667.393C140.929 666.808 139.979 666.808 139.393 667.393C138.808 667.979 138.808 668.929 139.393 669.515L148.939 679.061ZM151.5 678L151.5 503L148.5 503L148.5 678L151.5 678Z" fill="white"/>
<path d="M193.939 1086.06C194.525 1086.65 195.475 1086.65 196.061 1086.06L205.607 1076.51C206.192 1075.93 206.192 1074.98 205.607 1074.39C205.021 1073.81 204.071 1073.81 203.485 1074.39L195 1082.88L186.515 1074.39C185.929 1073.81 184.979 1073.81 184.393 1074.39C183.808 1074.98 183.808 1075.93 184.393 1076.51L193.939 1086.06ZM196.5 1085L196.5 988L193.5 988L193.5 1085L196.5 1085Z" fill="white"/>
<g filter="url(#filter1_d_1162_2956)">
<path d="M143.935 832.806L143.935 806.654H149.464L149.464 817.444L160.689 817.444L160.689 806.654H166.205L166.205 832.806H160.689V822.003L149.464 822.003V832.806H143.935ZM170.662 832.806L170.662 813.192H176.101L176.101 832.806H170.662ZM173.394 810.663C172.585 810.663 171.892 810.395 171.313 809.859C170.742 809.314 170.457 808.663 170.457 807.905C170.457 807.156 170.742 806.513 171.313 805.977C171.892 805.432 172.585 805.16 173.394 805.16C174.203 805.16 174.893 805.432 175.463 805.977C176.042 806.513 176.331 807.156 176.331 807.905C176.331 808.663 176.042 809.314 175.463 809.859C174.893 810.395 174.203 810.663 173.394 810.663ZM198.745 813.192L191.888 832.806H185.758L178.901 813.192H184.647L188.721 827.225H188.925L192.986 813.192H198.745ZM209.835 833.189C207.818 833.189 206.081 832.78 204.625 831.963C203.178 831.137 202.063 829.971 201.28 828.464C200.497 826.949 200.105 825.157 200.105 823.088C200.105 821.07 200.497 819.3 201.28 817.776C202.063 816.252 203.165 815.064 204.587 814.213C206.017 813.362 207.694 812.936 209.618 812.936C210.912 812.936 212.117 813.145 213.232 813.562C214.356 813.971 215.335 814.588 216.169 815.414C217.012 816.239 217.667 817.278 218.136 818.529C218.604 819.772 218.838 821.228 218.838 822.896V824.391H202.276V821.019H213.717C213.717 820.236 213.547 819.542 213.207 818.938C212.866 818.333 212.394 817.861 211.789 817.52C211.193 817.171 210.499 816.997 209.708 816.997C208.882 816.997 208.15 817.188 207.511 817.572C206.881 817.946 206.388 818.453 206.03 819.091C205.672 819.721 205.489 820.423 205.481 821.198V824.403C205.481 825.374 205.66 826.212 206.017 826.919C206.383 827.625 206.898 828.17 207.562 828.553C208.226 828.936 209.014 829.128 209.925 829.128C210.529 829.128 211.083 829.043 211.585 828.873C212.087 828.702 212.517 828.447 212.875 828.106C213.232 827.766 213.504 827.349 213.692 826.855L218.723 827.187C218.468 828.396 217.944 829.452 217.152 830.354C216.369 831.248 215.356 831.946 214.113 832.448C212.879 832.942 211.453 833.189 209.835 833.189ZM227.674 806.654L232.948 815.567H233.153L238.452 806.654H244.696L236.715 819.73L244.875 832.806H238.516L233.153 823.88H232.948L227.585 832.806H221.251L229.437 819.73L221.405 806.654L227.674 806.654Z" fill="white"/>
<path d="M168.393 876.806L159.123 876.806L159.123 850.654H168.47C171.1 850.654 173.365 851.177 175.263 852.224C177.162 853.263 178.622 854.757 179.643 856.706C180.673 858.656 181.188 860.988 181.188 863.704C181.188 866.428 180.673 868.769 179.643 870.727C178.622 872.685 177.153 874.188 175.238 875.235C173.331 876.282 171.049 876.806 168.393 876.806ZM164.652 872.068H168.163C169.798 872.068 171.173 871.779 172.288 871.2C173.412 870.612 174.255 869.706 174.816 868.48C175.387 867.246 175.672 865.654 175.672 863.704C175.672 861.772 175.387 860.192 174.816 858.967C174.255 857.741 173.416 856.838 172.301 856.259C171.186 855.681 169.811 855.391 168.176 855.391H164.652V872.068ZM185.284 876.806L185.284 850.654H202.906L202.906 855.212H190.813V861.444H202V866.003H190.813V872.247H202.957L202.957 876.806H185.284ZM212.487 850.654L217.76 859.567H217.965L223.264 850.654H229.508L221.527 863.73L229.687 876.806H223.328L217.965 867.88H217.76L212.397 876.806H206.064L214.249 863.73L206.217 850.654H212.487Z" fill="#FB3FFF"/>
</g>
<path d="M125.175 132V95.6364H132.863V110.64H148.471V95.6364H156.141V132H148.471V116.979H132.863V132H125.175ZM162.338 132V104.727H169.902V132H162.338ZM166.138 101.212C165.013 101.212 164.048 100.839 163.243 100.093C162.45 99.3355 162.054 98.4299 162.054 97.3764C162.054 96.3348 162.45 95.4411 163.243 94.6953C164.048 93.9377 165.013 93.5589 166.138 93.5589C167.262 93.5589 168.221 93.9377 169.014 94.6953C169.819 95.4411 170.221 96.3348 170.221 97.3764C170.221 98.4299 169.819 99.3355 169.014 100.093C168.221 100.839 167.262 101.212 166.138 101.212ZM201.387 104.727L191.852 132H183.329L173.795 104.727H181.785L187.449 124.241H187.733L193.379 104.727H201.387ZM216.808 132.533C214.002 132.533 211.588 131.964 209.563 130.828C207.551 129.68 206.001 128.058 204.911 125.963C203.822 123.856 203.278 121.364 203.278 118.488C203.278 115.683 203.822 113.22 204.911 111.102C206.001 108.983 207.533 107.331 209.51 106.148C211.499 104.964 213.831 104.372 216.506 104.372C218.305 104.372 219.98 104.662 221.531 105.242C223.093 105.81 224.455 106.669 225.615 107.817C226.786 108.965 227.698 110.409 228.349 112.149C229 113.877 229.326 115.902 229.326 118.222V120.299H206.296V115.612H222.206C222.206 114.522 221.969 113.558 221.495 112.717C221.022 111.877 220.365 111.22 219.524 110.746C218.696 110.261 217.731 110.018 216.63 110.018C215.482 110.018 214.464 110.285 213.576 110.817C212.7 111.338 212.014 112.043 211.517 112.93C211.019 113.806 210.765 114.783 210.753 115.86V120.317C210.753 121.666 211.002 122.832 211.499 123.815C212.008 124.797 212.724 125.555 213.647 126.087C214.571 126.62 215.666 126.886 216.932 126.886C217.773 126.886 218.542 126.768 219.24 126.531C219.939 126.295 220.536 125.939 221.034 125.466C221.531 124.992 221.91 124.412 222.17 123.726L229.166 124.188C228.811 125.868 228.083 127.336 226.982 128.591C225.893 129.834 224.484 130.804 222.756 131.503C221.04 132.189 219.057 132.533 216.808 132.533ZM241.612 95.6364L248.946 108.03H249.23L256.598 95.6364H265.281L254.184 113.818L265.529 132H256.687L249.23 119.589H248.946L241.488 132H232.681L244.063 113.818L232.894 95.6364H241.612Z" fill="white"/>
<path opacity="0.5" d="M86.8232 161H302.177" stroke="url(#paint6_linear_1162_2956)" stroke-width="5.0292" stroke-linecap="round"/>
<path d="M194 577C186.272 577 180 583.272 180 591C180 598.728 186.272 605 194 605C201.728 605 208 598.728 208 591C208 583.272 201.728 577 194 577ZM195.4 598H192.6V589.6H195.4V598ZM195.4 586.8H192.6V584H195.4V586.8Z" fill="white"/>
<defs>
<filter id="filter0_i_1162_2956" x="103" y="742" width="182" height="186.119" filterUnits="userSpaceOnUse" color-interpolation-filters="sRGB">
<feFlood flood-opacity="0" result="BackgroundImageFix"/>
<feBlend mode="normal" in="SourceGraphic" in2="BackgroundImageFix" result="shape"/>
<feColorMatrix in="SourceAlpha" type="matrix" values="0 0 0 0 0 0 0 0 0 0 0 0 0 0 0 0 0 0 127 0" result="hardAlpha"/>
<feOffset dy="3.11854"/>
<feGaussianBlur stdDeviation="24.9484"/>
<feComposite in2="hardAlpha" operator="arithmetic" k2="-1" k3="1"/>
<feColorMatrix type="matrix" values="0 0 0 0 0.984314 0 0 0 0 0.247059 0 0 0 0 1 0 0 0 1 0"/>
<feBlend mode="normal" in2="shape" result="effect1_innerShadow_1162_2956"/>
</filter>
<filter id="filter1_d_1162_2956" x="113.369" y="781.786" width="162.071" height="132.777" filterUnits="userSpaceOnUse" color-interpolation-filters="sRGB">
<feFlood flood-opacity="0" result="BackgroundImageFix"/>
<feColorMatrix in="SourceAlpha" type="matrix" values="0 0 0 0 0 0 0 0 0 0 0 0 0 0 0 0 0 0 127 0" result="hardAlpha"/>
<feOffset dy="7.19182"/>
<feGaussianBlur stdDeviation="15.2826"/>
<feComposite in2="hardAlpha" operator="out"/>
<feColorMatrix type="matrix" values="0 0 0 0 0 0 0 0 0 0 0 0 0 0 0 0 0 0 0.5 0"/>
<feBlend mode="normal" in2="BackgroundImageFix" result="effect1_dropShadow_1162_2956"/>
<feBlend mode="normal" in="SourceGraphic" in2="effect1_dropShadow_1162_2956" result="shape"/>
</filter>
<radialGradient id="paint0_radial_1162_2956" cx="0" cy="0" r="1" gradientUnits="userSpaceOnUse" gradientTransform="translate(197 824) rotate(-176.396) scale(3913.74 2479.26)">
<stop stop-color="#3F1960"/>
<stop offset="1" stop-color="#10122A"/>
</radialGradient>
<linearGradient id="paint1_linear_1162_2956" x1="139" y1="290.863" x2="250" y2="290.863" gradientUnits="userSpaceOnUse">
<stop stop-color="#8A15D5"/>
<stop offset="0.994792" stop-color="#FB3FFF"/>
</linearGradient>
<linearGradient id="paint2_linear_1162_2956" x1="146" y1="1146.35" x2="243" y2="1146.35" gradientUnits="userSpaceOnUse">
<stop stop-color="#8A15D5"/>
<stop offset="0.994792" stop-color="#FB3FFF"/>
</linearGradient>
<radialGradient id="paint3_diamond_1162_2956" cx="0" cy="0" r="1" gradientUnits="userSpaceOnUse" gradientTransform="translate(616.467 1160.56) rotate(-162.164) scale(227.201 435.452)">
<stop stop-color="#3F1960"/>
<stop offset="1" stop-color="#10122A"/>
</radialGradient>
<radialGradient id="paint4_radial_1162_2956" cx="0" cy="0" r="1" gradientUnits="userSpaceOnUse" gradientTransform="translate(479.871 1054.94) rotate(140.405) scale(149.786 287.079)">
<stop stop-color="#3F1960"/>
<stop offset="1" stop-color="#10122A"/>
</radialGradient>
<radialGradient id="paint5_radial_1162_2956" cx="0" cy="0" r="1" gradientUnits="userSpaceOnUse" gradientTransform="translate(412.074 1003.05) rotate(140.25) scale(114.318 219.323)">
<stop stop-color="#3F1960"/>
<stop offset="1" stop-color="#10122A"/>
</radialGradient>
<linearGradient id="paint6_linear_1162_2956" x1="88.2882" y1="161" x2="88.4578" y2="167.541" gradientUnits="userSpaceOnUse">
<stop stop-color="#FA3EFE" stop-opacity="0"/>
<stop offset="0.494792" stop-color="#FA3EFE"/>
<stop offset="1" stop-color="#FA3EFE" stop-opacity="0"/>
</linearGradient>
</defs>
</svg>
