<?xml version="1.0" encoding="UTF-8"?><svg id="Layer_2" xmlns="http://www.w3.org/2000/svg" xmlns:xlink="http://www.w3.org/1999/xlink" viewBox="0 0 83 83"><defs><style>.cls-1{clip-path:url(#clippath-1);}.cls-2{clip-path:url(#clippath);}.cls-3{fill:none;}.cls-4{fill:#f11cd6;}</style><clipPath id="clippath"><rect class="cls-3" width="39.79" height="44.35"/></clipPath><clipPath id="clippath-1"><rect class="cls-3" x="43.79" y="37.69" width="39.21" height="45.31"/></clipPath></defs><g id="Layer_1-2"><g><path class="cls-4" d="M24.9,71.93h11.06c.77,0,1.39-.62,1.39-1.39s-.62-1.38-1.39-1.38h-11.06c-5.34,0-9.69-4.34-9.69-9.68v-2.2l3.17,3.17c.27,.27,.63,.41,.98,.41s.71-.14,.98-.41c.54-.54,.54-1.41,0-1.95l-5.53-5.54c-.54-.54-1.42-.54-1.96,0l-5.53,5.54c-.54,.54-.54,1.42,0,1.95,.54,.54,1.41,.54,1.95,0l3.17-3.17v2.2c0,6.86,5.59,12.45,12.45,12.45"/><path class="cls-4" d="M58.1,11.07h-11.07c-.77,0-1.38,.62-1.38,1.38s.61,1.39,1.38,1.39h11.07c5.34,0,9.68,4.34,9.68,9.68v2.19l-3.17-3.17c-.54-.54-1.42-.54-1.95,0-.54,.54-.54,1.42,0,1.96l5.53,5.53c.27,.27,.63,.41,.98,.41s.71-.14,.98-.41l5.53-5.53c.54-.54,.54-1.42,0-1.96s-1.42-.54-1.96,0l-3.17,3.17v-2.19c0-6.86-5.58-12.45-12.45-12.45"/><g class="cls-2"><path class="cls-4" d="M19.36,19.36c8.92,0,16.22,7.66,16.59,17.22-2.06,1.22-8.91,4.91-16.59,4.91s-14.52-3.69-16.58-4.91c.37-9.57,7.67-17.22,16.58-17.22Zm-6.92-9.68c0-3.81,3.1-6.92,6.92-6.92s6.92,3.1,6.92,6.92-3.1,6.92-6.92,6.92-6.92-3.1-6.92-6.92Zm25.67,28.82c.39-.26,.62-.69,.62-1.15,0-9.32-5.77-17.23-13.68-19.84,2.42-1.76,3.99-4.61,3.99-7.83C29.05,4.34,24.7,0,19.36,0S9.68,4.34,9.68,9.68c0,3.21,1.58,6.07,3.99,7.83C5.77,20.12,0,28.03,0,37.35c0,.46,.23,.9,.61,1.15,.35,.23,8.77,5.77,18.75,5.77s18.4-5.53,18.75-5.77"/></g><g class="cls-1"><path class="cls-4" d="M63.63,80.23c-7.65,0-14.52-3.69-16.58-4.92,.37-9.56,7.67-17.22,16.58-17.22s16.22,7.66,16.59,17.22c-2.06,1.22-8.91,4.91-16.59,4.91Zm-6.92-31.82c0-3.81,3.1-6.92,6.92-6.92s6.92,3.1,6.92,6.92-3.1,6.92-6.92,6.92-6.92-3.1-6.92-6.92Zm12.6,7.83c2.42-1.76,4-4.61,4-7.83,0-5.34-4.34-9.68-9.69-9.68s-9.68,4.34-9.68,9.68c0,3.21,1.58,6.07,3.99,7.83-7.91,2.61-13.68,10.52-13.68,19.84,0,.46,.23,.9,.61,1.15,.35,.23,8.77,5.77,18.75,5.77s18.4-5.53,18.75-5.77c.39-.26,.62-.69,.62-1.15,0-9.32-5.77-17.23-13.68-19.84"/></g></g></g></svg>