<svg width="47" height="531" viewBox="0 0 47 531" fill="none" xmlns="http://www.w3.org/2000/svg">
<path d="M41.8382 1.02118C42.2339 0.787231 42.7443 0.918396 42.9782 1.31409L46.7901 7.76202C47.024 8.15765 46.8929 8.66809 46.4972 8.90198C46.1015 9.13593 45.5912 9.00476 45.3572 8.60907L41.9689 2.87756L36.2374 6.26593C35.8417 6.49988 35.3313 6.36871 35.0974 5.97302C34.8635 5.57739 34.9946 5.06695 35.3903 4.83307L41.8382 1.02118ZM42.2617 529.951C41.4556 530.158 41.4555 530.158 41.4551 530.156C41.4548 530.155 41.4543 530.153 41.4537 530.151C41.4525 530.146 41.4506 530.139 41.4481 530.129C41.4432 530.11 41.4358 530.081 41.426 530.043C41.4065 529.966 41.3773 529.852 41.3389 529.701C41.2621 529.398 41.1482 528.949 40.9997 528.358C40.7026 527.175 40.2671 525.428 39.713 523.168C38.6047 518.646 37.0216 512.068 35.1221 503.843C31.3231 487.392 26.2578 464.349 21.1925 437.977C11.0645 385.248 0.92566 319.157 0.925667 265.844L2.5902 265.844C2.5902 318.992 12.7033 384.955 22.8272 437.663C27.8878 464.011 32.9485 487.033 36.7439 503.468C38.6416 511.686 40.2229 518.256 41.3297 522.771C41.883 525.029 42.3177 526.773 42.614 527.952C42.7622 528.541 42.8757 528.99 42.9522 529.291C42.9904 529.441 43.0193 529.555 43.0387 529.63C43.0484 529.668 43.0557 529.697 43.0606 529.716C43.063 529.725 43.0648 529.732 43.066 529.737C43.0666 529.739 43.0671 529.741 43.0674 529.742C43.0677 529.744 43.0678 529.744 42.2617 529.951ZM0.925667 265.844C0.925674 212.532 11.0645 146.441 21.1925 93.7114C26.2579 67.3395 31.3231 44.2964 35.1221 27.846C37.0217 19.6207 38.6047 13.0431 39.713 8.5213C40.2672 6.26038 40.7027 4.51337 40.9997 3.33124C41.1483 2.74017 41.2622 2.29034 41.339 1.9881C41.3774 1.83697 41.4065 1.72272 41.4261 1.64618C41.4359 1.60797 41.4432 1.5791 41.4482 1.55981C41.4507 1.55011 41.4525 1.54285 41.4538 1.53796C41.4544 1.53552 41.4549 1.53363 41.4552 1.53241C41.4555 1.53119 41.4557 1.53052 42.2618 1.73761C43.0679 1.9447 43.0677 1.94525 43.0674 1.94641C43.0671 1.94757 43.0667 1.94928 43.0661 1.95166C43.0649 1.95636 43.0631 1.9635 43.0606 1.97296C43.0558 1.99194 43.0485 2.02045 43.0388 2.05835C43.0194 2.13416 42.9904 2.24768 42.9522 2.39813C42.8758 2.69891 42.7622 3.14728 42.6141 3.73688C42.3178 4.91602 41.8831 6.65991 41.3297 8.91754C40.223 13.4329 38.6417 20.0031 36.744 28.2206C32.9485 44.6557 27.8878 67.6781 22.8272 94.0253C12.7033 146.734 2.59021 212.697 2.5902 265.844L0.925667 265.844Z" fill="white"/>
</svg>
