<svg width="47" height="531" viewBox="0 0 47 531" fill="none" xmlns="http://www.w3.org/2000/svg">
<path d="M5.73016 1.02117C5.33448 0.787256 4.8241 0.918388 4.59018 1.31407L0.778284 7.762C0.544367 8.15768 0.6755 8.66807 1.07118 8.90198C1.46686 9.1359 1.97724 9.00477 2.21116 8.60909L5.59951 2.87759L11.331 6.26594C11.7267 6.49986 12.2371 6.36873 12.471 5.97305C12.7049 5.57737 12.5738 5.06699 12.1781 4.83307L5.73016 1.02117ZM5.30664 529.951C6.11273 530.158 6.1129 530.158 6.11323 530.156C6.11354 530.155 6.11402 530.153 6.11464 530.151C6.1159 530.146 6.11776 530.139 6.12024 530.129C6.12519 530.11 6.13257 530.081 6.14235 530.043C6.16191 529.966 6.19105 529.852 6.22946 529.701C6.30627 529.398 6.42018 528.949 6.5687 528.358C6.86573 527.175 7.30122 525.428 7.85538 523.168C8.9637 518.646 10.5468 512.068 12.4463 503.843C16.2453 487.392 21.3105 464.349 26.3759 437.977C36.5039 385.248 46.6427 319.157 46.6427 265.844L44.9782 265.844C44.9782 318.992 34.8651 384.955 24.7412 437.663C19.6806 464.011 14.6199 487.033 10.8244 503.468C8.92674 511.686 7.34543 518.256 6.2387 522.771C5.68533 525.029 5.25062 526.773 4.95434 527.952C4.8062 528.541 4.69266 528.99 4.61621 529.291C4.57798 529.441 4.54902 529.555 4.52964 529.63C4.51995 529.668 4.51266 529.697 4.5078 529.716C4.50537 529.725 4.50354 529.732 4.50234 529.737C4.50173 529.739 4.50128 529.741 4.50098 529.742C4.50069 529.744 4.50055 529.744 5.30664 529.951ZM46.6427 265.844C46.6427 212.532 36.5039 146.441 26.3759 93.7114C21.3105 67.3395 16.2453 44.2965 12.4463 27.846C10.5467 19.6207 8.96368 13.0431 7.85536 8.52128C7.30119 6.26036 6.86571 4.51334 6.56867 3.33122C6.42016 2.74016 6.30625 2.29032 6.22943 1.98808C6.19102 1.83696 6.16189 1.72273 6.14233 1.64621C6.13255 1.60794 6.12517 1.5791 6.12022 1.55978C6.11774 1.55013 6.11587 1.54285 6.11462 1.53796C6.11399 1.53552 6.11352 1.53366 6.1132 1.53243C6.11288 1.53117 6.11271 1.5305 5.30662 1.73761C4.50053 1.94472 4.50067 1.94525 4.50096 1.94639C4.50126 1.94757 4.50171 1.94931 4.50231 1.95166C4.50352 1.95638 4.50534 1.96348 4.50777 1.97297C4.51264 1.99194 4.51993 2.02043 4.52962 2.05835C4.549 2.13418 4.57796 2.24769 4.61618 2.3981C4.69264 2.69892 4.80617 3.1473 4.95432 3.73687C5.2506 4.916 5.68531 6.65989 6.23867 8.91754C7.3454 13.4329 8.92671 20.0032 10.8244 28.2206C14.6199 44.6557 19.6806 67.6781 24.7412 94.0254C34.8651 146.734 44.9782 212.697 44.9782 265.844L46.6427 265.844Z" fill="white"/>
</svg>
