<svg width="390" height="1236" viewBox="0 0 390 1236" fill="none" xmlns="http://www.w3.org/2000/svg">
<g clip-path="url(#clip0_1162_2608)">
<rect width="393" height="1236" transform="translate(-3)" fill="url(#paint0_radial_1162_2608)"/>
<g opacity="0.17">
<path d="M358.335 742.375L317.08 813.929L358.424 885.538L441.021 885.591L482.274 814.033L440.93 742.424L358.335 742.375Z" stroke="url(#paint1_linear_1162_2608)"/>
<path d="M358.517 886.184L317.262 957.738L358.605 1029.35L441.203 1029.4L482.455 957.843L441.112 886.234L358.517 886.184Z" stroke="url(#paint2_linear_1162_2608)"/>
<path d="M234.064 814.121L192.809 885.675L234.152 957.284L316.75 957.337L358.002 885.779L316.659 814.17L234.064 814.121Z" stroke="url(#paint3_linear_1162_2608)"/>
<path d="M109.622 742.055L68.3675 813.61L109.711 885.218L192.308 885.272L233.561 813.714L192.217 742.105L109.622 742.055Z" stroke="url(#paint4_linear_1162_2608)"/>
<path d="M109.802 885.862L68.5472 957.416L109.891 1029.03L192.488 1029.08L233.74 957.52L192.397 885.911L109.802 885.862Z" stroke="url(#paint5_linear_1162_2608)"/>
<path d="M-14.8309 669.993L-56.0856 741.547L-14.7422 813.156L67.8552 813.209L109.108 741.651L67.7643 670.042L-14.8309 669.993Z" stroke="url(#paint6_linear_1162_2608)"/>
<path d="M-14.6434 813.799L-55.8981 885.354L-14.5547 956.963L68.0427 957.016L109.295 885.458L67.9518 813.849L-14.6434 813.799Z" stroke="url(#paint7_linear_1162_2608)"/>
<path d="M-14.4598 957.606L-55.7145 1029.16L-14.3711 1100.77L68.2263 1100.82L109.479 1029.26L68.1354 957.656L-14.4598 957.606Z" stroke="url(#paint8_linear_1162_2608)"/>
<path d="M-138.722 1029.35L-179.976 1100.9L-138.633 1172.51L-56.0354 1172.56L-14.783 1101.01L-56.1263 1029.4L-138.722 1029.35Z" stroke="url(#paint9_linear_1162_2608)"/>
</g>
<path d="M123.052 106.094C122.91 104.662 122.3 103.549 121.223 102.756C120.146 101.963 118.684 101.567 116.838 101.567C115.583 101.567 114.523 101.744 113.659 102.099C112.795 102.443 112.132 102.922 111.671 103.538C111.221 104.153 110.996 104.852 110.996 105.633C110.972 106.284 111.108 106.852 111.404 107.337C111.712 107.823 112.132 108.243 112.665 108.598C113.198 108.941 113.813 109.243 114.512 109.504C115.21 109.752 115.956 109.965 116.749 110.143L120.016 110.924C121.602 111.279 123.058 111.753 124.384 112.344C125.71 112.936 126.858 113.664 127.828 114.528C128.799 115.393 129.551 116.411 130.083 117.582C130.628 118.754 130.906 120.098 130.918 121.613C130.906 123.838 130.338 125.768 129.213 127.401C128.101 129.023 126.491 130.284 124.384 131.183C122.289 132.071 119.761 132.515 116.802 132.515C113.867 132.515 111.31 132.065 109.132 131.165C106.965 130.266 105.273 128.934 104.054 127.17C102.846 125.395 102.213 123.199 102.154 120.583H109.593C109.676 121.802 110.025 122.82 110.641 123.637C111.268 124.442 112.103 125.052 113.144 125.466C114.198 125.868 115.388 126.07 116.713 126.07C118.015 126.07 119.146 125.88 120.105 125.501C121.075 125.123 121.827 124.596 122.36 123.921C122.892 123.246 123.159 122.471 123.159 121.595C123.159 120.778 122.916 120.092 122.431 119.536C121.957 118.979 121.259 118.506 120.335 118.115C119.424 117.724 118.305 117.369 116.98 117.05L113.02 116.055C109.954 115.31 107.534 114.144 105.758 112.558C103.983 110.971 103.101 108.835 103.112 106.148C103.101 103.946 103.687 102.022 104.87 100.377C106.066 98.7318 107.705 97.4474 109.789 96.5241C111.872 95.6009 114.239 95.1392 116.891 95.1392C119.59 95.1392 121.945 95.6009 123.958 96.5241C125.982 97.4474 127.556 98.7318 128.681 100.377C129.805 102.022 130.385 103.928 130.421 106.094H123.052ZM150.454 104.727V110.409H134.03V104.727H150.454ZM137.758 98.1932H145.322V123.619C145.322 124.318 145.429 124.862 145.642 125.253C145.855 125.632 146.151 125.898 146.53 126.052C146.92 126.206 147.37 126.283 147.879 126.283C148.234 126.283 148.589 126.253 148.944 126.194C149.299 126.123 149.572 126.07 149.761 126.034L150.951 131.663C150.572 131.781 150.039 131.917 149.353 132.071C148.666 132.237 147.832 132.337 146.849 132.373C145.026 132.444 143.428 132.201 142.055 131.645C140.694 131.089 139.634 130.224 138.877 129.053C138.119 127.881 137.746 126.401 137.758 124.614V98.1932ZM163.158 132.515C161.418 132.515 159.867 132.213 158.506 131.609C157.145 130.994 156.067 130.088 155.274 128.893C154.493 127.685 154.102 126.182 154.102 124.383C154.102 122.868 154.381 121.595 154.937 120.565C155.493 119.536 156.251 118.707 157.21 118.08C158.168 117.452 159.257 116.979 160.477 116.659C161.708 116.339 162.998 116.115 164.347 115.984C165.934 115.819 167.212 115.665 168.183 115.523C169.153 115.369 169.858 115.144 170.296 114.848C170.734 114.552 170.953 114.114 170.953 113.534V113.428C170.953 112.303 170.597 111.433 169.887 110.817C169.189 110.202 168.194 109.894 166.904 109.894C165.543 109.894 164.46 110.196 163.655 110.8C162.85 111.392 162.317 112.137 162.057 113.037L155.061 112.469C155.416 110.812 156.115 109.379 157.156 108.172C158.198 106.953 159.542 106.018 161.187 105.366C162.844 104.704 164.762 104.372 166.94 104.372C168.455 104.372 169.905 104.55 171.29 104.905C172.687 105.26 173.924 105.81 175.001 106.556C176.09 107.302 176.948 108.261 177.575 109.433C178.203 110.593 178.516 111.983 178.516 113.605V132H171.343V128.218H171.13C170.692 129.07 170.106 129.822 169.372 130.473C168.638 131.112 167.756 131.615 166.727 131.982C165.697 132.337 164.507 132.515 163.158 132.515ZM165.324 127.295C166.437 127.295 167.419 127.076 168.271 126.638C169.124 126.188 169.792 125.584 170.278 124.827C170.763 124.069 171.006 123.211 171.006 122.252V119.358C170.769 119.512 170.444 119.654 170.029 119.784C169.627 119.902 169.171 120.015 168.662 120.121C168.153 120.216 167.644 120.305 167.135 120.388C166.626 120.459 166.164 120.524 165.75 120.583C164.862 120.713 164.087 120.92 163.424 121.205C162.761 121.489 162.246 121.873 161.879 122.359C161.512 122.832 161.329 123.424 161.329 124.134C161.329 125.164 161.702 125.951 162.448 126.496C163.205 127.028 164.164 127.295 165.324 127.295ZM191.238 124.152L191.256 115.079H192.357L201.093 104.727H209.775L198.039 118.435H196.245L191.238 124.152ZM184.385 132V95.6364H191.949V132H184.385ZM201.43 132L193.405 120.121L198.447 114.777L210.29 132H201.43ZM213.486 132V104.727H221.05V132H213.486ZM217.286 101.212C216.161 101.212 215.197 100.839 214.392 100.093C213.599 99.3355 213.202 98.4299 213.202 97.3764C213.202 96.3348 213.599 95.4411 214.392 94.6953C215.197 93.9377 216.161 93.5589 217.286 93.5589C218.41 93.5589 219.369 93.9377 220.162 94.6953C220.967 95.4411 221.37 96.3348 221.37 97.3764C221.37 98.4299 220.967 99.3355 220.162 100.093C219.369 100.839 218.41 101.212 217.286 101.212ZM234.673 116.233V132H227.109V104.727H234.318V109.539H234.638C235.241 107.953 236.253 106.698 237.674 105.775C239.094 104.84 240.817 104.372 242.841 104.372C244.735 104.372 246.386 104.786 247.795 105.615C249.203 106.444 250.298 107.627 251.079 109.166C251.861 110.693 252.251 112.516 252.251 114.635V132H244.687V115.984C244.699 114.315 244.273 113.013 243.409 112.078C242.545 111.131 241.355 110.658 239.84 110.658C238.822 110.658 237.922 110.877 237.141 111.315C236.372 111.753 235.768 112.392 235.33 113.232C234.904 114.061 234.685 115.061 234.673 116.233ZM270.5 142.795C268.049 142.795 265.948 142.458 264.196 141.783C262.456 141.121 261.071 140.215 260.042 139.067C259.012 137.919 258.343 136.628 258.035 135.196L265.031 134.255C265.244 134.799 265.581 135.308 266.043 135.782C266.505 136.255 267.114 136.634 267.872 136.918C268.641 137.214 269.576 137.362 270.677 137.362C272.323 137.362 273.678 136.96 274.743 136.155C275.821 135.362 276.359 134.03 276.359 132.16V127.17H276.04C275.708 127.928 275.211 128.644 274.548 129.319C273.885 129.994 273.033 130.544 271.991 130.97C270.95 131.396 269.707 131.609 268.263 131.609C266.215 131.609 264.35 131.136 262.669 130.189C261 129.23 259.669 127.768 258.674 125.803C257.692 123.826 257.201 121.329 257.201 118.31C257.201 115.221 257.704 112.64 258.71 110.569C259.716 108.497 261.054 106.947 262.723 105.917C264.404 104.887 266.244 104.372 268.245 104.372C269.772 104.372 271.05 104.633 272.08 105.153C273.11 105.662 273.938 106.302 274.566 107.071C275.205 107.829 275.696 108.574 276.04 109.308H276.324V104.727H283.834V132.266C283.834 134.586 283.266 136.528 282.13 138.09C280.993 139.653 279.419 140.825 277.407 141.606C275.406 142.399 273.104 142.795 270.5 142.795ZM270.66 125.928C271.879 125.928 272.909 125.626 273.749 125.022C274.601 124.406 275.252 123.531 275.702 122.394C276.164 121.246 276.395 119.873 276.395 118.275C276.395 116.677 276.17 115.292 275.72 114.12C275.27 112.936 274.619 112.019 273.767 111.368C272.915 110.717 271.879 110.391 270.66 110.391C269.417 110.391 268.369 110.729 267.517 111.403C266.665 112.066 266.019 112.99 265.581 114.173C265.143 115.357 264.924 116.724 264.924 118.275C264.924 119.849 265.143 121.21 265.581 122.359C266.031 123.495 266.676 124.377 267.517 125.004C268.369 125.62 269.417 125.928 270.66 125.928Z" fill="white"/>
<path opacity="0.5" d="M85.8203 161H301.174" stroke="url(#paint10_linear_1162_2608)" stroke-width="5.0292" stroke-linecap="round"/>
<path d="M139.447 706.473L133.627 706.473L132.627 709.313L130.247 709.313L135.227 695.393L137.867 695.393L142.847 709.313L140.447 709.313L139.447 706.473ZM138.807 704.613L136.547 698.153L134.267 704.613L138.807 704.613ZM146.892 707.473L151.592 707.473L151.592 709.313L144.612 709.313L144.612 695.413L146.892 695.413L146.892 707.473ZM165.079 695.413L159.859 709.313L157.219 709.313L151.979 695.413L154.419 695.413L158.539 706.973L162.679 695.413L165.079 695.413ZM174.966 706.473L169.146 706.473L168.146 709.313L165.766 709.313L170.746 695.393L173.386 695.393L178.366 709.313L175.966 709.313L174.966 706.473ZM174.326 704.613L172.066 698.153L169.786 704.613L174.326 704.613ZM186.086 696.833C185.673 696.833 185.326 696.693 185.046 696.413C184.766 696.133 184.626 695.786 184.626 695.373C184.626 694.959 184.766 694.613 185.046 694.333C185.326 694.053 185.673 693.913 186.086 693.913C186.486 693.913 186.826 694.053 187.106 694.333C187.386 694.613 187.526 694.959 187.526 695.373C187.526 695.786 187.386 696.133 187.106 696.413C186.826 696.693 186.486 696.833 186.086 696.833ZM187.206 698.293L187.206 709.313L184.926 709.313L184.926 698.293L187.206 698.293ZM193.8 709.493C192.933 709.493 192.153 709.339 191.46 709.033C190.78 708.713 190.24 708.286 189.84 707.753C189.44 707.206 189.226 706.599 189.2 705.933L191.56 705.933C191.6 706.399 191.82 706.793 192.22 707.113C192.633 707.419 193.146 707.573 193.76 707.573C194.4 707.573 194.893 707.453 195.24 707.213C195.6 706.959 195.78 706.639 195.78 706.253C195.78 705.839 195.58 705.533 195.18 705.333C194.793 705.133 194.173 704.913 193.32 704.673C192.493 704.446 191.82 704.226 191.3 704.013C190.78 703.799 190.326 703.473 189.94 703.033C189.566 702.593 189.38 702.013 189.38 701.293C189.38 700.706 189.553 700.173 189.9 699.693C190.246 699.199 190.74 698.813 191.38 698.533C192.033 698.253 192.78 698.113 193.62 698.113C194.873 698.113 195.88 698.433 196.64 699.073C197.413 699.699 197.826 700.559 197.88 701.653L195.6 701.653C195.56 701.159 195.36 700.766 195 700.473C194.64 700.179 194.153 700.033 193.54 700.033C192.94 700.033 192.48 700.146 192.16 700.373C191.84 700.599 191.68 700.899 191.68 701.273C191.68 701.566 191.786 701.813 192 702.013C192.213 702.213 192.473 702.373 192.78 702.493C193.086 702.599 193.54 702.739 194.14 702.913C194.94 703.126 195.593 703.346 196.1 703.573C196.62 703.786 197.066 704.106 197.44 704.533C197.813 704.959 198.006 705.526 198.02 706.233C198.02 706.859 197.846 707.419 197.5 707.913C197.153 708.406 196.66 708.793 196.02 709.073C195.393 709.353 194.653 709.493 193.8 709.493ZM207.159 694.513L207.159 709.313L204.879 709.313L204.879 694.513L207.159 694.513ZM214.532 709.493C213.492 709.493 212.552 709.259 211.712 708.793C210.872 708.313 210.212 707.646 209.732 706.793C209.252 705.926 209.012 704.926 209.012 703.793C209.012 702.673 209.259 701.679 209.752 700.813C210.245 699.946 210.919 699.279 211.772 698.813C212.625 698.346 213.579 698.113 214.632 698.113C215.685 698.113 216.639 698.346 217.492 698.813C218.345 699.279 219.019 699.946 219.512 700.813C220.005 701.679 220.252 702.673 220.252 703.793C220.252 704.913 219.999 705.906 219.492 706.773C218.985 707.639 218.292 708.313 217.412 708.793C216.545 709.259 215.585 709.493 214.532 709.493ZM214.532 707.513C215.119 707.513 215.665 707.373 216.172 707.093C216.692 706.813 217.112 706.393 217.432 705.833C217.752 705.273 217.912 704.593 217.912 703.793C217.912 702.993 217.759 702.319 217.452 701.773C217.145 701.213 216.739 700.793 216.232 700.513C215.725 700.233 215.179 700.093 214.592 700.093C214.005 700.093 213.459 700.233 212.952 700.513C212.459 700.793 212.065 701.213 211.772 701.773C211.479 702.319 211.332 702.993 211.332 703.793C211.332 704.979 211.632 705.899 212.232 706.553C212.845 707.193 213.612 707.513 214.532 707.513ZM221.346 703.793C221.346 702.659 221.573 701.666 222.026 700.813C222.493 699.946 223.133 699.279 223.946 698.813C224.759 698.346 225.693 698.113 226.746 698.113C228.079 698.113 229.179 698.433 230.046 699.073C230.926 699.699 231.519 700.599 231.826 701.773L229.366 701.773C229.166 701.226 228.846 700.799 228.406 700.493C227.966 700.186 227.413 700.033 226.746 700.033C225.813 700.033 225.066 700.366 224.506 701.033C223.959 701.686 223.686 702.606 223.686 703.793C223.686 704.979 223.959 705.906 224.506 706.573C225.066 707.239 225.813 707.573 226.746 707.573C228.066 707.573 228.939 706.993 229.366 705.833L231.826 705.833C231.506 706.953 230.906 707.846 230.026 708.513C229.146 709.166 228.053 709.493 226.746 709.493C225.693 709.493 224.759 709.259 223.946 708.793C223.133 708.313 222.493 707.646 222.026 706.793C221.573 705.926 221.346 704.926 221.346 703.793ZM238.058 703.813L243.138 709.313L240.058 709.313L235.978 704.573L235.978 709.313L233.698 709.313L233.698 694.513L235.978 694.513L235.978 703.113L239.978 698.293L243.138 698.293L238.058 703.813ZM254.472 703.533C254.472 703.946 254.446 704.319 254.392 704.653L245.972 704.653C246.039 705.533 246.366 706.239 246.952 706.773C247.539 707.306 248.259 707.573 249.112 707.573C250.339 707.573 251.206 707.059 251.712 706.033L254.172 706.033C253.839 707.046 253.232 707.879 252.352 708.533C251.486 709.173 250.406 709.493 249.112 709.493C248.059 709.493 247.112 709.259 246.272 708.793C245.446 708.313 244.792 707.646 244.312 706.793C243.846 705.926 243.612 704.926 243.612 703.793C243.612 702.659 243.839 701.666 244.292 700.813C244.759 699.946 245.406 699.279 246.232 698.813C247.072 698.346 248.032 698.113 249.112 698.113C250.152 698.113 251.079 698.339 251.892 698.793C252.706 699.246 253.339 699.886 253.792 700.713C254.246 701.526 254.472 702.466 254.472 703.533ZM252.092 702.813C252.079 701.973 251.779 701.299 251.192 700.793C250.606 700.286 249.879 700.033 249.012 700.033C248.226 700.033 247.552 700.286 246.992 700.793C246.432 701.286 246.099 701.959 245.992 702.813L252.092 702.813ZM255.556 703.753C255.556 702.646 255.783 701.666 256.236 700.813C256.703 699.959 257.329 699.299 258.116 698.833C258.916 698.353 259.803 698.113 260.776 698.113C261.496 698.113 262.203 698.273 262.896 698.593C263.603 698.899 264.163 699.313 264.576 699.833L264.576 694.513L266.876 694.513L266.876 709.313L264.576 709.313L264.576 707.653C264.203 708.186 263.683 708.626 263.016 708.973C262.363 709.319 261.609 709.493 260.756 709.493C259.796 709.493 258.916 709.253 258.116 708.773C257.329 708.279 256.703 707.599 256.236 706.733C255.783 705.853 255.556 704.859 255.556 703.753ZM264.576 703.793C264.576 703.033 264.416 702.373 264.096 701.813C263.789 701.253 263.383 700.826 262.876 700.533C262.369 700.239 261.823 700.093 261.236 700.093C260.649 700.093 260.103 700.239 259.596 700.533C259.089 700.813 258.676 701.233 258.356 701.793C258.049 702.339 257.896 702.993 257.896 703.753C257.896 704.513 258.049 705.179 258.356 705.753C258.676 706.326 259.089 706.766 259.596 707.073C260.116 707.366 260.663 707.513 261.236 707.513C261.823 707.513 262.369 707.366 262.876 707.073C263.383 706.779 263.789 706.353 264.096 705.793C264.416 705.219 264.576 704.553 264.576 703.793ZM150.99 724.153L148.95 724.153L148.95 733.313L146.65 733.313L146.65 724.153L145.35 724.153L145.35 722.293L146.65 722.293L146.65 721.513C146.65 720.246 146.983 719.326 147.65 718.753C148.33 718.166 149.39 717.873 150.83 717.873L150.83 719.773C150.137 719.773 149.65 719.906 149.37 720.173C149.09 720.426 148.95 720.873 148.95 721.513L148.95 722.293L150.99 722.293L150.99 724.153ZM157.391 733.493C156.351 733.493 155.411 733.259 154.571 732.793C153.731 732.313 153.071 731.646 152.591 730.793C152.111 729.926 151.871 728.926 151.871 727.793C151.871 726.673 152.117 725.679 152.611 724.813C153.104 723.946 153.777 723.279 154.631 722.813C155.484 722.346 156.437 722.113 157.491 722.113C158.544 722.113 159.497 722.346 160.351 722.813C161.204 723.279 161.877 723.946 162.371 724.813C162.864 725.679 163.111 726.673 163.111 727.793C163.111 728.913 162.857 729.906 162.351 730.773C161.844 731.639 161.151 732.313 160.271 732.793C159.404 733.259 158.444 733.493 157.391 733.493ZM157.391 731.513C157.977 731.513 158.524 731.373 159.031 731.093C159.551 730.813 159.971 730.393 160.291 729.833C160.611 729.273 160.771 728.593 160.771 727.793C160.771 726.993 160.617 726.319 160.311 725.773C160.004 725.213 159.597 724.793 159.091 724.513C158.584 724.233 158.037 724.093 157.451 724.093C156.864 724.093 156.317 724.233 155.811 724.513C155.317 724.793 154.924 725.213 154.631 725.773C154.337 726.319 154.191 726.993 154.191 727.793C154.191 728.979 154.491 729.899 155.091 730.553C155.704 731.193 156.471 731.513 157.391 731.513ZM167.244 723.893C167.578 723.333 168.018 722.899 168.564 722.593C169.124 722.273 169.784 722.113 170.544 722.113L170.544 724.473L169.964 724.473C169.071 724.473 168.391 724.699 167.924 725.153C167.471 725.606 167.244 726.393 167.244 727.513L167.244 733.313L164.964 733.313L164.964 722.293L167.244 722.293L167.244 723.893ZM181.756 727.733L185.316 733.313L182.736 733.313L180.356 729.573L178.116 733.313L175.736 733.313L179.296 727.893L175.736 722.293L178.316 722.293L180.696 726.033L182.936 722.293L185.316 722.293L181.756 727.733ZM193.691 723.913C194.078 723.406 194.605 722.979 195.271 722.633C195.938 722.286 196.691 722.113 197.531 722.113C198.491 722.113 199.365 722.353 200.151 722.833C200.951 723.299 201.578 723.959 202.031 724.813C202.485 725.666 202.711 726.646 202.711 727.753C202.711 728.859 202.485 729.853 202.031 730.733C201.578 731.599 200.951 732.279 200.151 732.773C199.365 733.253 198.491 733.493 197.531 733.493C196.691 733.493 195.945 733.326 195.291 732.993C194.638 732.646 194.105 732.219 193.691 731.713L193.691 738.553L191.411 738.553L191.411 722.293L193.691 722.293L193.691 723.913ZM200.391 727.753C200.391 726.993 200.231 726.339 199.911 725.793C199.605 725.233 199.191 724.813 198.671 724.533C198.165 724.239 197.618 724.093 197.031 724.093C196.458 724.093 195.911 724.239 195.391 724.533C194.885 724.826 194.471 725.253 194.151 725.813C193.845 726.373 193.691 727.033 193.691 727.793C193.691 728.553 193.845 729.219 194.151 729.793C194.471 730.353 194.885 730.779 195.391 731.073C195.911 731.366 196.458 731.513 197.031 731.513C197.618 731.513 198.165 731.366 198.671 731.073C199.191 730.766 199.605 730.326 199.911 729.753C200.231 729.179 200.391 728.513 200.391 727.753ZM214.666 727.533C214.666 727.946 214.639 728.319 214.586 728.653L206.166 728.653C206.233 729.533 206.559 730.239 207.146 730.773C207.733 731.306 208.453 731.573 209.306 731.573C210.533 731.573 211.399 731.059 211.906 730.033L214.366 730.033C214.033 731.046 213.426 731.879 212.546 732.533C211.679 733.173 210.599 733.493 209.306 733.493C208.253 733.493 207.306 733.259 206.466 732.793C205.639 732.313 204.986 731.646 204.506 730.793C204.039 729.926 203.806 728.926 203.806 727.793C203.806 726.659 204.033 725.666 204.486 724.813C204.953 723.946 205.599 723.279 206.426 722.813C207.266 722.346 208.226 722.113 209.306 722.113C210.346 722.113 211.273 722.339 212.086 722.793C212.899 723.246 213.533 723.886 213.986 724.713C214.439 725.526 214.666 726.466 214.666 727.533ZM212.286 726.813C212.273 725.973 211.973 725.299 211.386 724.793C210.799 724.286 210.073 724.033 209.206 724.033C208.419 724.033 207.746 724.286 207.186 724.793C206.626 725.286 206.293 725.959 206.186 726.813L212.286 726.813ZM218.79 723.893C219.123 723.333 219.563 722.899 220.11 722.593C220.67 722.273 221.33 722.113 222.09 722.113L222.09 724.473L221.51 724.473C220.616 724.473 219.936 724.699 219.47 725.153C219.016 725.606 218.79 726.393 218.79 727.513L218.79 733.313L216.51 733.313L216.51 722.293L218.79 722.293L218.79 723.893ZM224.946 720.833C224.532 720.833 224.186 720.693 223.906 720.413C223.626 720.133 223.486 719.786 223.486 719.373C223.486 718.959 223.626 718.613 223.906 718.333C224.186 718.053 224.532 717.913 224.946 717.913C225.346 717.913 225.686 718.053 225.966 718.333C226.246 718.613 226.386 718.959 226.386 719.373C226.386 719.786 226.246 720.133 225.966 720.413C225.686 720.693 225.346 720.833 224.946 720.833ZM226.066 722.293L226.066 733.313L223.786 733.313L223.786 722.293L226.066 722.293ZM233.439 733.493C232.399 733.493 231.459 733.259 230.619 732.793C229.779 732.313 229.119 731.646 228.639 730.793C228.159 729.926 227.919 728.926 227.919 727.793C227.919 726.673 228.166 725.679 228.659 724.813C229.152 723.946 229.826 723.279 230.679 722.813C231.532 722.346 232.486 722.113 233.539 722.113C234.592 722.113 235.546 722.346 236.399 722.813C237.252 723.279 237.926 723.946 238.419 724.813C238.912 725.679 239.159 726.673 239.159 727.793C239.159 728.913 238.906 729.906 238.399 730.773C237.892 731.639 237.199 732.313 236.319 732.793C235.452 733.259 234.492 733.493 233.439 733.493ZM233.439 731.513C234.026 731.513 234.572 731.373 235.079 731.093C235.599 730.813 236.019 730.393 236.339 729.833C236.659 729.273 236.819 728.593 236.819 727.793C236.819 726.993 236.666 726.319 236.359 725.773C236.052 725.213 235.646 724.793 235.139 724.513C234.632 724.233 234.086 724.093 233.499 724.093C232.912 724.093 232.366 724.233 231.859 724.513C231.366 724.793 230.972 725.213 230.679 725.773C230.386 726.319 230.239 726.993 230.239 727.793C230.239 728.979 230.539 729.899 231.139 730.553C231.752 731.193 232.519 731.513 233.439 731.513ZM240.253 727.753C240.253 726.646 240.48 725.666 240.933 724.813C241.4 723.959 242.026 723.299 242.813 722.833C243.613 722.353 244.5 722.113 245.473 722.113C246.193 722.113 246.9 722.273 247.593 722.593C248.3 722.899 248.86 723.313 249.273 723.833L249.273 718.513L251.573 718.513L251.573 733.313L249.273 733.313L249.273 731.653C248.9 732.186 248.38 732.626 247.713 732.973C247.06 733.319 246.306 733.493 245.453 733.493C244.493 733.493 243.613 733.253 242.813 732.773C242.026 732.279 241.4 731.599 240.933 730.733C240.48 729.853 240.253 728.859 240.253 727.753ZM249.273 727.793C249.273 727.033 249.113 726.373 248.793 725.813C248.486 725.253 248.08 724.826 247.573 724.533C247.066 724.239 246.52 724.093 245.933 724.093C245.346 724.093 244.8 724.239 244.293 724.533C243.786 724.813 243.373 725.233 243.053 725.793C242.746 726.339 242.593 726.993 242.593 727.753C242.593 728.513 242.746 729.179 243.053 729.753C243.373 730.326 243.786 730.766 244.293 731.073C244.813 731.366 245.36 731.513 245.933 731.513C246.52 731.513 247.066 731.366 247.573 731.073C248.08 730.779 248.486 730.353 248.793 729.793C249.113 729.219 249.273 728.553 249.273 727.793Z" fill="white"/>
<path d="M307.73 441.021C307.334 440.787 306.824 440.918 306.59 441.314L302.778 447.762C302.544 448.158 302.676 448.668 303.071 448.902C303.467 449.136 303.977 449.005 304.211 448.609L307.6 442.878L313.331 446.266C313.727 446.5 314.237 446.369 314.471 445.973C314.705 445.577 314.574 445.067 314.178 444.833L307.73 441.021ZM307.307 969.951C308.113 970.158 308.113 970.158 308.113 970.156C308.114 970.155 308.114 970.153 308.115 970.151C308.116 970.146 308.118 970.139 308.12 970.129C308.125 970.11 308.133 970.081 308.142 970.043C308.162 969.966 308.191 969.852 308.229 969.701C308.306 969.398 308.42 968.949 308.569 968.358C308.866 967.175 309.301 965.428 309.855 963.168C310.964 958.646 312.547 952.068 314.446 943.843C318.245 927.392 323.311 904.349 328.376 877.977C338.504 825.248 348.643 759.157 348.643 705.844L346.978 705.844C346.978 758.992 336.865 824.955 326.741 877.663C321.681 904.011 316.62 927.033 312.824 943.468C310.927 951.686 309.345 958.256 308.239 962.771C307.685 965.029 307.251 966.773 306.954 967.952C306.806 968.541 306.693 968.99 306.616 969.291C306.578 969.441 306.549 969.555 306.53 969.63C306.52 969.668 306.513 969.697 306.508 969.716C306.505 969.725 306.504 969.732 306.502 969.737C306.502 969.739 306.501 969.741 306.501 969.742C306.501 969.744 306.501 969.744 307.307 969.951ZM348.643 705.844C348.643 652.532 338.504 586.441 328.376 533.711C323.311 507.339 318.245 484.296 314.446 467.846C312.547 459.621 310.964 453.043 309.855 448.521C309.301 446.26 308.866 444.513 308.569 443.331C308.42 442.74 308.306 442.29 308.229 441.988C308.191 441.837 308.162 441.723 308.142 441.646C308.133 441.608 308.125 441.579 308.12 441.56C308.118 441.55 308.116 441.543 308.115 441.538C308.114 441.536 308.114 441.534 308.113 441.532C308.113 441.531 308.113 441.531 307.307 441.738C306.501 441.945 306.501 441.945 306.501 441.946C306.501 441.948 306.502 441.949 306.502 441.952C306.504 441.956 306.505 441.964 306.508 441.973C306.513 441.992 306.52 442.02 306.53 442.058C306.549 442.134 306.578 442.248 306.616 442.398C306.693 442.699 306.806 443.147 306.954 443.737C307.251 444.916 307.685 446.66 308.239 448.918C309.345 453.433 310.927 460.003 312.824 468.221C316.62 484.656 321.681 507.678 326.741 534.025C336.865 586.734 346.978 652.697 346.978 705.844L348.643 705.844Z" fill="white"/>
<path d="M78.8382 441.021C79.2339 440.787 79.7443 440.918 79.9782 441.314L83.7901 447.762C84.024 448.158 83.8929 448.668 83.4972 448.902C83.1015 449.136 82.5912 449.005 82.3572 448.609L78.9689 442.878L73.2374 446.266C72.8417 446.5 72.3313 446.369 72.0974 445.973C71.8635 445.577 71.9946 445.067 72.3903 444.833L78.8382 441.021ZM79.2617 969.951C78.4556 970.158 78.4555 970.158 78.4551 970.156C78.4548 970.155 78.4543 970.153 78.4537 970.151C78.4525 970.146 78.4506 970.139 78.4481 970.129C78.4432 970.11 78.4358 970.081 78.426 970.043C78.4065 969.966 78.3773 969.852 78.3389 969.701C78.2621 969.398 78.1482 968.949 77.9997 968.358C77.7026 967.175 77.2671 965.428 76.713 963.168C75.6047 958.646 74.0216 952.068 72.1221 943.843C68.3231 927.392 63.2578 904.349 58.1925 877.977C48.0645 825.248 37.9257 759.157 37.9257 705.844L39.5902 705.844C39.5902 758.992 49.7033 824.955 59.8272 877.663C64.8878 904.011 69.9485 927.033 73.7439 943.468C75.6416 951.686 77.2229 958.256 78.3297 962.771C78.883 965.029 79.3177 966.773 79.614 967.952C79.7622 968.541 79.8757 968.99 79.9522 969.291C79.9904 969.441 80.0193 969.555 80.0387 969.63C80.0484 969.668 80.0557 969.697 80.0606 969.716C80.063 969.725 80.0648 969.732 80.066 969.737C80.0666 969.739 80.0671 969.741 80.0674 969.742C80.0677 969.744 80.0678 969.744 79.2617 969.951ZM37.9257 705.844C37.9257 652.532 48.0645 586.441 58.1925 533.711C63.2579 507.339 68.3231 484.296 72.1221 467.846C74.0217 459.621 75.6047 453.043 76.713 448.521C77.2672 446.26 77.7027 444.513 77.9997 443.331C78.1483 442.74 78.2622 442.29 78.339 441.988C78.3774 441.837 78.4065 441.723 78.4261 441.646C78.4359 441.608 78.4432 441.579 78.4482 441.56C78.4507 441.55 78.4525 441.543 78.4538 441.538C78.4544 441.536 78.4549 441.534 78.4552 441.532C78.4555 441.531 78.4557 441.531 79.2618 441.738C80.0679 441.945 80.0677 441.945 80.0674 441.946C80.0671 441.948 80.0667 441.949 80.0661 441.952C80.0649 441.956 80.0631 441.964 80.0606 441.973C80.0558 441.992 80.0485 442.02 80.0388 442.058C80.0194 442.134 79.9904 442.248 79.9522 442.398C79.8758 442.699 79.7622 443.147 79.6141 443.737C79.3178 444.916 78.8831 446.66 78.3297 448.918C77.223 453.433 75.6417 460.003 73.744 468.221C69.9485 484.656 64.8878 507.678 59.8272 534.025C49.7033 586.734 39.5902 652.697 39.5902 705.844L37.9257 705.844Z" fill="white"/>
<g opacity="0.42">
<rect x="322.84" y="512.759" width="275.759" height="275.759" rx="137.879" transform="rotate(-180 322.84 512.759)" fill="url(#paint11_diamond_1162_2608)"/>
<rect x="322.84" y="512.759" width="275.759" height="275.759" rx="137.879" transform="rotate(-180 322.84 512.759)" stroke="#8A15D5"/>
</g>
<g opacity="0.42">
<rect x="322.84" y="1180.79" width="275.759" height="275.759" rx="137.879" transform="rotate(-180 322.84 1180.79)" fill="url(#paint12_diamond_1162_2608)"/>
<rect x="322.84" y="1180.79" width="275.759" height="275.759" rx="137.879" transform="rotate(-180 322.84 1180.79)" stroke="#8A15D5"/>
</g>
<g opacity="0.21">
<rect x="295.654" y="485.571" width="221.384" height="221.384" rx="110.692" transform="rotate(-180 295.654 485.571)" fill="url(#paint13_radial_1162_2608)"/>
<rect x="295.654" y="485.571" width="221.384" height="221.384" rx="110.692" transform="rotate(-180 295.654 485.571)" stroke="#8A15D5"/>
</g>
<g opacity="0.21">
<rect x="295.654" y="1153.61" width="221.384" height="221.384" rx="110.692" transform="rotate(-180 295.654 1153.61)" fill="url(#paint14_radial_1162_2608)"/>
<rect x="295.654" y="1153.61" width="221.384" height="221.384" rx="110.692" transform="rotate(-180 295.654 1153.61)" stroke="#8A15D5"/>
</g>
<g opacity="0.21" filter="url(#filter0_i_1162_2608)">
<rect x="269.574" y="459.493" width="169.228" height="169.228" rx="84.614" transform="rotate(-180 269.574 459.493)" fill="url(#paint15_radial_1162_2608)" fill-opacity="0.5"/>
</g>
<g opacity="0.21" filter="url(#filter1_i_1162_2608)">
<rect x="269.574" y="1127.53" width="169.228" height="169.228" rx="84.614" transform="rotate(-180 269.574 1127.53)" fill="url(#paint16_radial_1162_2608)" fill-opacity="0.5"/>
</g>
<g opacity="0.34">
<path d="M170.725 1019.88L170.043 1020.26L170.043 1004.43L192.718 991.024C195.942 989.188 199.587 988.236 203.29 988.262C206.993 988.289 210.625 989.294 213.822 991.176C217.019 993.058 219.67 995.753 221.51 998.99C223.35 1002.23 224.315 1005.89 224.309 1009.62L223.979 1042.2L186.72 1019.98C184.297 1018.55 181.543 1017.79 178.735 1017.77C175.928 1017.75 173.165 1018.48 170.725 1019.88Z" fill="#1C043C"/>
<path d="M206.243 1094.88L178.017 1078.18L213.3 1057.75L215.911 1056.26C218.295 1054.84 220.276 1052.82 221.664 1050.41C223.052 1047.99 223.801 1045.26 223.838 1042.47L223.838 1042.11L237.951 1050.43L237.951 1076.61C237.912 1080.33 236.908 1083.98 235.038 1087.18C233.168 1090.39 230.498 1093.05 227.293 1094.9C224.088 1096.74 220.459 1097.71 216.766 1097.71C213.073 1097.71 209.446 1096.73 206.243 1094.88Z" fill="#1C043C"/>
<path d="M164.231 1086.08L142.12 1072.88C138.932 1070.99 136.291 1068.29 134.462 1065.05C132.633 1061.81 131.679 1058.14 131.696 1054.41C131.712 1050.69 132.699 1047.03 134.557 1043.8C136.415 1040.58 139.08 1037.9 142.285 1036.04L170.065 1020.26L170.206 1064.23C170.201 1067.05 170.927 1069.82 172.314 1072.27C173.7 1074.72 175.698 1076.76 178.109 1078.19L164.231 1086.08Z" fill="#1C043C"/>
</g>
<g opacity="0.34">
<path d="M169.057 347.409L168.375 347.788L168.375 331.961L191.05 318.55C194.274 316.714 197.919 315.762 201.622 315.789C205.325 315.815 208.957 316.82 212.154 318.702C215.351 320.585 218.002 323.279 219.842 326.516C221.682 329.753 222.647 333.42 222.641 337.15L222.311 369.729L185.052 347.504C182.629 346.075 179.875 345.315 177.067 345.298C174.26 345.281 171.497 346.009 169.057 347.409Z" fill="#1C043C"/>
<path d="M204.575 422.406L176.349 405.702L211.632 385.278L214.243 383.786C216.627 382.364 218.608 380.35 219.996 377.935C221.384 375.52 222.133 372.786 222.17 369.996L222.17 369.641L236.283 377.957L236.283 404.139C236.244 407.858 235.24 411.502 233.37 414.71C231.5 417.917 228.83 420.576 225.625 422.423C222.42 424.27 218.791 425.24 215.098 425.237C211.405 425.234 207.778 424.258 204.575 422.406Z" fill="#1C043C"/>
<path d="M162.563 413.606L140.453 400.409C137.264 398.517 134.623 395.816 132.794 392.575C130.965 389.334 130.011 385.667 130.028 381.939C130.044 378.211 131.031 374.553 132.889 371.329C134.747 368.105 137.412 365.428 140.617 363.565L168.397 347.785L168.538 391.761C168.533 394.579 169.259 397.35 170.646 399.798C172.032 402.246 174.03 404.286 176.441 405.716L162.563 413.606Z" fill="#1C043C"/>
</g>
<g filter="url(#filter2_d_1162_2608)">
<path d="M166.485 359.264C166.428 358.693 166.185 358.249 165.755 357.932C165.325 357.616 164.742 357.458 164.005 357.458C163.505 357.458 163.082 357.528 162.737 357.67C162.392 357.807 162.128 357.998 161.943 358.244C161.764 358.49 161.674 358.768 161.674 359.08C161.665 359.34 161.719 359.567 161.837 359.76C161.96 359.954 162.128 360.122 162.34 360.263C162.553 360.4 162.798 360.521 163.077 360.625C163.356 360.724 163.653 360.809 163.97 360.88L165.274 361.192C165.906 361.333 166.487 361.522 167.016 361.758C167.545 361.994 168.004 362.285 168.391 362.63C168.778 362.975 169.078 363.381 169.291 363.848C169.508 364.316 169.619 364.852 169.624 365.457C169.619 366.345 169.392 367.115 168.944 367.767C168.5 368.414 167.857 368.917 167.016 369.276C166.18 369.63 165.172 369.807 163.991 369.807C162.82 369.807 161.799 369.628 160.93 369.269C160.066 368.91 159.39 368.378 158.904 367.674C158.422 366.966 158.169 366.09 158.146 365.046L161.115 365.046C161.148 365.532 161.287 365.939 161.533 366.264C161.783 366.586 162.116 366.829 162.532 366.994C162.952 367.155 163.427 367.235 163.956 367.235C164.475 367.235 164.926 367.16 165.309 367.008C165.696 366.857 165.996 366.647 166.209 366.378C166.421 366.109 166.528 365.799 166.528 365.45C166.528 365.124 166.431 364.85 166.237 364.628C166.048 364.406 165.769 364.217 165.401 364.061C165.037 363.905 164.591 363.763 164.062 363.636L162.482 363.239C161.259 362.942 160.293 362.476 159.584 361.843C158.876 361.21 158.524 360.358 158.528 359.286C158.524 358.407 158.758 357.639 159.23 356.983C159.707 356.326 160.361 355.814 161.192 355.445C162.024 355.077 162.968 354.893 164.027 354.893C165.103 354.893 166.043 355.077 166.846 355.445C167.654 355.814 168.282 356.326 168.731 356.983C169.18 357.639 169.411 358.4 169.425 359.264L166.485 359.264ZM177.419 358.719L177.419 360.986L170.865 360.986L170.865 358.719L177.419 358.719ZM172.353 356.111L175.372 356.111L175.372 366.257C175.372 366.536 175.414 366.753 175.499 366.909C175.584 367.06 175.702 367.167 175.853 367.228C176.009 367.289 176.189 367.32 176.392 367.32C176.534 367.32 176.675 367.308 176.817 367.285C176.959 367.256 177.067 367.235 177.143 367.221L177.618 369.467C177.466 369.514 177.254 369.569 176.98 369.63C176.706 369.696 176.373 369.736 175.981 369.75C175.254 369.779 174.616 369.682 174.068 369.46C173.525 369.238 173.102 368.893 172.8 368.425C172.497 367.958 172.349 367.367 172.353 366.654L172.353 356.111ZM182.489 369.807C181.794 369.807 181.176 369.687 180.632 369.446C180.089 369.2 179.659 368.839 179.343 368.362C179.031 367.88 178.875 367.28 178.875 366.562C178.875 365.957 178.986 365.45 179.208 365.039C179.43 364.628 179.733 364.297 180.115 364.047C180.498 363.796 180.932 363.608 181.419 363.48C181.91 363.352 182.425 363.263 182.963 363.211C183.596 363.145 184.106 363.083 184.494 363.027C184.881 362.965 185.162 362.875 185.337 362.757C185.512 362.639 185.599 362.464 185.599 362.233L185.599 362.191C185.599 361.742 185.457 361.395 185.174 361.149C184.895 360.903 184.498 360.781 183.984 360.781C183.44 360.781 183.008 360.901 182.687 361.142C182.366 361.378 182.153 361.676 182.049 362.035L179.258 361.808C179.4 361.147 179.678 360.575 180.094 360.093C180.51 359.607 181.046 359.234 181.702 358.974C182.363 358.709 183.129 358.577 183.998 358.577C184.602 358.577 185.181 358.648 185.734 358.79C186.291 358.931 186.785 359.151 187.214 359.449C187.649 359.746 187.991 360.129 188.242 360.596C188.492 361.059 188.617 361.614 188.617 362.261L188.617 369.602L185.755 369.602L185.755 368.092L185.67 368.092C185.495 368.433 185.261 368.732 184.968 368.992C184.676 369.247 184.324 369.448 183.913 369.594C183.502 369.736 183.027 369.807 182.489 369.807ZM183.353 367.724C183.797 367.724 184.189 367.637 184.529 367.462C184.869 367.282 185.136 367.041 185.33 366.739C185.523 366.437 185.62 366.094 185.62 365.712L185.62 364.557C185.526 364.618 185.396 364.675 185.231 364.727C185.07 364.774 184.888 364.819 184.685 364.862C184.482 364.899 184.279 364.935 184.076 364.968C183.873 364.996 183.688 365.022 183.523 365.046C183.169 365.098 182.859 365.18 182.595 365.294C182.33 365.407 182.125 365.561 181.979 365.754C181.832 365.943 181.759 366.179 181.759 366.463C181.759 366.874 181.908 367.188 182.205 367.405C182.508 367.618 182.89 367.724 183.353 367.724ZM193.694 366.47L193.701 362.849L194.14 362.849L197.626 358.719L201.091 358.719L196.407 364.189L195.692 364.189L193.694 366.47ZM190.959 369.602L190.959 355.091L193.977 355.091L193.977 369.602L190.959 369.602ZM197.761 369.602L194.558 364.862L196.57 362.729L201.296 369.602L197.761 369.602ZM207.083 369.814C205.963 369.814 205 369.587 204.192 369.134C203.389 368.676 202.77 368.029 202.336 367.193C201.901 366.352 201.684 365.358 201.684 364.21C201.684 363.09 201.901 362.108 202.336 361.262C202.77 360.417 203.382 359.758 204.171 359.286C204.964 358.813 205.895 358.577 206.962 358.577C207.68 358.577 208.349 358.693 208.968 358.924C209.591 359.151 210.134 359.493 210.597 359.952C211.065 360.41 211.428 360.986 211.688 361.68C211.948 362.37 212.078 363.178 212.078 364.104L212.078 364.932L202.889 364.932L202.889 363.062L209.237 363.062C209.237 362.627 209.142 362.242 208.953 361.907C208.764 361.572 208.502 361.31 208.167 361.121C207.836 360.927 207.451 360.83 207.012 360.83C206.554 360.83 206.148 360.936 205.793 361.149C205.444 361.357 205.17 361.638 204.972 361.992C204.773 362.342 204.672 362.731 204.667 363.161L204.667 364.94C204.667 365.478 204.766 365.943 204.964 366.335C205.168 366.727 205.453 367.03 205.822 367.242C206.19 367.455 206.627 367.561 207.133 367.561C207.468 367.561 207.775 367.514 208.054 367.419C208.332 367.325 208.571 367.183 208.769 366.994C208.968 366.805 209.119 366.574 209.223 366.3L212.014 366.484C211.872 367.155 211.582 367.741 211.143 368.241C210.708 368.737 210.146 369.125 209.456 369.403C208.772 369.677 207.98 369.814 207.083 369.814Z" fill="white"/>
<path d="M162.556 393.602L159.269 393.602L164.278 379.091L168.232 379.091L173.234 393.602L169.946 393.602L166.311 382.407L166.198 382.407L162.556 393.602ZM162.351 387.898L170.116 387.898L170.116 390.293L162.351 390.293L162.351 387.898ZM174.98 393.602L174.98 379.091L178.048 379.091L178.048 391.072L184.269 391.072L184.269 393.602L174.98 393.602ZM187.363 379.091L190.87 390.116L191.005 390.116L194.519 379.091L197.92 379.091L192.918 393.602L188.964 393.602L183.955 379.091L187.363 379.091ZM200.239 393.602L196.951 393.602L201.96 379.091L205.914 379.091L210.916 393.602L207.628 393.602L203.994 382.407L203.88 382.407L200.239 393.602ZM200.033 387.898L207.799 387.898L207.799 390.293L200.033 390.293L200.033 387.898Z" fill="#FB3FFF"/>
</g>
<rect x="129.059" y="997.553" width="112.079" height="28.852" rx="4.43877" fill="url(#paint17_linear_1162_2608)"/>
<path d="M156.886 1010.03C156.844 1009.66 156.671 1009.37 156.366 1009.16C156.061 1008.95 155.678 1008.85 155.215 1008.85C154.884 1008.85 154.598 1008.9 154.356 1009.01C154.114 1009.11 153.927 1009.25 153.793 1009.43C153.661 1009.61 153.596 1009.82 153.596 1010.04C153.596 1010.24 153.64 1010.4 153.73 1010.54C153.822 1010.68 153.941 1010.8 154.088 1010.89C154.238 1010.98 154.398 1011.06 154.569 1011.12C154.74 1011.18 154.904 1011.23 155.062 1011.27L155.85 1011.48C156.107 1011.54 156.371 1011.63 156.642 1011.73C156.912 1011.84 157.163 1011.98 157.394 1012.16C157.626 1012.34 157.812 1012.55 157.954 1012.81C158.098 1013.07 158.171 1013.39 158.171 1013.75C158.171 1014.21 158.052 1014.61 157.816 1014.97C157.582 1015.32 157.242 1015.6 156.795 1015.81C156.351 1016.01 155.814 1016.11 155.184 1016.11C154.579 1016.11 154.057 1016.02 153.615 1015.82C153.174 1015.63 152.828 1015.36 152.579 1015.01C152.329 1014.65 152.191 1014.23 152.165 1013.75L153.387 1013.75C153.41 1014.04 153.505 1014.28 153.67 1014.48C153.839 1014.67 154.053 1014.81 154.313 1014.91C154.575 1015 154.863 1015.04 155.176 1015.04C155.52 1015.04 155.826 1014.99 156.094 1014.88C156.365 1014.77 156.577 1014.62 156.732 1014.43C156.887 1014.23 156.965 1014 156.965 1013.74C156.965 1013.5 156.897 1013.3 156.76 1013.15C156.626 1013 156.443 1012.87 156.212 1012.77C155.984 1012.67 155.725 1012.58 155.436 1012.51L154.482 1012.25C153.836 1012.07 153.324 1011.81 152.945 1011.47C152.57 1011.13 152.382 1010.68 152.382 1010.11C152.382 1009.65 152.508 1009.24 152.76 1008.9C153.012 1008.55 153.354 1008.28 153.785 1008.09C154.216 1007.89 154.702 1007.8 155.243 1007.8C155.789 1007.8 156.271 1007.89 156.689 1008.09C157.109 1008.28 157.44 1008.54 157.682 1008.88C157.924 1009.21 158.05 1009.59 158.06 1010.03L156.886 1010.03ZM162.357 1009.93L162.357 1010.87L159.05 1010.87L159.05 1009.93L162.357 1009.93ZM159.937 1008.48L161.115 1008.48L161.115 1014.2C161.115 1014.43 161.15 1014.6 161.218 1014.72C161.286 1014.83 161.374 1014.91 161.482 1014.95C161.592 1014.99 161.712 1015.01 161.84 1015.01C161.935 1015.01 162.018 1015 162.089 1014.99C162.16 1014.98 162.215 1014.97 162.254 1014.96L162.467 1015.93C162.399 1015.96 162.301 1015.98 162.175 1016.01C162.049 1016.04 161.892 1016.05 161.703 1016.06C161.393 1016.06 161.104 1016.01 160.836 1015.89C160.568 1015.78 160.351 1015.6 160.185 1015.36C160.02 1015.11 159.937 1014.81 159.937 1014.45L159.937 1008.48ZM165.422 1016.11C165.038 1016.11 164.691 1016.04 164.381 1015.9C164.071 1015.76 163.826 1015.55 163.644 1015.27C163.466 1015 163.376 1014.66 163.376 1014.27C163.376 1013.93 163.442 1013.65 163.573 1013.42C163.705 1013.2 163.882 1013.03 164.105 1012.9C164.329 1012.77 164.578 1012.67 164.854 1012.61C165.13 1012.54 165.411 1012.49 165.697 1012.46C166.06 1012.42 166.354 1012.38 166.58 1012.36C166.806 1012.33 166.97 1012.28 167.073 1012.22C167.175 1012.16 167.226 1012.05 167.226 1011.91L167.226 1011.88C167.226 1011.54 167.129 1011.27 166.935 1011.08C166.743 1010.9 166.457 1010.8 166.076 1010.8C165.679 1010.8 165.366 1010.89 165.138 1011.06C164.912 1011.24 164.756 1011.43 164.669 1011.64L163.562 1011.39C163.693 1011.02 163.885 1010.73 164.137 1010.5C164.392 1010.27 164.685 1010.11 165.016 1010C165.347 1009.9 165.695 1009.85 166.06 1009.85C166.302 1009.85 166.558 1009.88 166.828 1009.93C167.102 1009.99 167.356 1010.09 167.593 1010.24C167.832 1010.39 168.028 1010.6 168.18 1010.88C168.332 1011.16 168.409 1011.52 168.409 1011.96L168.409 1015.98L167.258 1015.98L167.258 1015.15L167.211 1015.15C167.134 1015.3 167.02 1015.45 166.868 1015.6C166.715 1015.75 166.52 1015.87 166.281 1015.97C166.042 1016.06 165.755 1016.11 165.422 1016.11ZM165.678 1015.17C166.003 1015.17 166.282 1015.1 166.513 1014.97C166.747 1014.84 166.924 1014.68 167.045 1014.47C167.169 1014.26 167.23 1014.03 167.23 1013.8L167.23 1013.02C167.188 1013.06 167.107 1013.1 166.986 1013.13C166.868 1013.17 166.732 1013.2 166.58 1013.22C166.428 1013.25 166.279 1013.27 166.135 1013.29C165.99 1013.31 165.869 1013.33 165.772 1013.34C165.544 1013.37 165.335 1013.42 165.146 1013.48C164.959 1013.55 164.809 1013.65 164.696 1013.78C164.586 1013.91 164.531 1014.07 164.531 1014.28C164.531 1014.58 164.639 1014.8 164.854 1014.95C165.069 1015.09 165.344 1015.17 165.678 1015.17ZM171.062 1013.93L171.054 1012.49L171.259 1012.49L173.67 1009.93L175.081 1009.93L172.33 1012.84L172.145 1012.84L171.062 1013.93ZM169.978 1015.98L169.978 1007.91L171.156 1007.91L171.156 1015.98L169.978 1015.98ZM173.8 1015.98L171.633 1013.1L172.445 1012.28L175.247 1015.98L173.8 1015.98ZM176.155 1015.98L176.155 1009.93L177.333 1009.93L177.333 1015.98L176.155 1015.98ZM176.75 1008.99C176.545 1008.99 176.369 1008.92 176.222 1008.79C176.077 1008.65 176.005 1008.48 176.005 1008.29C176.005 1008.1 176.077 1007.93 176.222 1007.79C176.369 1007.65 176.545 1007.58 176.75 1007.58C176.955 1007.58 177.13 1007.65 177.274 1007.79C177.421 1007.93 177.495 1008.1 177.495 1008.29C177.495 1008.48 177.421 1008.65 177.274 1008.79C177.13 1008.92 176.955 1008.99 176.75 1008.99ZM180.097 1012.38L180.097 1015.98L178.918 1015.98L178.918 1009.93L180.049 1009.93L180.049 1010.91L180.124 1010.91C180.263 1010.59 180.481 1010.33 180.778 1010.14C181.078 1009.94 181.455 1009.85 181.909 1009.85C182.322 1009.85 182.683 1009.93 182.993 1010.11C183.303 1010.28 183.543 1010.53 183.714 1010.87C183.885 1011.21 183.97 1011.63 183.97 1012.13L183.97 1015.98L182.792 1015.98L182.792 1012.27C182.792 1011.83 182.678 1011.49 182.449 1011.24C182.221 1010.99 181.907 1010.87 181.507 1010.87C181.234 1010.87 180.991 1010.93 180.778 1011.04C180.568 1011.16 180.401 1011.34 180.278 1011.56C180.157 1011.79 180.097 1012.06 180.097 1012.38ZM188.088 1018.37C187.607 1018.37 187.194 1018.31 186.847 1018.19C186.503 1018.06 186.222 1017.89 186.004 1017.68C185.786 1017.48 185.623 1017.25 185.515 1017L186.528 1016.59C186.599 1016.7 186.693 1016.82 186.811 1016.95C186.932 1017.08 187.095 1017.19 187.3 1017.29C187.508 1017.38 187.774 1017.42 188.1 1017.42C188.547 1017.42 188.916 1017.32 189.207 1017.1C189.499 1016.88 189.645 1016.54 189.645 1016.07L189.645 1014.88L189.57 1014.88C189.499 1015 189.397 1015.15 189.263 1015.3C189.131 1015.46 188.95 1015.6 188.719 1015.71C188.488 1015.83 188.187 1015.89 187.816 1015.89C187.338 1015.89 186.907 1015.78 186.524 1015.55C186.143 1015.33 185.841 1014.99 185.617 1014.56C185.397 1014.11 185.286 1013.57 185.286 1012.93C185.286 1012.28 185.395 1011.73 185.614 1011.27C185.834 1010.81 186.136 1010.46 186.52 1010.22C186.903 1009.97 187.338 1009.85 187.824 1009.85C188.2 1009.85 188.503 1009.91 188.735 1010.04C188.966 1010.16 189.146 1010.3 189.274 1010.47C189.406 1010.63 189.507 1010.78 189.578 1010.91L189.665 1010.91L189.665 1009.93L190.819 1009.93L190.819 1016.11C190.819 1016.63 190.698 1017.06 190.457 1017.39C190.215 1017.73 189.888 1017.97 189.475 1018.13C189.066 1018.29 188.603 1018.37 188.088 1018.37ZM188.076 1014.91C188.415 1014.91 188.702 1014.83 188.935 1014.67C189.172 1014.51 189.351 1014.29 189.471 1013.99C189.595 1013.69 189.657 1013.33 189.657 1012.91C189.657 1012.51 189.596 1012.15 189.475 1011.84C189.355 1011.53 189.177 1011.29 188.943 1011.11C188.71 1010.94 188.421 1010.85 188.076 1010.85C187.722 1010.85 187.426 1010.94 187.19 1011.12C186.953 1011.3 186.775 1011.55 186.654 1011.86C186.536 1012.18 186.477 1012.53 186.477 1012.91C186.477 1013.31 186.537 1013.66 186.658 1013.96C186.779 1014.26 186.957 1014.49 187.194 1014.66C187.433 1014.83 187.727 1014.91 188.076 1014.91ZM195.431 1015.98L195.431 1007.91L198.307 1007.91C198.935 1007.91 199.455 1008.02 199.868 1008.25C200.28 1008.48 200.589 1008.79 200.794 1009.19C200.999 1009.58 201.101 1010.03 201.101 1010.52C201.101 1011.02 200.998 1011.46 200.79 1011.86C200.585 1012.25 200.275 1012.57 199.86 1012.8C199.448 1013.03 198.929 1013.14 198.303 1013.14L196.325 1013.14L196.325 1012.11L198.193 1012.11C198.59 1012.11 198.912 1012.04 199.159 1011.9C199.406 1011.76 199.587 1011.58 199.702 1011.34C199.818 1011.1 199.876 1010.83 199.876 1010.52C199.876 1010.22 199.818 1009.95 199.702 1009.71C199.587 1009.47 199.404 1009.29 199.155 1009.15C198.908 1009.02 198.582 1008.95 198.177 1008.95L196.648 1008.95L196.648 1015.98L195.431 1015.98ZM204.908 1016.1C204.341 1016.1 203.845 1015.97 203.422 1015.71C202.999 1015.45 202.671 1015.09 202.437 1014.62C202.203 1014.15 202.086 1013.6 202.086 1012.98C202.086 1012.35 202.203 1011.8 202.437 1011.33C202.671 1010.86 202.999 1010.5 203.422 1010.24C203.845 1009.98 204.341 1009.85 204.908 1009.85C205.475 1009.85 205.971 1009.98 206.394 1010.24C206.817 1010.5 207.145 1010.86 207.379 1011.33C207.613 1011.8 207.73 1012.35 207.73 1012.98C207.73 1013.6 207.613 1014.15 207.379 1014.62C207.145 1015.09 206.817 1015.45 206.394 1015.71C205.971 1015.97 205.475 1016.1 204.908 1016.1ZM204.912 1015.11C205.28 1015.11 205.584 1015.01 205.826 1014.82C206.068 1014.63 206.247 1014.37 206.362 1014.04C206.48 1013.72 206.539 1013.36 206.539 1012.98C206.539 1012.59 206.48 1012.23 206.362 1011.91C206.247 1011.59 206.068 1011.32 205.826 1011.13C205.584 1010.93 205.28 1010.83 204.912 1010.83C204.542 1010.83 204.234 1010.93 203.99 1011.13C203.748 1011.32 203.568 1011.59 203.45 1011.91C203.334 1012.23 203.277 1012.59 203.277 1012.98C203.277 1013.36 203.334 1013.72 203.45 1014.04C203.568 1014.37 203.748 1014.63 203.99 1014.82C204.234 1015.01 204.542 1015.11 204.912 1015.11ZM211.594 1016.1C211.027 1016.1 210.532 1015.97 210.109 1015.71C209.686 1015.45 209.357 1015.09 209.124 1014.62C208.89 1014.15 208.773 1013.6 208.773 1012.98C208.773 1012.35 208.89 1011.8 209.124 1011.33C209.357 1010.86 209.686 1010.5 210.109 1010.24C210.532 1009.98 211.027 1009.85 211.594 1009.85C212.162 1009.85 212.657 1009.98 213.08 1010.24C213.503 1010.5 213.831 1010.86 214.065 1011.33C214.299 1011.8 214.416 1012.35 214.416 1012.98C214.416 1013.6 214.299 1014.15 214.065 1014.62C213.831 1015.09 213.503 1015.45 213.08 1015.71C212.657 1015.97 212.162 1016.1 211.594 1016.1ZM211.598 1015.11C211.966 1015.11 212.271 1015.01 212.513 1014.82C212.754 1014.63 212.933 1014.37 213.048 1014.04C213.167 1013.72 213.226 1013.36 213.226 1012.98C213.226 1012.59 213.167 1012.23 213.048 1011.91C212.933 1011.59 212.754 1011.32 212.513 1011.13C212.271 1010.93 211.966 1010.83 211.598 1010.83C211.228 1010.83 210.92 1010.93 210.676 1011.13C210.434 1011.32 210.255 1011.59 210.136 1011.91C210.021 1012.23 209.963 1012.59 209.963 1012.98C209.963 1013.36 210.021 1013.72 210.136 1014.04C210.255 1014.37 210.434 1014.63 210.676 1014.82C210.92 1015.01 211.228 1015.11 211.598 1015.11ZM216.909 1007.91L216.909 1015.98L215.731 1015.98L215.731 1007.91L216.909 1007.91Z" fill="#FAFAFA"/>
<path d="M143.57 1055.8C143.059 1055.8 142.601 1055.71 142.194 1055.53C141.794 1055.35 141.48 1055.1 141.251 1054.78C141.021 1054.45 140.903 1054.08 140.895 1053.66L141.972 1053.66C142.009 1054.02 142.157 1054.33 142.416 1054.58C142.682 1054.82 143.067 1054.94 143.57 1054.94C144.051 1054.94 144.428 1054.83 144.702 1054.59C144.983 1054.35 145.123 1054.03 145.123 1053.66C145.123 1053.36 145.042 1053.12 144.879 1052.94C144.716 1052.75 144.513 1052.61 144.269 1052.51C144.025 1052.42 143.696 1052.31 143.281 1052.2C142.771 1052.07 142.36 1051.94 142.05 1051.8C141.746 1051.67 141.484 1051.46 141.262 1051.18C141.047 1050.89 140.94 1050.51 140.94 1050.03C140.94 1049.61 141.047 1049.23 141.262 1048.91C141.476 1048.58 141.776 1048.33 142.16 1048.15C142.553 1047.98 143 1047.89 143.503 1047.89C144.228 1047.89 144.82 1048.07 145.279 1048.43C145.745 1048.79 146.007 1049.27 146.067 1049.87L144.957 1049.87C144.92 1049.58 144.765 1049.32 144.491 1049.1C144.217 1048.87 143.855 1048.75 143.403 1048.75C142.982 1048.75 142.638 1048.86 142.371 1049.09C142.105 1049.3 141.972 1049.6 141.972 1050C141.972 1050.28 142.05 1050.51 142.205 1050.68C142.368 1050.86 142.564 1051 142.793 1051.09C143.03 1051.18 143.359 1051.29 143.781 1051.4C144.291 1051.55 144.702 1051.69 145.012 1051.83C145.323 1051.96 145.589 1052.17 145.811 1052.46C146.033 1052.74 146.144 1053.13 146.144 1053.61C146.144 1053.99 146.044 1054.35 145.845 1054.68C145.645 1055.01 145.349 1055.28 144.957 1055.49C144.565 1055.7 144.102 1055.8 143.57 1055.8ZM148.64 1050.47L148.64 1054.06C148.64 1054.35 148.703 1054.56 148.829 1054.69C148.955 1054.81 149.173 1054.87 149.483 1054.87L150.227 1054.87L150.227 1055.72L149.317 1055.72C148.755 1055.72 148.333 1055.59 148.052 1055.33C147.771 1055.07 147.63 1054.65 147.63 1054.06L147.63 1050.47L146.842 1050.47L146.842 1049.64L147.63 1049.64L147.63 1048.11L148.64 1048.11L148.64 1049.64L150.227 1049.64L150.227 1050.47L148.64 1050.47ZM150.851 1052.66C150.851 1052.04 150.977 1051.49 151.229 1051.03C151.48 1050.55 151.824 1050.19 152.261 1049.93C152.704 1049.67 153.196 1049.54 153.736 1049.54C154.269 1049.54 154.732 1049.66 155.124 1049.88C155.516 1050.11 155.808 1050.4 156 1050.75L156 1049.64L157.021 1049.64L157.021 1055.72L156 1055.72L156 1054.59C155.801 1054.94 155.501 1055.24 155.101 1055.48C154.709 1055.71 154.251 1055.82 153.725 1055.82C153.185 1055.82 152.697 1055.69 152.261 1055.42C151.824 1055.16 151.48 1054.78 151.229 1054.3C150.977 1053.82 150.851 1053.27 150.851 1052.66ZM156 1052.67C156 1052.21 155.908 1051.81 155.723 1051.47C155.538 1051.13 155.286 1050.87 154.968 1050.69C154.658 1050.51 154.314 1050.42 153.936 1050.42C153.559 1050.42 153.215 1050.51 152.904 1050.68C152.593 1050.86 152.346 1051.12 152.161 1051.46C151.976 1051.8 151.883 1052.2 151.883 1052.66C151.883 1053.13 151.976 1053.53 152.161 1053.88C152.346 1054.22 152.593 1054.48 152.904 1054.67C153.215 1054.85 153.559 1054.93 153.936 1054.93C154.314 1054.93 154.658 1054.85 154.968 1054.67C155.286 1054.48 155.538 1054.22 155.723 1053.88C155.908 1053.53 156 1053.13 156 1052.67ZM161.901 1055.72L159.516 1053.04L159.516 1055.72L158.506 1055.72L158.506 1047.51L159.516 1047.51L159.516 1052.34L161.857 1049.64L163.266 1049.64L160.403 1052.67L163.277 1055.72L161.901 1055.72ZM164.516 1048.65C164.324 1048.65 164.161 1048.59 164.028 1048.45C163.895 1048.32 163.828 1048.16 163.828 1047.96C163.828 1047.77 163.895 1047.61 164.028 1047.48C164.161 1047.34 164.324 1047.28 164.516 1047.28C164.701 1047.28 164.857 1047.34 164.982 1047.48C165.116 1047.61 165.182 1047.77 165.182 1047.96C165.182 1048.16 165.116 1048.32 164.982 1048.45C164.857 1048.59 164.701 1048.65 164.516 1048.65ZM165.005 1049.64L165.005 1055.72L163.995 1055.72L163.995 1049.64L165.005 1049.64ZM169.467 1049.53C170.206 1049.53 170.806 1049.76 171.264 1050.21C171.723 1050.65 171.952 1051.29 171.952 1052.14L171.952 1055.72L170.954 1055.72L170.954 1052.28C170.954 1051.68 170.802 1051.21 170.499 1050.89C170.195 1050.57 169.781 1050.41 169.256 1050.41C168.723 1050.41 168.298 1050.57 167.98 1050.91C167.669 1051.24 167.514 1051.72 167.514 1052.36L167.514 1055.72L166.504 1055.72L166.504 1049.64L167.514 1049.64L167.514 1050.51C167.713 1050.2 167.983 1049.95 168.324 1049.78C168.671 1049.61 169.052 1049.53 169.467 1049.53ZM175.888 1049.54C176.413 1049.54 176.872 1049.66 177.264 1049.88C177.663 1050.11 177.959 1050.4 178.152 1050.75L178.152 1049.64L179.173 1049.64L179.173 1055.85C179.173 1056.41 179.054 1056.9 178.817 1057.33C178.581 1057.77 178.24 1058.11 177.797 1058.35C177.36 1058.6 176.85 1058.72 176.265 1058.72C175.466 1058.72 174.8 1058.53 174.268 1058.15C173.735 1057.77 173.421 1057.26 173.324 1056.61L174.323 1056.61C174.434 1056.98 174.663 1057.28 175.011 1057.5C175.359 1057.73 175.777 1057.84 176.265 1057.84C176.82 1057.84 177.271 1057.67 177.619 1057.32C177.974 1056.97 178.152 1056.48 178.152 1055.85L178.152 1054.58C177.952 1054.93 177.656 1055.23 177.264 1055.47C176.872 1055.7 176.413 1055.82 175.888 1055.82C175.348 1055.82 174.856 1055.69 174.412 1055.42C173.975 1055.16 173.631 1054.78 173.38 1054.3C173.128 1053.82 173.003 1053.27 173.003 1052.66C173.003 1052.04 173.128 1051.49 173.38 1051.03C173.631 1050.55 173.975 1050.19 174.412 1049.93C174.856 1049.67 175.348 1049.54 175.888 1049.54ZM178.152 1052.67C178.152 1052.21 178.059 1051.81 177.874 1051.47C177.689 1051.13 177.438 1050.87 177.12 1050.69C176.809 1050.51 176.465 1050.42 176.088 1050.42C175.71 1050.42 175.366 1050.51 175.056 1050.68C174.745 1050.86 174.497 1051.12 174.312 1051.46C174.127 1051.8 174.035 1052.2 174.035 1052.66C174.035 1053.13 174.127 1053.53 174.312 1053.88C174.497 1054.22 174.745 1054.48 175.056 1054.67C175.366 1054.85 175.71 1054.93 176.088 1054.93C176.465 1054.93 176.809 1054.85 177.12 1054.67C177.438 1054.48 177.689 1054.22 177.874 1053.88C178.059 1053.53 178.152 1053.13 178.152 1052.67ZM188.565 1050.25C188.565 1050.89 188.343 1051.43 187.899 1051.86C187.462 1052.28 186.793 1052.49 185.89 1052.49L184.403 1052.49L184.403 1055.72L183.394 1055.72L183.394 1047.99L185.89 1047.99C186.763 1047.99 187.425 1048.2 187.877 1048.62C188.335 1049.04 188.565 1049.59 188.565 1050.25ZM185.89 1051.66C186.453 1051.66 186.867 1051.54 187.133 1051.29C187.4 1051.05 187.533 1050.7 187.533 1050.25C187.533 1049.3 186.985 1048.82 185.89 1048.82L184.403 1048.82L184.403 1051.66L185.89 1051.66ZM192.25 1055.82C191.68 1055.82 191.163 1055.69 190.697 1055.43C190.238 1055.17 189.875 1054.81 189.609 1054.33C189.35 1053.85 189.221 1053.3 189.221 1052.67C189.221 1052.05 189.354 1051.5 189.62 1051.03C189.894 1050.55 190.264 1050.18 190.73 1049.93C191.196 1049.67 191.717 1049.54 192.294 1049.54C192.872 1049.54 193.393 1049.67 193.859 1049.93C194.325 1050.18 194.691 1050.54 194.958 1051.02C195.231 1051.49 195.368 1052.04 195.368 1052.67C195.368 1053.3 195.228 1053.85 194.947 1054.33C194.673 1054.81 194.299 1055.17 193.826 1055.43C193.352 1055.69 192.827 1055.82 192.25 1055.82ZM192.25 1054.93C192.613 1054.93 192.953 1054.85 193.271 1054.68C193.589 1054.51 193.844 1054.25 194.037 1053.91C194.236 1053.57 194.336 1053.16 194.336 1052.67C194.336 1052.18 194.24 1051.77 194.048 1051.43C193.855 1051.09 193.604 1050.84 193.293 1050.67C192.982 1050.5 192.646 1050.42 192.283 1050.42C191.913 1050.42 191.573 1050.5 191.262 1050.67C190.959 1050.84 190.715 1051.09 190.53 1051.43C190.345 1051.77 190.253 1052.18 190.253 1052.67C190.253 1053.17 190.341 1053.58 190.519 1053.92C190.704 1054.26 190.948 1054.52 191.251 1054.69C191.555 1054.85 191.888 1054.93 192.25 1054.93ZM199.126 1055.82C198.557 1055.82 198.039 1055.69 197.573 1055.43C197.114 1055.17 196.752 1054.81 196.485 1054.33C196.226 1053.85 196.097 1053.3 196.097 1052.67C196.097 1052.05 196.23 1051.5 196.496 1051.03C196.77 1050.55 197.14 1050.18 197.606 1049.93C198.072 1049.67 198.594 1049.54 199.171 1049.54C199.748 1049.54 200.269 1049.67 200.735 1049.93C201.201 1050.18 201.568 1050.54 201.834 1051.02C202.108 1051.49 202.245 1052.04 202.245 1052.67C202.245 1053.3 202.104 1053.85 201.823 1054.33C201.549 1054.81 201.176 1055.17 200.702 1055.43C200.229 1055.69 199.703 1055.82 199.126 1055.82ZM199.126 1054.93C199.489 1054.93 199.829 1054.85 200.147 1054.68C200.465 1054.51 200.721 1054.25 200.913 1053.91C201.113 1053.57 201.212 1053.16 201.212 1052.67C201.212 1052.18 201.116 1051.77 200.924 1051.43C200.732 1051.09 200.48 1050.84 200.169 1050.67C199.859 1050.5 199.522 1050.42 199.16 1050.42C198.79 1050.42 198.449 1050.5 198.139 1050.67C197.835 1050.84 197.591 1051.09 197.406 1051.43C197.221 1051.77 197.129 1052.18 197.129 1052.67C197.129 1053.17 197.218 1053.58 197.395 1053.92C197.58 1054.26 197.824 1054.52 198.128 1054.69C198.431 1054.85 198.764 1054.93 199.126 1054.93ZM204.36 1047.51L204.36 1055.72L203.35 1055.72L203.35 1047.51L204.36 1047.51ZM216.697 1049.64L214.799 1055.72L213.756 1055.72L212.291 1050.89L210.826 1055.72L209.783 1055.72L207.874 1049.64L208.906 1049.64L210.305 1054.75L211.814 1049.64L212.846 1049.64L214.322 1054.76L215.698 1049.64L216.697 1049.64ZM217.998 1048.65C217.806 1048.65 217.643 1048.59 217.51 1048.45C217.377 1048.32 217.31 1048.16 217.31 1047.96C217.31 1047.77 217.377 1047.61 217.51 1047.48C217.643 1047.34 217.806 1047.28 217.998 1047.28C218.183 1047.28 218.339 1047.34 218.464 1047.48C218.598 1047.61 218.664 1047.77 218.664 1047.96C218.664 1048.16 218.598 1048.32 218.464 1048.45C218.339 1048.59 218.183 1048.65 217.998 1048.65ZM218.487 1049.64L218.487 1055.72L217.477 1055.72L217.477 1049.64L218.487 1049.64ZM221.217 1050.47L221.217 1054.06C221.217 1054.35 221.28 1054.56 221.406 1054.69C221.532 1054.81 221.75 1054.87 222.061 1054.87L222.804 1054.87L222.804 1055.72L221.894 1055.72C221.332 1055.72 220.91 1055.59 220.629 1055.33C220.348 1055.07 220.208 1054.65 220.208 1054.06L220.208 1050.47L219.42 1050.47L219.42 1049.64L220.208 1049.64L220.208 1048.11L221.217 1048.11L221.217 1049.64L222.804 1049.64L222.804 1050.47L221.217 1050.47ZM226.824 1049.53C227.283 1049.53 227.697 1049.63 228.067 1049.83C228.437 1050.02 228.726 1050.31 228.933 1050.71C229.147 1051.1 229.255 1051.58 229.255 1052.14L229.255 1055.72L228.256 1055.72L228.256 1052.28C228.256 1051.68 228.104 1051.21 227.801 1050.89C227.497 1050.57 227.083 1050.41 226.558 1050.41C226.025 1050.41 225.6 1050.57 225.282 1050.91C224.971 1051.24 224.816 1051.72 224.816 1052.36L224.816 1055.72L223.806 1055.72L223.806 1047.51L224.816 1047.51L224.816 1050.51C225.015 1050.2 225.289 1049.95 225.637 1049.78C225.992 1049.61 226.388 1049.53 226.824 1049.53ZM147.507 1079.72L146.064 1077.46L144.677 1079.72L143.623 1079.72L145.587 1076.7L143.623 1073.64L144.766 1073.64L146.209 1075.89L147.585 1073.64L148.639 1073.64L146.686 1076.65L148.65 1079.72L147.507 1079.72ZM153.168 1071.51L153.168 1079.72L152.158 1079.72L152.158 1071.51L153.168 1071.51ZM157.319 1079.82C156.749 1079.82 156.232 1079.69 155.765 1079.43C155.307 1079.17 154.944 1078.81 154.678 1078.33C154.419 1077.85 154.29 1077.3 154.29 1076.67C154.29 1076.05 154.423 1075.5 154.689 1075.03C154.963 1074.55 155.333 1074.18 155.799 1073.93C156.265 1073.67 156.786 1073.54 157.363 1073.54C157.94 1073.54 158.462 1073.67 158.928 1073.93C159.394 1074.18 159.76 1074.54 160.027 1075.02C160.3 1075.49 160.437 1076.04 160.437 1076.67C160.437 1077.3 160.297 1077.85 160.016 1078.33C159.742 1078.81 159.368 1079.17 158.895 1079.43C158.421 1079.69 157.896 1079.82 157.319 1079.82ZM157.319 1078.93C157.682 1078.93 158.022 1078.85 158.34 1078.68C158.658 1078.51 158.913 1078.25 159.106 1077.91C159.305 1077.57 159.405 1077.16 159.405 1076.67C159.405 1076.18 159.309 1075.77 159.117 1075.43C158.924 1075.09 158.673 1074.84 158.362 1074.67C158.051 1074.5 157.715 1074.42 157.352 1074.42C156.982 1074.42 156.642 1074.5 156.331 1074.67C156.028 1074.84 155.784 1075.09 155.599 1075.43C155.414 1075.77 155.322 1076.18 155.322 1076.67C155.322 1077.17 155.41 1077.58 155.588 1077.92C155.773 1078.26 156.017 1078.52 156.32 1078.69C156.624 1078.85 156.957 1078.93 157.319 1078.93ZM161.166 1076.67C161.166 1076.04 161.292 1075.49 161.543 1075.03C161.795 1074.55 162.142 1074.19 162.586 1073.93C163.037 1073.67 163.552 1073.54 164.129 1073.54C164.876 1073.54 165.49 1073.72 165.971 1074.08C166.459 1074.45 166.781 1074.95 166.936 1075.59L165.849 1075.59C165.745 1075.22 165.542 1074.93 165.238 1074.72C164.942 1074.5 164.573 1074.4 164.129 1074.4C163.552 1074.4 163.086 1074.59 162.73 1074.99C162.375 1075.39 162.198 1075.95 162.198 1076.67C162.198 1077.4 162.375 1077.97 162.73 1078.37C163.086 1078.77 163.552 1078.97 164.129 1078.97C164.573 1078.97 164.942 1078.86 165.238 1078.66C165.534 1078.45 165.738 1078.15 165.849 1077.77L166.936 1077.77C166.773 1078.39 166.448 1078.89 165.96 1079.27C165.471 1079.64 164.861 1079.82 164.129 1079.82C163.552 1079.82 163.037 1079.69 162.586 1079.43C162.142 1079.17 161.795 1078.81 161.543 1078.33C161.292 1077.86 161.166 1077.31 161.166 1076.67ZM171.457 1079.72L169.071 1077.04L169.071 1079.72L168.062 1079.72L168.062 1071.51L169.071 1071.51L169.071 1076.34L171.413 1073.64L172.822 1073.64L169.959 1076.67L172.833 1079.72L171.457 1079.72ZM174.072 1072.65C173.88 1072.65 173.717 1072.59 173.584 1072.45C173.451 1072.32 173.384 1072.16 173.384 1071.96C173.384 1071.77 173.451 1071.61 173.584 1071.48C173.717 1071.34 173.88 1071.28 174.072 1071.28C174.257 1071.28 174.413 1071.34 174.538 1071.48C174.672 1071.61 174.738 1071.77 174.738 1071.96C174.738 1072.16 174.672 1072.32 174.538 1072.45C174.413 1072.59 174.257 1072.65 174.072 1072.65ZM174.561 1073.64L174.561 1079.72L173.551 1079.72L173.551 1073.64L174.561 1073.64ZM179.023 1073.53C179.762 1073.53 180.362 1073.76 180.82 1074.21C181.279 1074.65 181.508 1075.29 181.508 1076.14L181.508 1079.72L180.51 1079.72L180.51 1076.28C180.51 1075.68 180.358 1075.21 180.055 1074.89C179.751 1074.57 179.337 1074.41 178.812 1074.41C178.279 1074.41 177.854 1074.57 177.536 1074.91C177.225 1075.24 177.069 1075.72 177.069 1076.36L177.069 1079.72L176.06 1079.72L176.06 1073.64L177.069 1073.64L177.069 1074.51C177.269 1074.2 177.539 1073.95 177.88 1073.78C178.227 1073.61 178.608 1073.53 179.023 1073.53ZM185.444 1073.54C185.969 1073.54 186.428 1073.66 186.82 1073.88C187.219 1074.11 187.515 1074.4 187.708 1074.75L187.708 1073.64L188.728 1073.64L188.728 1079.85C188.728 1080.41 188.61 1080.9 188.373 1081.33C188.137 1081.77 187.796 1082.11 187.352 1082.35C186.916 1082.6 186.405 1082.72 185.821 1082.72C185.022 1082.72 184.356 1082.53 183.824 1082.15C183.291 1081.77 182.977 1081.26 182.88 1080.61L183.879 1080.61C183.99 1080.98 184.219 1081.28 184.567 1081.5C184.915 1081.73 185.333 1081.84 185.821 1081.84C186.376 1081.84 186.827 1081.67 187.175 1081.32C187.53 1080.97 187.708 1080.48 187.708 1079.85L187.708 1078.58C187.508 1078.93 187.212 1079.23 186.82 1079.47C186.428 1079.7 185.969 1079.82 185.444 1079.82C184.904 1079.82 184.412 1079.69 183.968 1079.42C183.531 1079.16 183.187 1078.78 182.936 1078.3C182.684 1077.82 182.559 1077.27 182.559 1076.66C182.559 1076.04 182.684 1075.49 182.936 1075.03C183.187 1074.55 183.531 1074.19 183.968 1073.93C184.412 1073.67 184.904 1073.54 185.444 1073.54ZM187.708 1076.67C187.708 1076.21 187.615 1075.81 187.43 1075.47C187.245 1075.13 186.994 1074.87 186.676 1074.69C186.365 1074.51 186.021 1074.42 185.644 1074.42C185.266 1074.42 184.922 1074.51 184.611 1074.68C184.301 1074.86 184.053 1075.12 183.868 1075.46C183.683 1075.8 183.591 1076.2 183.591 1076.66C183.591 1077.13 183.683 1077.53 183.868 1077.88C184.053 1078.22 184.301 1078.48 184.611 1078.67C184.922 1078.85 185.266 1078.93 185.644 1078.93C186.021 1078.93 186.365 1078.85 186.676 1078.67C186.994 1078.48 187.245 1078.22 187.43 1077.88C187.615 1077.53 187.708 1077.13 187.708 1076.67ZM193.959 1074.76C194.159 1074.41 194.455 1074.13 194.847 1073.9C195.247 1073.66 195.709 1073.54 196.234 1073.54C196.774 1073.54 197.263 1073.67 197.699 1073.93C198.143 1074.19 198.491 1074.55 198.742 1075.03C198.994 1075.49 199.119 1076.04 199.119 1076.66C199.119 1077.27 198.994 1077.82 198.742 1078.3C198.491 1078.78 198.143 1079.16 197.699 1079.42C197.263 1079.69 196.774 1079.82 196.234 1079.82C195.716 1079.82 195.258 1079.71 194.858 1079.48C194.466 1079.24 194.166 1078.95 193.959 1078.6L193.959 1082.61L192.95 1082.61L192.95 1073.64L193.959 1073.64L193.959 1074.76ZM198.087 1076.66C198.087 1076.2 197.995 1075.8 197.81 1075.46C197.625 1075.12 197.374 1074.86 197.055 1074.68C196.745 1074.51 196.401 1074.42 196.023 1074.42C195.653 1074.42 195.309 1074.51 194.991 1074.69C194.681 1074.87 194.429 1075.13 194.237 1075.48C194.052 1075.82 193.959 1076.22 193.959 1076.67C193.959 1077.13 194.052 1077.53 194.237 1077.88C194.429 1078.22 194.681 1078.48 194.991 1078.67C195.309 1078.85 195.653 1078.93 196.023 1078.93C196.401 1078.93 196.745 1078.85 197.055 1078.67C197.374 1078.48 197.625 1078.22 197.81 1077.88C197.995 1077.53 198.087 1077.13 198.087 1076.66ZM205.775 1076.45C205.775 1076.64 205.764 1076.84 205.742 1077.06L200.881 1077.06C200.918 1077.66 201.122 1078.13 201.492 1078.47C201.869 1078.8 202.324 1078.97 202.857 1078.97C203.293 1078.97 203.656 1078.87 203.944 1078.67C204.24 1078.46 204.447 1078.19 204.566 1077.85L205.653 1077.85C205.49 1078.43 205.165 1078.91 204.677 1079.28C204.188 1079.64 203.582 1079.82 202.857 1079.82C202.28 1079.82 201.762 1079.69 201.303 1079.43C200.852 1079.17 200.497 1078.81 200.238 1078.33C199.979 1077.85 199.849 1077.3 199.849 1076.67C199.849 1076.04 199.975 1075.49 200.227 1075.02C200.478 1074.54 200.83 1074.18 201.281 1073.93C201.74 1073.67 202.265 1073.54 202.857 1073.54C203.434 1073.54 203.944 1073.67 204.388 1073.92C204.832 1074.17 205.172 1074.52 205.409 1074.96C205.653 1075.4 205.775 1075.89 205.775 1076.45ZM204.732 1076.24C204.732 1075.85 204.647 1075.52 204.477 1075.25C204.307 1074.97 204.074 1074.76 203.778 1074.62C203.489 1074.47 203.167 1074.4 202.812 1074.4C202.302 1074.4 201.865 1074.56 201.503 1074.88C201.148 1075.21 200.944 1075.66 200.893 1076.24L204.732 1076.24ZM207.896 1074.63C208.074 1074.28 208.325 1074.01 208.651 1073.82C208.983 1073.63 209.387 1073.53 209.86 1073.53L209.86 1074.57L209.594 1074.57C208.462 1074.57 207.896 1075.19 207.896 1076.41L207.896 1079.72L206.886 1079.72L206.886 1073.64L207.896 1073.64L207.896 1074.63ZM211.325 1072.65C211.133 1072.65 210.97 1072.59 210.837 1072.45C210.704 1072.32 210.637 1072.16 210.637 1071.96C210.637 1071.77 210.704 1071.61 210.837 1071.48C210.97 1071.34 211.133 1071.28 211.325 1071.28C211.51 1071.28 211.666 1071.34 211.792 1071.48C211.925 1071.61 211.991 1071.77 211.991 1071.96C211.991 1072.16 211.925 1072.32 211.792 1072.45C211.666 1072.59 211.51 1072.65 211.325 1072.65ZM211.814 1073.64L211.814 1079.72L210.804 1079.72L210.804 1073.64L211.814 1073.64ZM215.965 1079.82C215.395 1079.82 214.877 1079.69 214.411 1079.43C213.953 1079.17 213.59 1078.81 213.324 1078.33C213.065 1077.85 212.936 1077.3 212.936 1076.67C212.936 1076.05 213.069 1075.5 213.335 1075.03C213.609 1074.55 213.979 1074.18 214.445 1073.93C214.911 1073.67 215.432 1073.54 216.009 1073.54C216.586 1073.54 217.108 1073.67 217.574 1073.93C218.04 1074.18 218.406 1074.54 218.673 1075.02C218.946 1075.49 219.083 1076.04 219.083 1076.67C219.083 1077.3 218.943 1077.85 218.662 1078.33C218.388 1078.81 218.014 1079.17 217.541 1079.43C217.067 1079.69 216.542 1079.82 215.965 1079.82ZM215.965 1078.93C216.327 1078.93 216.668 1078.85 216.986 1078.68C217.304 1078.51 217.559 1078.25 217.752 1077.91C217.951 1077.57 218.051 1077.16 218.051 1076.67C218.051 1076.18 217.955 1075.77 217.763 1075.43C217.57 1075.09 217.319 1074.84 217.008 1074.67C216.697 1074.5 216.361 1074.42 215.998 1074.42C215.628 1074.42 215.288 1074.5 214.977 1074.67C214.674 1074.84 214.43 1075.09 214.245 1075.43C214.06 1075.77 213.968 1076.18 213.968 1076.67C213.968 1077.17 214.056 1077.58 214.234 1077.92C214.419 1078.26 214.663 1078.52 214.966 1078.69C215.27 1078.85 215.602 1078.93 215.965 1078.93ZM219.812 1076.66C219.812 1076.04 219.937 1075.49 220.189 1075.03C220.441 1074.55 220.785 1074.19 221.221 1073.93C221.665 1073.67 222.161 1073.54 222.708 1073.54C223.181 1073.54 223.622 1073.65 224.029 1073.87C224.435 1074.09 224.746 1074.37 224.961 1074.73L224.961 1071.51L225.982 1071.51L225.982 1079.72L224.961 1079.72L224.961 1078.58C224.761 1078.94 224.465 1079.24 224.073 1079.48C223.681 1079.71 223.222 1079.82 222.697 1079.82C222.157 1079.82 221.665 1079.69 221.221 1079.42C220.785 1079.16 220.441 1078.78 220.189 1078.3C219.937 1077.82 219.812 1077.27 219.812 1076.66ZM224.961 1076.67C224.961 1076.21 224.868 1075.81 224.683 1075.47C224.498 1075.13 224.247 1074.87 223.929 1074.69C223.618 1074.51 223.274 1074.42 222.897 1074.42C222.519 1074.42 222.175 1074.51 221.865 1074.68C221.554 1074.86 221.306 1075.12 221.121 1075.46C220.936 1075.8 220.844 1076.2 220.844 1076.66C220.844 1077.13 220.936 1077.53 221.121 1077.88C221.306 1078.22 221.554 1078.48 221.865 1078.67C222.175 1078.85 222.519 1078.93 222.897 1078.93C223.274 1078.93 223.618 1078.85 223.929 1078.67C224.247 1078.48 224.498 1078.22 224.683 1077.88C224.868 1077.53 224.961 1077.13 224.961 1076.67Z" fill="white"/>
<path d="M184.654 584.098C184.979 584.423 185.506 584.423 185.831 584.098L191.127 578.802C191.452 578.477 191.452 577.95 191.127 577.625C190.802 577.3 190.275 577.3 189.95 577.625L185.242 582.333L180.534 577.625C180.209 577.3 179.682 577.3 179.357 577.625C179.032 577.95 179.032 578.477 179.357 578.802L184.654 584.098ZM186.074 583.51L186.074 441.737L184.41 441.737L184.41 583.51L186.074 583.51Z" fill="white"/>
<path d="M191.865 935.585C192.19 935.91 192.717 935.91 193.042 935.585L198.338 930.288C198.663 929.963 198.663 929.436 198.338 929.111C198.013 928.786 197.486 928.786 197.161 929.111L192.453 933.819L187.745 929.111C187.42 928.786 186.893 928.786 186.568 929.111C186.243 929.436 186.243 929.963 186.568 930.288L191.865 935.585ZM193.285 934.996L193.285 822.362L191.621 822.362L191.621 934.996L193.285 934.996Z" fill="white"/>
<path d="M51.1252 707C50.373 705.701 49.4181 704.533 48.3037 703.541L47.2449 707H51.1252Z" fill="#351754" stroke="#2E164D" stroke-width="71"/>
<path d="M39 700C31.272 700 25 706.272 25 714C25 721.728 31.272 728 39 728C46.728 728 53 721.728 53 714C53 706.272 46.728 700 39 700ZM37.6 721V712.6H40.4V721H37.6ZM37.6 709.8V707H40.4V709.8H37.6Z" fill="white"/>
<path d="M39 700C31.272 700 25 706.272 25 714C25 721.728 31.272 728 39 728C46.728 728 53 721.728 53 714C53 706.272 46.728 700 39 700ZM37.6 721V712.6H40.4V721H37.6ZM37.6 709.8V707H40.4V709.8H37.6Z" stroke="#2F164D"/>
<circle cx="39" cy="714" r="13.5" stroke="#2F164D" stroke-width="3"/>
<path d="M359.125 707C358.373 705.701 357.418 704.533 356.304 703.541L355.245 707H359.125Z" fill="#351754" stroke="#2E164D" stroke-width="71"/>
<path d="M347 700C339.272 700 333 706.272 333 714C333 721.728 339.272 728 347 728C354.728 728 361 721.728 361 714C361 706.272 354.728 700 347 700ZM345.6 721V712.6H348.4V721H345.6ZM345.6 709.8V707H348.4V709.8H345.6Z" fill="white"/>
<path d="M347 700C339.272 700 333 706.272 333 714C333 721.728 339.272 728 347 728C354.728 728 361 721.728 361 714C361 706.272 354.728 700 347 700ZM345.6 721V712.6H348.4V721H345.6ZM345.6 709.8V707H348.4V709.8H345.6Z" stroke="#2F164D"/>
<circle cx="347" cy="714" r="13.5" stroke="#2F164D" stroke-width="3"/>
</g>
<defs>
<filter id="filter0_i_1162_2608" x="100.346" y="290.265" width="169.229" height="170.959" filterUnits="userSpaceOnUse" color-interpolation-filters="sRGB">
<feFlood flood-opacity="0" result="BackgroundImageFix"/>
<feBlend mode="normal" in="SourceGraphic" in2="BackgroundImageFix" result="shape"/>
<feColorMatrix in="SourceAlpha" type="matrix" values="0 0 0 0 0 0 0 0 0 0 0 0 0 0 0 0 0 0 127 0" result="hardAlpha"/>
<feOffset dy="1.73031"/>
<feGaussianBlur stdDeviation="13.8425"/>
<feComposite in2="hardAlpha" operator="arithmetic" k2="-1" k3="1"/>
<feColorMatrix type="matrix" values="0 0 0 0 0.984314 0 0 0 0 0.247059 0 0 0 0 1 0 0 0 1 0"/>
<feBlend mode="normal" in2="shape" result="effect1_innerShadow_1162_2608"/>
</filter>
<filter id="filter1_i_1162_2608" x="100.346" y="958.3" width="169.229" height="170.959" filterUnits="userSpaceOnUse" color-interpolation-filters="sRGB">
<feFlood flood-opacity="0" result="BackgroundImageFix"/>
<feBlend mode="normal" in="SourceGraphic" in2="BackgroundImageFix" result="shape"/>
<feColorMatrix in="SourceAlpha" type="matrix" values="0 0 0 0 0 0 0 0 0 0 0 0 0 0 0 0 0 0 127 0" result="hardAlpha"/>
<feOffset dy="1.73031"/>
<feGaussianBlur stdDeviation="13.8425"/>
<feComposite in2="hardAlpha" operator="arithmetic" k2="-1" k3="1"/>
<feColorMatrix type="matrix" values="0 0 0 0 0.984314 0 0 0 0 0.247059 0 0 0 0 1 0 0 0 1 0"/>
<feBlend mode="normal" in2="shape" result="effect1_innerShadow_1162_2608"/>
</filter>
<filter id="filter2_d_1162_2608" x="141.187" y="341.924" width="87.8506" height="72.627" filterUnits="userSpaceOnUse" color-interpolation-filters="sRGB">
<feFlood flood-opacity="0" result="BackgroundImageFix"/>
<feColorMatrix in="SourceAlpha" type="matrix" values="0 0 0 0 0 0 0 0 0 0 0 0 0 0 0 0 0 0 127 0" result="hardAlpha"/>
<feOffset dy="3.99035"/>
<feGaussianBlur stdDeviation="8.4795"/>
<feComposite in2="hardAlpha" operator="out"/>
<feColorMatrix type="matrix" values="0 0 0 0 0 0 0 0 0 0 0 0 0 0 0 0 0 0 0.5 0"/>
<feBlend mode="normal" in2="BackgroundImageFix" result="effect1_dropShadow_1162_2608"/>
<feBlend mode="normal" in="SourceGraphic" in2="effect1_dropShadow_1162_2608" result="shape"/>
</filter>
<radialGradient id="paint0_radial_1162_2608" cx="0" cy="0" r="1" gradientUnits="userSpaceOnUse" gradientTransform="translate(197 673.142) rotate(-177.055) scale(3911.17 2026.69)">
<stop stop-color="#3F1960"/>
<stop offset="1" stop-color="#10122A"/>
</radialGradient>
<linearGradient id="paint1_linear_1162_2608" x1="358.046" y1="741.874" x2="441.31" y2="886.091" gradientUnits="userSpaceOnUse">
<stop stop-color="#FB3FFF"/>
<stop offset="1" stop-color="#DFDFDF" stop-opacity="0"/>
</linearGradient>
<linearGradient id="paint2_linear_1162_2608" x1="358.228" y1="885.684" x2="441.492" y2="1029.9" gradientUnits="userSpaceOnUse">
<stop stop-color="#FB3FFF"/>
<stop offset="1" stop-color="#DFDFDF" stop-opacity="0"/>
</linearGradient>
<linearGradient id="paint3_linear_1162_2608" x1="233.775" y1="813.621" x2="317.039" y2="957.837" gradientUnits="userSpaceOnUse">
<stop stop-color="#FB3FFF"/>
<stop offset="1" stop-color="#DFDFDF" stop-opacity="0"/>
</linearGradient>
<linearGradient id="paint4_linear_1162_2608" x1="109.333" y1="741.555" x2="192.597" y2="885.772" gradientUnits="userSpaceOnUse">
<stop stop-color="#FB3FFF"/>
<stop offset="1" stop-color="#DFDFDF" stop-opacity="0"/>
</linearGradient>
<linearGradient id="paint5_linear_1162_2608" x1="109.513" y1="885.362" x2="192.777" y2="1029.58" gradientUnits="userSpaceOnUse">
<stop stop-color="#FB3FFF"/>
<stop offset="1" stop-color="#DFDFDF" stop-opacity="0"/>
</linearGradient>
<linearGradient id="paint6_linear_1162_2608" x1="-15.1197" y1="669.493" x2="68.144" y2="813.71" gradientUnits="userSpaceOnUse">
<stop stop-color="#FB3FFF"/>
<stop offset="1" stop-color="#DFDFDF" stop-opacity="0"/>
</linearGradient>
<linearGradient id="paint7_linear_1162_2608" x1="-14.9322" y1="813.299" x2="68.3315" y2="957.516" gradientUnits="userSpaceOnUse">
<stop stop-color="#FB3FFF"/>
<stop offset="1" stop-color="#DFDFDF" stop-opacity="0"/>
</linearGradient>
<linearGradient id="paint8_linear_1162_2608" x1="-14.7486" y1="957.106" x2="68.5151" y2="1101.32" gradientUnits="userSpaceOnUse">
<stop stop-color="#FB3FFF"/>
<stop offset="1" stop-color="#DFDFDF" stop-opacity="0"/>
</linearGradient>
<linearGradient id="paint9_linear_1162_2608" x1="-139.01" y1="1028.85" x2="-55.7466" y2="1173.06" gradientUnits="userSpaceOnUse">
<stop stop-color="#FB3FFF"/>
<stop offset="1" stop-color="#DFDFDF" stop-opacity="0"/>
</linearGradient>
<linearGradient id="paint10_linear_1162_2608" x1="87.2853" y1="161" x2="87.4549" y2="167.541" gradientUnits="userSpaceOnUse">
<stop stop-color="#FA3EFE" stop-opacity="0"/>
<stop offset="0.494792" stop-color="#FA3EFE"/>
<stop offset="1" stop-color="#FA3EFE" stop-opacity="0"/>
</linearGradient>
<radialGradient id="paint11_diamond_1162_2608" cx="0" cy="0" r="1" gradientUnits="userSpaceOnUse" gradientTransform="translate(515.376 630.375) rotate(-162.164) scale(177.486 340.169)">
<stop stop-color="#3F1960"/>
<stop offset="1" stop-color="#10122A"/>
</radialGradient>
<radialGradient id="paint12_diamond_1162_2608" cx="0" cy="0" r="1" gradientUnits="userSpaceOnUse" gradientTransform="translate(515.376 1298.41) rotate(-162.164) scale(177.486 340.169)">
<stop stop-color="#3F1960"/>
<stop offset="1" stop-color="#10122A"/>
</radialGradient>
<radialGradient id="paint13_radial_1162_2608" cx="0" cy="0" r="1" gradientUnits="userSpaceOnUse" gradientTransform="translate(450.226 579.996) rotate(140.405) scale(138.746 265.919)">
<stop stop-color="#3F1960"/>
<stop offset="1" stop-color="#10122A"/>
</radialGradient>
<radialGradient id="paint14_radial_1162_2608" cx="0" cy="0" r="1" gradientUnits="userSpaceOnUse" gradientTransform="translate(450.226 1248.03) rotate(140.405) scale(138.746 265.919)">
<stop stop-color="#3F1960"/>
<stop offset="1" stop-color="#10122A"/>
</radialGradient>
<radialGradient id="paint15_radial_1162_2608" cx="0" cy="0" r="1" gradientUnits="userSpaceOnUse" gradientTransform="translate(387.73 531.672) rotate(140.405) scale(106.059 203.271)">
<stop stop-color="#3F1960"/>
<stop offset="1" stop-color="#10122A"/>
</radialGradient>
<radialGradient id="paint16_radial_1162_2608" cx="0" cy="0" r="1" gradientUnits="userSpaceOnUse" gradientTransform="translate(387.73 1199.71) rotate(140.405) scale(106.059 203.271)">
<stop stop-color="#3F1960"/>
<stop offset="1" stop-color="#10122A"/>
</radialGradient>
<linearGradient id="paint17_linear_1162_2608" x1="129.059" y1="1012.26" x2="241.138" y2="1012.26" gradientUnits="userSpaceOnUse">
<stop stop-color="#8A15D5"/>
<stop offset="0.994792" stop-color="#FB3FFF"/>
</linearGradient>
<clipPath id="clip0_1162_2608">
<rect width="393" height="1236" fill="white" transform="translate(-3)"/>
</clipPath>
</defs>
</svg>
