<svg width="30" height="30" viewBox="0 0 30 30" fill="none" xmlns="http://www.w3.org/2000/svg">
<path d="M27.1252 8C26.373 6.70073 25.4181 5.53333 24.3037 4.5412L23.2449 8H27.1252Z" fill="#351754" stroke="#2E164D" stroke-width="71"/>
<path d="M15 1C7.272 1 1 7.272 1 15C1 22.728 7.272 29 15 29C22.728 29 29 22.728 29 15C29 7.272 22.728 1 15 1ZM13.6 22V13.6H16.4V22H13.6ZM13.6 10.8V8H16.4V10.8H13.6Z" fill="white"/>
<path d="M15 1C7.272 1 1 7.272 1 15C1 22.728 7.272 29 15 29C22.728 29 29 22.728 29 15C29 7.272 22.728 1 15 1ZM13.6 22V13.6H16.4V22H13.6ZM13.6 10.8V8H16.4V10.8H13.6Z" stroke="#2F164D"/>
<circle cx="15" cy="15" r="13.5" stroke="#1F143B" stroke-width="3"/>
</svg>
