<?xml version="1.0" standalone="no"?>
<!DOCTYPE svg PUBLIC "-//W3C//DTD SVG 20010904//EN"
 "http://www.w3.org/TR/2001/REC-SVG-20010904/DTD/svg10.dtd">
<svg version="1.0" xmlns="http://www.w3.org/2000/svg"
 width="546.000000pt" height="546.000000pt" viewBox="0 0 546.000000 546.000000"
 preserveAspectRatio="xMidYMid meet">
<metadata>
Created by potrace 1.14, written by Peter Selinger 2001-2017
</metadata>
<g transform="translate(0.000000,546.000000) scale(0.100000,-0.100000)"
fill="#000000" stroke="none">
<path d="M3074 5348 c-17 -29 -93 -159 -169 -288 -76 -129 -147 -251 -157
-270 -11 -19 -29 -50 -40 -67 l-20 -33 49 -1 c135 -2 288 -53 417 -140 109
-74 204 -184 284 -331 17 -32 55 -99 85 -150 30 -51 66 -113 79 -138 14 -25
67 -117 118 -205 51 -88 106 -185 123 -215 16 -30 36 -62 43 -71 8 -8 14 -18
14 -21 0 -3 58 -107 128 -230 71 -122 140 -243 154 -268 14 -25 49 -85 78
-135 29 -49 62 -108 75 -130 93 -165 148 -260 150 -263 2 -3 66 103 74 123 2
6 12 21 21 35 9 14 28 45 42 70 14 25 62 108 108 185 428 726 581 988 620
1065 36 71 76 185 85 240 3 14 8 43 12 65 4 22 8 101 8 175 0 108 -5 154 -24
230 -49 199 -137 356 -281 502 -141 143 -289 229 -495 287 l-90 25 -730 3
-730 4 -31 -53z"/>
<path d="M859 4690 c-47 -10 -97 -23 -110 -31 -13 -7 -26 -12 -29 -11 -11 4
-80 -23 -149 -59 -201 -106 -361 -270 -460 -474 -85 -175 -111 -300 -106 -500
4 -163 35 -290 103 -425 26 -52 132 -239 236 -415 104 -176 196 -331 203 -345
8 -14 31 -53 51 -87 20 -34 75 -127 122 -207 l85 -146 393 0 c217 0 392 3 390
8 -2 4 -15 33 -31 65 -61 130 -78 203 -82 350 -2 111 19 223 60 322 16 36 118
214 233 405 25 41 50 84 56 95 16 28 228 385 352 592 57 95 104 175 104 178 0
3 15 29 34 58 18 28 100 165 181 302 81 138 156 264 166 281 11 17 19 35 19
40 0 5 -114 10 -253 11 -138 1 -529 4 -867 7 -568 4 -622 3 -701 -14z"/>
<path d="M4435 2315 c-110 -150 -282 -260 -478 -306 -62 -14 -288 -17 -1479
-20 l-876 -2 35 -66 c20 -36 39 -70 43 -76 4 -5 21 -36 39 -67 68 -125 96
-176 138 -246 24 -41 43 -75 43 -78 0 -2 20 -38 45 -80 25 -41 45 -77 45 -79
0 -2 42 -77 93 -167 51 -90 119 -210 152 -268 199 -353 218 -383 315 -480 73
-73 197 -170 218 -170 6 0 12 -3 14 -8 8 -19 204 -97 298 -118 85 -19 291 -26
378 -13 149 21 310 84 442 171 119 78 309 287 335 367 3 12 11 21 16 21 5 0 9
4 9 8 0 5 133 233 296 508 163 274 302 511 309 525 13 24 10 32 -31 105 -25
43 -58 102 -73 129 -26 45 -99 175 -204 360 -22 39 -45 80 -51 92 -6 13 -14
23 -17 23 -3 0 -27 -29 -54 -65z"/>
</g>
</svg>
