<svg width="44" height="43" viewBox="0 0 44 43" fill="none" xmlns="http://www.w3.org/2000/svg">
<path d="M12.704 27.2058L12.8563 27.4819H6.49755L1.10972 18.3054C0.372062 17.0009 -0.010504 15.5257 0.000219384 14.0271C0.0109428 12.5286 0.41458 11.059 1.17083 9.76518C1.92709 8.47136 3.0095 7.39855 4.31 6.65385C5.61051 5.90915 7.08361 5.51863 8.58224 5.52125L21.671 5.65452L12.7421 20.7328C12.1682 21.7135 11.8625 22.828 11.8558 23.9642C11.8491 25.1005 12.1417 26.2185 12.704 27.2058Z" fill="url(#paint0_linear_254_262)"/>
<path d="M42.8417 12.8318L36.1307 24.2547L27.9252 9.97604L27.3255 8.91942C26.7545 7.95468 25.945 7.15294 24.9748 6.59117C24.0046 6.02941 22.9063 5.72648 21.7854 5.71147H21.6426L24.9838 0H35.5024C36.9967 0.0158485 38.4608 0.422266 39.7494 1.1789C41.0381 1.93554 42.1064 3.01607 42.8483 4.31323C43.5902 5.61039 43.9799 7.07904 43.9788 8.57339C43.9776 10.0677 43.5856 11.5358 42.8417 12.8318Z" fill="url(#paint1_linear_254_262)"/>
<path d="M39.2996 29.8331L33.9974 38.7811C33.2373 40.0715 32.1521 41.1401 30.8501 41.8804C29.5482 42.6206 28.0749 43.0066 26.5772 42.9999C25.0795 42.9931 23.6097 42.5939 22.3145 41.842C21.0192 41.09 19.9437 40.0117 19.1952 38.7144L12.8555 27.4723L30.523 27.4152C31.6553 27.4174 32.7685 27.1233 33.752 26.5622C34.7356 26.0011 35.5553 25.1926 36.1297 24.2168L39.2996 29.8331Z" fill="url(#paint2_linear_254_262)"/>
<defs>
<linearGradient id="paint0_linear_254_262" x1="-0.0706493" y1="21.5134" x2="44.041" y2="21.5134" gradientUnits="userSpaceOnUse">
<stop stop-color="#8A15D5"/>
<stop offset="1" stop-color="#FB3FFF"/>
</linearGradient>
<linearGradient id="paint1_linear_254_262" x1="-0.0705428" y1="21.5132" x2="44.0411" y2="21.5132" gradientUnits="userSpaceOnUse">
<stop stop-color="#8A15D5"/>
<stop offset="1" stop-color="#FB3FFF"/>
</linearGradient>
<linearGradient id="paint2_linear_254_262" x1="-0.0715013" y1="21.5134" x2="44.0401" y2="21.5134" gradientUnits="userSpaceOnUse">
<stop stop-color="#8A15D5"/>
<stop offset="1" stop-color="#FB3FFF"/>
</linearGradient>
</defs>
</svg>
