<svg width="230" height="43" viewBox="0 0 230 43" fill="none" xmlns="http://www.w3.org/2000/svg">
<path d="M12.704 27.2056L12.8563 27.4816H6.49755L1.10972 18.3052C0.372062 17.0007 -0.010504 15.5255 0.000219384 14.0269C0.0109428 12.5283 0.41458 11.0588 1.17083 9.76493C1.92709 8.47111 3.0095 7.3983 4.31 6.65361C5.61051 5.90891 7.08361 5.51838 8.58224 5.52101L21.671 5.65428L12.7421 20.7326C12.1682 21.7132 11.8625 22.8277 11.8558 23.964C11.8491 25.1002 12.1417 26.2182 12.704 27.2056Z" fill="#01FAD5"/>
<path d="M42.8417 12.8318L36.1307 24.2547L27.9252 9.97604L27.3255 8.91942C26.7545 7.95468 25.945 7.15294 24.9748 6.59117C24.0046 6.02941 22.9063 5.72648 21.7854 5.71147H21.6426L24.9838 0H35.5024C36.9967 0.0158485 38.4608 0.422266 39.7494 1.1789C41.0381 1.93554 42.1064 3.01607 42.8483 4.31323C43.5902 5.61039 43.9799 7.07904 43.9788 8.57339C43.9776 10.0677 43.5856 11.5358 42.8417 12.8318Z" fill="#8A15D5"/>
<path d="M39.2996 29.8331L33.9974 38.7811C33.2373 40.0715 32.1521 41.1401 30.8501 41.8804C29.5482 42.6206 28.0749 43.0066 26.5772 42.9999C25.0795 42.9931 23.6097 42.5939 22.3145 41.842C21.0192 41.09 19.9437 40.0117 19.1952 38.7144L12.8555 27.4723L30.523 27.4152C31.6553 27.4174 32.7685 27.1233 33.752 26.5622C34.7356 26.0011 35.5553 25.1926 36.1297 24.2168L39.2996 29.8331Z" fill="#1863FF"/>
<path d="M12.704 27.2056L12.8563 27.4816H6.49755L1.10972 18.3052C0.372062 17.0007 -0.010504 15.5255 0.000219384 14.0269C0.0109428 12.5283 0.41458 11.0588 1.17083 9.76493C1.92709 8.47111 3.0095 7.3983 4.31 6.65361C5.61051 5.90891 7.08361 5.51838 8.58224 5.52101L21.671 5.65428L12.7421 20.7326C12.1682 21.7132 11.8625 22.8277 11.8558 23.964C11.8491 25.1002 12.1417 26.2182 12.704 27.2056Z" fill="url(#paint0_linear_157_252)"/>
<path d="M42.8417 12.8318L36.1307 24.2547L27.9252 9.97604L27.3255 8.91942C26.7545 7.95468 25.945 7.15294 24.9748 6.59117C24.0046 6.02941 22.9063 5.72648 21.7854 5.71147H21.6426L24.9838 0H35.5024C36.9967 0.0158485 38.4608 0.422266 39.7494 1.1789C41.0381 1.93554 42.1064 3.01607 42.8483 4.31323C43.5902 5.61039 43.9799 7.07904 43.9788 8.57339C43.9776 10.0677 43.5856 11.5358 42.8417 12.8318Z" fill="url(#paint1_linear_157_252)"/>
<path d="M39.2996 29.8331L33.9974 38.7811C33.2373 40.0715 32.1521 41.1401 30.8501 41.8804C29.5482 42.6206 28.0749 43.0066 26.5772 42.9999C25.0795 42.9931 23.6097 42.5939 22.3145 41.842C21.0192 41.09 19.9437 40.0117 19.1952 38.7144L12.8555 27.4723L30.523 27.4152C31.6553 27.4174 32.7685 27.1233 33.752 26.5622C34.7356 26.0011 35.5553 25.1926 36.1297 24.2168L39.2996 29.8331Z" fill="url(#paint2_linear_157_252)"/>
<path d="M68.1811 24.7497H60.5658L59.3473 28.3575H54.1309L61.5177 7.93896H67.2768L74.6731 28.3575H69.3995L68.1811 24.7497ZM66.9055 20.9421L64.3734 13.4601L61.8699 20.9421H66.9055Z" fill="#131531"/>
<path d="M93.5217 24.5213H100.042V28.3289H88.5527V7.93896H93.5217V24.5213Z" fill="#131531"/>
<path d="M133.246 7.93896L126.002 28.3575H119.776L112.484 7.93896H117.787L122.889 23.398L127.972 7.97704L133.246 7.93896Z" fill="#131531"/>
<path d="M159.662 24.7497H152.046L150.828 28.3575H145.611L152.998 7.93896H158.767L166.154 28.3575H160.89L159.662 24.7497ZM158.386 20.9421L155.854 13.4601L153.35 20.9421H158.386Z" fill="#131531"/>
<path d="M190.446 28.3576L186.201 20.6471H185.011V28.3576H180.07V7.93908H188.419C189.839 7.89715 191.249 8.18383 192.54 8.77676C193.602 9.2732 194.488 10.0797 195.082 11.0899C195.649 12.0872 195.942 13.2172 195.929 14.3645C195.948 15.6692 195.544 16.9451 194.777 18.0008C193.938 19.1212 192.743 19.9233 191.389 20.2759L196.148 28.3576H190.446ZM185.011 17.1346H188.095C188.839 17.1852 189.574 16.9427 190.142 16.4587C190.381 16.2059 190.566 15.9062 190.683 15.5785C190.801 15.2509 190.85 14.9023 190.827 14.5549C190.845 14.2194 190.793 13.8839 190.675 13.5694C190.557 13.2549 190.376 12.9682 190.142 12.7272C189.572 12.2467 188.838 12.0075 188.095 12.0609H185.011V17.1346Z" fill="#131531"/>
<path d="M223.353 24.7497H215.738L214.519 28.3575H209.312L216.699 7.93896H222.468L229.855 28.3575H224.591L223.353 24.7497ZM222.078 20.9421L219.546 13.4601L217.042 20.9421H222.078Z" fill="#131531"/>
<defs>
<linearGradient id="paint0_linear_157_252" x1="-0.0706493" y1="21.5131" x2="44.041" y2="21.5131" gradientUnits="userSpaceOnUse">
<stop stop-color="#8A15D5"/>
<stop offset="1" stop-color="#FB3FFF"/>
</linearGradient>
<linearGradient id="paint1_linear_157_252" x1="-0.0705428" y1="21.5132" x2="44.0411" y2="21.5132" gradientUnits="userSpaceOnUse">
<stop stop-color="#8A15D5"/>
<stop offset="1" stop-color="#FB3FFF"/>
</linearGradient>
<linearGradient id="paint2_linear_157_252" x1="-0.0715013" y1="21.5134" x2="44.0401" y2="21.5134" gradientUnits="userSpaceOnUse">
<stop stop-color="#8A15D5"/>
<stop offset="1" stop-color="#FB3FFF"/>
</linearGradient>
</defs>
</svg>
