<?xml version="1.0" encoding="utf-8"?>
<!-- Generator: Adobe Illustrator 19.2.1, SVG Export Plug-In . SVG Version: 6.00 Build 0)  -->
<svg version="1.1" id="layer" xmlns="http://www.w3.org/2000/svg" xmlns:xlink="http://www.w3.org/1999/xlink" x="0px" y="0px"
	 viewBox="0 0 652 652" style="enable-background:new 0 0 652 652;" xml:space="preserve">
<style type="text/css">
	.st0{fill:#79F7D1;}
</style>
<rect x="114.9" y="71" class="st0" width="22.9" height="412.2"/>
<rect x="114.9" y="71" class="st0" width="22.9" height="114.5"/>
<rect x="160.7" y="71" class="st0" width="22.9" height="217.6"/>
<rect x="160.7" y="357.3" class="st0" width="22.9" height="126"/>
<rect x="206.5" y="71" class="st0" width="22.9" height="194.7"/>
<rect x="206.5" y="357.3" class="st0" width="22.9" height="126"/>
<rect x="252.3" y="71" class="st0" width="22.9" height="148.9"/>
<rect x="252.3" y="334.4" class="st0" width="22.9" height="148.9"/>
<rect x="114.9" y="334.4" class="st0" width="274.8" height="22.9"/>
<rect x="114.9" y="334.4" class="st0" width="114.5" height="22.9"/>
<rect x="114.9" y="288.6" class="st0" width="320.6" height="22.9"/>
<rect x="206.5" y="242.8" class="st0" width="320.6" height="22.9"/>
<rect x="252.3" y="197" class="st0" width="274.8" height="22.9"/>
<rect x="366.8" y="71" class="st0" width="22.9" height="148.9"/>
<rect x="412.6" y="71" class="st0" width="22.9" height="148.9"/>
<rect x="458.4" y="71" class="st0" width="22.9" height="148.9"/>
<rect x="504.2" y="71" class="st0" width="22.9" height="148.9"/>
<rect x="366.8" y="357.3" class="st0" width="22.9" height="126"/>
<rect x="412.6" y="311.5" class="st0" width="22.9" height="171.8"/>
<rect x="458.4" y="265.7" class="st0" width="22.9" height="217.6"/>
<rect x="504.2" y="197" class="st0" width="22.9" height="286.3"/>
<path class="st0" d="M385,556.9h-14.2v14H385V556.9z"/>
<path class="st0" d="M370.8,543h-14.2h-14.2v-14h-14.2v14v13.9v14h14.2v-14h14.2h14.2L385,543v-14h-14.2V543z"/>
<path class="st0" d="M285.5,529h-14.2h-14.2v14v13.9v14h14.2h14.2h14.2h14.2v-14h-14.2h-14.2h-14.2V543h14.2h14.2h14.2v-14h-14.2
	H285.5z"/>
<path class="st0" d="M214.4,529h-14.2h-14.2v14v14v14h14.2v-8.2h28.4v8.1h14.2v-14V543v-14h-14.2H214.4z M228.6,551.9h-28.4V543
	h14.2h14.2L228.6,551.9L228.6,551.9z"/>
<path class="st0" d="M157.6,543h-14.2h-14.2v-14h-14.2v14v13.9v14h14.2v-14h14.2h14.2v14h14.2v-14V543v-14h-14.2V543z"/>
<path class="st0" d="M456.1,529h-42.7v11h42.7V529z"/>
<path class="st0" d="M456.1,544.5h-42.7v10.9h42.7V544.5z"/>
<path class="st0" d="M413.4,529h-14.2v41.9h14.2V529z"/>
<path class="st0" d="M456.1,560h-42.7v11h42.7V560z"/>
<path class="st0" d="M527.1,556.9V543v-14h-14.2v14v4.6L484.4,529h-14.2v14v13.9v14h14.2v-14v-4.7l28.4,18.7h0.1h14.2V556.9z"/>
</svg>
