<svg width="201" height="55" viewBox="0 0 201 55" fill="none" xmlns="http://www.w3.org/2000/svg">
<rect width="201" height="55" fill="#0D1017"/>
<path d="M19.3895 34.0172C17.4119 34.0172 15.6292 33.5901 14.0508 32.7359C12.4632 31.8817 11.219 30.7026 10.3184 29.1892C9.43638 27.6572 9 25.921 9 23.999C9 22.0678 9.43638 20.3502 10.3184 18.8368C11.219 17.3234 12.4632 16.1443 14.0508 15.2901C15.6385 14.4359 17.4212 14.0088 19.3895 14.0088C21.3857 14.0088 23.1869 14.4359 24.7653 15.2901C26.353 16.1443 27.5785 17.3234 28.4606 18.8368C29.3612 20.3502 29.8161 22.0678 29.8161 23.999C29.8161 25.9303 29.3612 27.6572 28.4606 29.1984C27.5785 30.7118 26.353 31.891 24.7653 32.7452C23.1869 33.5994 21.395 34.0172 19.3895 34.0172ZM19.3895 30.1083C21.07 30.1083 22.4627 29.5513 23.5583 28.4278C24.6539 27.3044 25.2017 25.8281 25.2017 23.999C25.2017 22.17 24.6539 20.6937 23.5583 19.5703C22.4627 18.4468 21.07 17.8898 19.3895 17.8898C17.709 17.8898 16.3163 18.4468 15.2207 19.5703C14.1437 20.6937 13.6145 22.17 13.6145 23.999C13.6145 25.8281 14.153 27.3044 15.2207 28.4278C16.3163 29.542 17.709 30.1083 19.3895 30.1083Z" fill="white"/>
<path d="M44.4875 14.0088C46.3909 14.0088 48.0899 14.4266 49.5755 15.2529C51.0889 16.0793 52.268 17.2491 53.1222 18.7625C53.9764 20.2759 54.4035 22.0214 54.4035 23.999C54.4035 25.9767 53.9764 27.7315 53.1222 29.2727C52.268 30.7861 51.0889 31.956 49.5755 32.7823C48.0899 33.6086 46.3909 34.0264 44.4875 34.0264C42.4263 34.0264 40.6994 33.4879 39.3067 32.4109C38.8982 32.0952 38.2297 32.3645 38.2297 32.8752V40.3121C38.2297 40.6185 37.979 40.8692 37.6726 40.8692H34.2094C33.903 40.8692 33.6523 40.6185 33.6523 40.3121V14.7794C33.6523 14.473 33.903 14.2223 34.2094 14.2223H37.4498C37.7561 14.2223 38.0068 14.473 38.0068 14.7794V15.2158C38.0068 15.7357 38.7032 16.005 39.1117 15.68C39.6131 15.2808 40.1702 14.9465 40.7829 14.6959C41.9157 14.2409 43.1412 14.0088 44.4875 14.0088ZM43.9769 30.1083C45.6574 30.1083 47.0408 29.5513 48.1085 28.4278C49.2041 27.3044 49.7519 25.8281 49.7519 23.999C49.7519 22.17 49.2041 20.6937 48.1085 19.5703C47.0315 18.4468 45.6574 17.8898 43.9769 17.8898C42.8813 17.8898 41.8878 18.1497 41.0151 18.6604C40.133 19.1525 39.446 19.8581 38.926 20.7866C38.4061 21.715 38.1554 22.7828 38.1554 24.0083C38.1554 25.2246 38.4154 26.3016 38.926 27.2301C39.4367 28.1586 40.133 28.8735 41.0151 29.3934C41.8878 29.8576 42.872 30.1083 43.9769 30.1083Z" fill="white"/>
<path d="M78.0196 24.1012C78.0196 24.3147 78.0103 24.6025 77.9824 24.9461C77.9639 25.2339 77.7225 25.4567 77.4346 25.4567H63.2849C62.9321 25.4567 62.6721 25.7724 62.7742 26.1067C63.1178 27.2487 63.7584 28.1771 64.7054 28.892C65.8567 29.7184 67.268 30.1362 68.9485 30.1362C70.8797 30.1362 72.4952 29.5698 73.8136 28.4278C74.055 28.2143 74.4357 28.2236 74.6493 28.4742L76.3948 30.4797C76.5712 30.684 76.5805 30.9904 76.3948 31.1946C75.5684 32.0674 74.5657 32.7452 73.3773 33.2187C72.031 33.7572 70.5269 34.0264 68.8371 34.0264C66.6923 34.0264 64.7983 33.5994 63.1642 32.7452C61.5301 31.891 60.2581 30.7118 59.3575 29.1984C58.4754 27.6572 58.0391 25.9303 58.0391 23.999C58.0391 22.0957 58.4662 20.3873 59.3203 18.8739C60.2024 17.3327 61.4094 16.1443 62.9413 15.2901C64.4826 14.4359 66.2095 14.0088 68.1407 14.0088C70.0441 14.0088 71.7432 14.4359 73.2287 15.2901C74.7421 16.1164 75.912 17.3048 76.7383 18.8368C77.5925 20.3502 78.0196 22.105 78.0196 24.1012ZM68.1407 17.6669C66.6738 17.6669 65.4296 18.1033 64.4083 18.9853C63.5634 19.7096 62.9971 20.6473 62.7092 21.7893C62.6257 22.1236 62.8856 22.4207 63.2292 22.4207H73.0337C73.368 22.4207 73.6372 22.1236 73.5537 21.7893C73.2844 20.6566 72.7273 19.7188 71.8824 18.9761C70.8797 18.1033 69.6263 17.6669 68.1407 17.6669Z" fill="white"/>
<path d="M93.5092 14.0088C95.9696 14.0088 97.9472 14.733 99.4421 16.1721C100.928 17.6112 101.67 19.7467 101.67 22.5785V33.2187C101.67 33.5251 101.42 33.7758 101.113 33.7758H97.6501C97.3437 33.7758 97.0931 33.5251 97.0931 33.2187V23.1541C97.0931 21.4458 96.6938 20.1645 95.8861 19.3103C95.0783 18.4283 93.9363 17.9919 92.4507 17.9919C90.7702 17.9919 89.4332 18.5025 88.4584 19.5331C87.4835 20.5266 86.9914 21.9843 86.9914 23.8876V33.2094C86.9914 33.5158 86.7407 33.7665 86.4343 33.7665H82.9711C82.6647 33.7665 82.4141 33.5158 82.4141 33.2094V14.7794C82.4141 14.473 82.6647 14.2223 82.9711 14.2223H86.2115C86.5179 14.2223 86.7685 14.473 86.7685 14.7794V15.2158C86.7685 15.7357 87.4556 16.005 87.8734 15.6893C88.3934 15.2901 88.9783 14.9558 89.6282 14.6959C90.7795 14.2409 92.0701 14.0088 93.5092 14.0088Z" fill="white"/>
<path d="M144.246 14.0088C147.124 14.0088 149.324 14.7051 150.829 16.0978C152.37 17.4627 153.131 19.5331 153.131 22.3185V33.2187C153.131 33.5251 152.88 33.7758 152.574 33.7758H149.362C149.055 33.7758 148.814 33.5344 148.814 33.228C148.814 32.6802 147.997 32.3924 147.551 32.708C147.208 32.9587 146.818 33.1815 146.4 33.3672C145.378 33.8036 144.134 34.0264 142.667 34.0264C141.2 34.0264 139.919 33.785 138.824 33.293C137.728 32.7823 136.874 32.086 136.261 31.2039C135.676 30.3033 135.379 29.2913 135.379 28.1678C135.379 26.4131 136.029 25.0111 137.319 23.9619C138.638 22.8849 140.699 22.3557 143.503 22.3557H148.257C148.415 22.3557 148.554 22.2257 148.554 22.0586C148.554 20.6937 148.136 19.6446 147.31 18.9111C146.502 18.1776 145.295 17.8155 143.689 17.8155C142.593 17.8155 141.507 17.9826 140.43 18.3261C139.631 18.5861 138.916 18.9296 138.304 19.3474C138.016 19.5424 137.598 19.4682 137.44 19.1525L136.196 16.8406C136.066 16.5992 136.131 16.3021 136.354 16.1443C137.301 15.4943 138.406 14.993 139.668 14.6309C141.108 14.2131 142.63 14.0088 144.246 14.0088ZM143.614 30.6933C144.766 30.6933 145.778 30.4333 146.65 29.9226C147.523 29.4027 148.145 28.6785 148.517 27.75C148.545 27.685 148.554 27.6201 148.554 27.5551V25.9488C148.554 25.6424 148.303 25.3917 147.997 25.3917H143.837C141.2 25.3917 139.882 26.2552 139.882 27.9914C139.882 28.8178 140.216 29.477 140.866 29.9691C141.535 30.4519 142.445 30.6933 143.614 30.6933Z" fill="white"/>
<path d="M162.633 15.1789C162.633 15.736 163.46 16.0145 163.887 15.6617C165.14 14.6404 166.849 14.0926 169.03 14.009C169.337 13.9998 169.587 14.2504 169.587 14.5568V17.6858C169.587 18.0386 169.272 18.2985 168.919 18.2614C168.78 18.2521 168.65 18.2428 168.52 18.2428C166.737 18.2428 165.344 18.7628 164.351 19.8119C163.348 20.8332 162.847 22.3281 162.847 24.2778V33.2004C162.847 33.5068 162.596 33.7574 162.29 33.7574H158.827C158.52 33.7574 158.27 33.5068 158.27 33.2004V14.7797C158.27 14.4733 158.52 14.2226 158.827 14.2226H162.067C162.373 14.2226 162.624 14.4733 162.624 14.7797V15.1789H162.633Z" fill="white"/>
<path d="M192 24.1012C192 24.3147 191.991 24.6025 191.963 24.9461C191.944 25.2339 191.703 25.4567 191.415 25.4567H177.265C176.913 25.4567 176.653 25.7724 176.755 26.1067C177.098 27.2487 177.739 28.1771 178.686 28.892C179.828 29.7184 181.248 30.1362 182.929 30.1362C184.86 30.1362 186.476 29.5698 187.794 28.4278C188.036 28.2143 188.416 28.2236 188.63 28.4742L190.375 30.4797C190.552 30.684 190.561 30.9904 190.375 31.1946C189.549 32.0674 188.546 32.7452 187.358 33.2187C186.021 33.7572 184.507 34.0264 182.818 34.0264C180.673 34.0264 178.779 33.5994 177.145 32.7452C175.511 31.891 174.239 30.7118 173.338 29.1984C172.456 27.6572 172.02 25.9303 172.02 23.999C172.02 22.0957 172.447 20.3873 173.301 18.8739C174.183 17.3327 175.39 16.1443 176.922 15.2901C178.463 14.4359 180.19 14.0088 182.121 14.0088C184.025 14.0088 185.724 14.4359 187.209 15.2901C188.723 16.1164 189.892 17.3048 190.719 18.8368C191.573 20.3502 192 22.105 192 24.1012ZM182.121 17.6669C180.654 17.6669 179.41 18.1033 178.389 18.9853C177.544 19.7096 176.978 20.6473 176.69 21.7893C176.606 22.1236 176.866 22.4207 177.21 22.4207H187.005C187.339 22.4207 187.608 22.1236 187.525 21.7893C187.256 20.6566 186.699 19.7188 185.854 18.9761C184.851 18.1033 183.607 17.6669 182.121 17.6669Z" fill="white"/>
<path d="M126.016 14.2878C126.22 14.0093 126.433 14 126.73 14L130.138 14.0186C130.593 14.0186 131.085 14.4457 130.927 14.9006L118.244 33.2099C117.882 33.702 117.446 33.6556 117.149 33.6556L113.528 33.637C113.258 33.637 112.915 33.2006 113.203 32.7828L126.016 14.2878Z" fill="#1BE6E6"/>
<path d="M117.944 32.7549C118.185 33.3399 118.028 33.6648 117.768 33.6648H113.534C113.255 33.6648 113.014 33.4791 112.921 33.2099L104.435 14.9099C104.286 14.4549 104.611 14 105.048 14H108.678C108.957 14 109.198 14.1857 109.309 14.4549L117.944 32.7549Z" fill="white"/>
<path d="M129.156 32.7549C129.397 33.3399 129.239 33.6648 128.98 33.6648H124.504C124.244 33.6648 123.984 33.4791 123.892 33.2099L115.108 14.9099C114.95 14.4549 115.257 14 115.721 14H119.602C119.89 14 120.122 14.1857 120.215 14.4549L129.156 32.7549Z" fill="white"/>
<path d="M133.09 18.2802C133.415 19.0044 133.006 19.1901 132.737 19.1901H129.06C128.8 19.1901 128.364 19.0323 128.234 18.7352L126.117 14.9099C125.829 14.3435 126.052 14 126.507 14H130.137C130.425 14 130.815 14.1578 130.964 14.4549L133.09 18.2802Z" fill="white"/>
</svg>
