<?xml version="1.0" encoding="utf-8"?>
<!-- Generator: Adobe Illustrator 25.0.1, SVG Export Plug-In . SVG Version: 6.00 Build 0)  -->
<svg version="1.0" id="katman_1" xmlns="http://www.w3.org/2000/svg" xmlns:xlink="http://www.w3.org/1999/xlink" x="0px" y="0px"
	 viewBox="0 0 239.5 146" style="enable-background:new 0 0 239.5 146;" xml:space="preserve">
<style type="text/css">
	.st0{fill:#005CC7;}
</style>
<path class="st0" d="M29.9,81.2v5.1H35v-1.3h7.1v11.3C30.3,95.7,20.6,86,20,74.2h11.3v7L29.9,81.2z"/>
<path class="st0" d="M51.7,85.1v1.3h5.1v-5.1h-1.3v-7h11.3c-0.6,11.8-10.4,21.4-22.2,22.1V85.1H51.7z"/>
<path class="st0" d="M90.5,57.9c-3.8,0-7.1,1.4-9.4,3.9v-3.4h-4.6v36.1h4.6V81.5c2.4,2.5,5.7,3.9,9.4,3.9c7.7,0,13.7-6,13.7-13.7
	C104.2,63.9,98.2,57.9,90.5,57.9z M90.4,62.4c5.1,0,9.3,4,9.3,9.2c0,5.2-4,9.2-9.3,9.2c-5.1,0-9.3-4-9.3-9.2
	C81.2,66.4,85.2,62.4,90.4,62.4z"/>
<path class="st0" d="M130.4,61.7c-2.4-2.5-5.7-3.8-9.4-3.8c-7.7,0-13.7,6-13.7,13.7s6.1,13.7,13.7,13.7c3.7,0,7-1.4,9.4-3.8v3.3h4.7
	V58.3h-4.7V61.7z M121.2,80.8c-5.1,0-9.3-4-9.3-9.2c0-5.2,4-9.2,9.3-9.2c5.1,0,9.2,4,9.2,9.2C130.4,76.8,126.4,80.8,121.2,80.8z"/>
<path class="st0" d="M154.2,58.1h-1.1c-2.9,0-5.3,0.9-7.1,2.7v-2.3h-4.6v26.4h4.6V70.3c0-7.1,5.4-7.7,7.1-7.7h1.1V58.1z"/>
<path class="st0" d="M168.3,69.5c-3.6-0.9-5.7-1.6-5.7-3.7c0-2.4,2.4-3.5,4.8-3.5c2.5,0,4.5,1.1,5.2,3l0.5,1.2l3.9-2.3l-0.4-0.9
	c-1.6-3.5-5-5.5-9.3-5.5c-5.4,0-9.4,3.4-9.4,8c0,5.5,5,6.8,9,7.9c3.6,0.9,5.8,1.6,5.8,3.8c0,2.6-2.7,3.5-5.2,3.5
	c-3.1,0-5.4-1.3-6.1-3.6l-0.5-1.3l-4,2.4l0.3,0.8c1.5,3.8,5.2,6.1,10.3,6.1c5.8,0,9.8-3.3,9.8-8C177.3,71.8,172.2,70.5,168.3,69.5z"
	/>
<path class="st0" d="M187.4,58.4h-4.6v26.4h4.6V58.4z"/>
<path class="st0" d="M215.4,58.4v3.4c-2.4-2.5-5.7-3.9-9.4-3.9c-7.7,0-13.7,6-13.7,13.7s6.1,13.7,13.7,13.7c3.8,0,7.1-1.4,9.4-3.9
	v13.1h4.6V58.3L215.4,58.4L215.4,58.4z M206.2,80.8c-5.1,0-9.3-4-9.3-9.2c0-5.2,4-9.2,9.3-9.2c5.2,0,9.3,4,9.3,9.2
	C215.4,76.8,211.4,80.8,206.2,80.8z"/>
<path class="st0" d="M188.4,49h-6.4v6.4h6.4V49z"/>
<path class="st0" d="M42.1,61h9.7v-1.6H57v5.7h-5.1v-1.6h-9.7v10.6l11,0.1v7h-1.3v1.3H35v-1.3h-1.2V64.6h1.3v-5.1H30v5.1h1.3v7H20
	c0.6-11.8,10.4-21.4,22.1-22.1V61z"/>
</svg>
