<svg width="299" height="241" viewBox="0 0 299 241" fill="none" xmlns="http://www.w3.org/2000/svg">
<g clip-path="url(#clip0_4_1033)">
<path d="M127.439 151.122H108.68C107.2 151.122 106 152.356 106 153.878V163.526C106 165.048 107.2 166.282 108.68 166.282H127.439C128.919 166.282 130.119 165.048 130.119 163.526V153.878C130.119 152.356 128.919 151.122 127.439 151.122Z" stroke="white" stroke-width="1.37824" stroke-linecap="round" stroke-linejoin="round"/>
<path d="M110.824 151.122V145.609C110.824 143.781 111.55 142.029 112.842 140.736C114.135 139.444 115.887 138.718 117.715 138.718C119.543 138.718 121.296 139.444 122.588 140.736C123.88 142.029 124.606 143.781 124.606 145.609V151.122" stroke="white" stroke-width="1.37824" stroke-linecap="round" stroke-linejoin="round"/>
<path opacity="0.7" d="M153.272 157.674C153.272 158.581 153.05 159.45 152.606 160.279C152.163 161.09 151.497 161.765 150.609 162.305C149.722 162.846 148.641 163.145 147.368 163.203V165.518H146.094V163.174C144.377 163.019 142.988 162.46 141.926 161.495C140.865 160.511 140.296 159.295 140.219 157.848H142.39C142.467 158.716 142.814 159.508 143.432 160.221C144.068 160.916 144.956 161.341 146.094 161.495V153.478C144.801 153.13 143.76 152.783 142.968 152.436C142.197 152.088 141.541 151.558 141 150.844C140.46 150.111 140.19 149.136 140.19 147.921C140.19 146.396 140.721 145.142 141.782 144.158C142.843 143.155 144.281 142.614 146.094 142.537V140.106H147.368V142.566C148.969 142.721 150.252 143.242 151.217 144.129C152.182 145.017 152.751 146.126 152.925 147.458H150.783C150.667 146.744 150.31 146.078 149.712 145.461C149.133 144.843 148.352 144.457 147.368 144.303V152.031C148.622 152.359 149.645 152.706 150.436 153.073C151.246 153.42 151.921 153.96 152.462 154.693C153.002 155.427 153.272 156.42 153.272 157.674ZM142.245 147.834C142.245 148.914 142.573 149.734 143.229 150.294C143.904 150.834 144.859 151.288 146.094 151.654V144.216C144.937 144.274 144.001 144.612 143.287 145.229C142.592 145.846 142.245 146.715 142.245 147.834ZM147.368 161.553C148.603 161.476 149.558 161.09 150.233 160.395C150.908 159.681 151.246 158.803 151.246 157.761C151.246 156.661 150.908 155.832 150.233 155.272C149.577 154.713 148.622 154.24 147.368 153.854V161.553ZM157.517 147.544C157.653 145.789 158.328 144.409 159.544 143.406C160.778 142.383 162.37 141.872 164.319 141.872C165.612 141.872 166.721 142.103 167.648 142.566C168.574 143.029 169.268 143.666 169.731 144.476C170.214 145.268 170.455 146.165 170.455 147.168C170.455 148.384 170.098 149.435 169.384 150.323C168.67 151.211 167.657 151.76 166.345 151.973V152.117C167.715 152.388 168.805 152.986 169.616 153.912C170.426 154.819 170.831 156.015 170.831 157.501C170.831 159.16 170.272 160.521 169.153 161.582C168.053 162.624 166.451 163.145 164.348 163.145C162.341 163.145 160.692 162.624 159.399 161.582C158.106 160.521 157.363 159.025 157.17 157.096H159.138C159.312 158.388 159.852 159.44 160.759 160.25C161.666 161.042 162.862 161.437 164.348 161.437C165.814 161.437 166.934 161.051 167.705 160.279C168.497 159.508 168.892 158.523 168.892 157.327C168.892 154.394 166.779 152.928 162.554 152.928H161.917V151.22H162.583C166.519 151.22 168.487 149.937 168.487 147.371C168.487 146.252 168.12 145.354 167.387 144.679C166.654 143.984 165.612 143.637 164.261 143.637C162.949 143.637 161.859 143.984 160.991 144.679C160.142 145.354 159.64 146.31 159.486 147.544H157.517ZM174.13 161.408C177.68 158.745 180.42 156.362 182.349 154.259C184.298 152.137 185.273 150.062 185.273 148.036C185.273 146.705 184.935 145.644 184.26 144.853C183.604 144.042 182.523 143.637 181.018 143.637C179.552 143.637 178.413 144.1 177.603 145.026C176.812 145.933 176.368 147.149 176.271 148.673H174.303C174.419 146.531 175.075 144.872 176.271 143.695C177.487 142.499 179.069 141.901 181.018 141.901C182.89 141.901 184.404 142.431 185.562 143.492C186.72 144.534 187.299 146.02 187.299 147.95C187.299 150.284 186.324 152.552 184.375 154.751C182.446 156.932 180.063 159.064 177.227 161.148H187.935V162.855H174.13V161.408ZM191.011 147.544C191.146 145.789 191.822 144.409 193.037 143.406C194.272 142.383 195.864 141.872 197.813 141.872C199.106 141.872 200.215 142.103 201.141 142.566C202.067 143.029 202.762 143.666 203.225 144.476C203.707 145.268 203.949 146.165 203.949 147.168C203.949 148.384 203.592 149.435 202.878 150.323C202.164 151.211 201.151 151.76 199.839 151.973V152.117C201.209 152.388 202.299 152.986 203.109 153.912C203.92 154.819 204.325 156.015 204.325 157.501C204.325 159.16 203.765 160.521 202.646 161.582C201.546 162.624 199.945 163.145 197.842 163.145C195.835 163.145 194.185 162.624 192.892 161.582C191.6 160.521 190.857 159.025 190.664 157.096H192.632C192.806 158.388 193.346 159.44 194.253 160.25C195.16 161.042 196.356 161.437 197.842 161.437C199.308 161.437 200.427 161.051 201.199 160.279C201.99 159.508 202.386 158.523 202.386 157.327C202.386 154.394 200.273 152.928 196.047 152.928H195.41V151.22H196.076C200.012 151.22 201.981 149.937 201.981 147.371C201.981 146.252 201.614 145.354 200.881 144.679C200.147 143.984 199.106 143.637 197.755 143.637C196.443 143.637 195.353 143.984 194.484 144.679C193.635 145.354 193.134 146.31 192.979 147.544H191.011ZM208.81 163.145C208.385 163.145 208.028 163 207.739 162.711C207.469 162.421 207.334 162.064 207.334 161.64C207.334 161.215 207.469 160.868 207.739 160.598C208.028 160.308 208.385 160.164 208.81 160.164C209.215 160.164 209.553 160.308 209.823 160.598C210.112 160.868 210.257 161.215 210.257 161.64C210.257 162.064 210.112 162.421 209.823 162.711C209.553 163 209.215 163.145 208.81 163.145ZM213.199 147.544C213.334 145.789 214.009 144.409 215.225 143.406C216.46 142.383 218.052 141.872 220 141.872C221.293 141.872 222.403 142.103 223.329 142.566C224.255 143.029 224.95 143.666 225.413 144.476C225.895 145.268 226.136 146.165 226.136 147.168C226.136 148.384 225.779 149.435 225.066 150.323C224.352 151.211 223.339 151.76 222.026 151.973V152.117C223.396 152.388 224.487 152.986 225.297 153.912C226.107 154.819 226.513 156.015 226.513 157.501C226.513 159.16 225.953 160.521 224.834 161.582C223.734 162.624 222.133 163.145 220.029 163.145C218.023 163.145 216.373 162.624 215.08 161.582C213.787 160.521 213.045 159.025 212.852 157.096H214.82C214.993 158.388 215.534 159.44 216.44 160.25C217.347 161.042 218.544 161.437 220.029 161.437C221.496 161.437 222.615 161.051 223.387 160.279C224.178 159.508 224.573 158.523 224.573 157.327C224.573 154.394 222.461 152.928 218.235 152.928H217.598V151.22H218.264C222.2 151.22 224.168 149.937 224.168 147.371C224.168 146.252 223.802 145.354 223.068 144.679C222.335 143.984 221.293 143.637 219.943 143.637C218.631 143.637 217.54 143.984 216.672 144.679C215.823 145.354 215.321 146.31 215.167 147.544H213.199ZM241.446 163L232.676 153.651V163H230.65V142.769H232.676V152.233L241.446 142.769H244.022L234.558 152.87L244.109 163H241.446Z" fill="white"/>
<g filter="url(#filter0_d_4_1033)">
<path d="M175.5 12C193.951 12 212.221 15.6341 229.267 22.6949C246.313 29.7557 261.802 40.1049 274.849 53.1515C287.895 66.1981 298.244 81.6867 305.305 98.733C312.366 115.779 316 134.049 316 152.5L301.95 152.5C301.95 135.894 298.679 119.451 292.325 104.11C285.97 88.7681 276.656 74.8283 264.914 63.0864C253.172 51.3444 239.232 42.0301 223.89 35.6754C208.549 29.3207 192.106 26.05 175.5 26.05L175.5 12Z" fill="#14B8A6" stroke="#0D0F23" stroke-width="6"/>
<path d="M274.849 251.849C266.166 260.531 256.383 268.037 245.75 274.177L238.725 262.009C248.295 256.484 257.1 249.728 264.914 241.914L274.849 251.849Z" fill="#6366F1" stroke="#0D0F23" stroke-width="6"/>
<path d="M105.25 274.177C89.2712 264.951 75.2659 252.669 64.0338 238.031C52.8018 223.393 44.5628 206.686 39.7874 188.864C35.012 171.042 33.7937 152.454 36.202 134.161C38.6103 115.868 44.5981 98.2288 53.8234 82.25L65.9911 89.275C57.6883 103.656 52.2993 119.531 50.1318 135.995C47.9643 152.459 49.0608 169.188 53.3587 185.228C57.6565 201.267 65.0716 216.304 75.1805 229.478C85.2893 242.652 97.8941 253.706 112.275 262.009L105.25 274.177Z" fill="#EC4899" stroke="#0D0F23" stroke-width="6"/>
<path d="M53.8234 82.25C66.1549 60.8913 83.8913 43.1549 105.25 30.8234L112.275 42.9911C93.0522 54.0894 77.0894 70.0522 65.9911 89.275L53.8234 82.25Z" fill="#F59E0B" stroke="#0D0F23" stroke-width="6"/>
<path d="M105.25 30.8234C126.609 18.492 150.837 12 175.5 12L175.5 26.05C153.303 26.05 131.498 31.8928 112.275 42.9911L105.25 30.8234Z" fill="#FACC15" stroke="#0D0F23" stroke-width="6"/>
<path d="M316 152.5C316 170.951 312.366 189.221 305.305 206.267C298.244 223.313 287.895 238.802 274.849 251.849L264.914 241.914C276.656 230.172 285.97 216.232 292.325 200.89C298.679 185.549 301.95 169.106 301.95 152.5H316Z" fill="#3B82F6" stroke="#0D0F23" stroke-width="6"/>
</g>
</g>
<defs>
<filter id="filter0_d_4_1033" x="28" y="9" width="295" height="295" filterUnits="userSpaceOnUse" color-interpolation-filters="sRGB">
<feFlood flood-opacity="0" result="BackgroundImageFix"/>
<feColorMatrix in="SourceAlpha" type="matrix" values="0 0 0 0 0 0 0 0 0 0 0 0 0 0 0 0 0 0 127 0" result="hardAlpha"/>
<feOffset dy="4"/>
<feGaussianBlur stdDeviation="2"/>
<feComposite in2="hardAlpha" operator="out"/>
<feColorMatrix type="matrix" values="0 0 0 0 0 0 0 0 0 0 0 0 0 0 0 0 0 0 0.25 0"/>
<feBlend mode="normal" in2="BackgroundImageFix" result="effect1_dropShadow_4_1033"/>
<feBlend mode="normal" in="SourceGraphic" in2="effect1_dropShadow_4_1033" result="shape"/>
</filter>
<clipPath id="clip0_4_1033">
<rect width="299" height="241" fill="white"/>
</clipPath>
</defs>
</svg>
