<svg width="353" height="305" viewBox="0 0 353 305" fill="none" xmlns="http://www.w3.org/2000/svg">
<g opacity="0.83">
<path d="M142.462 178.119L108.352 119.037L142.39 60L210.536 60.0409L244.647 119.122L210.611 178.163L142.462 178.119Z" fill="url(#paint0_linear_788_855)"/>
<path d="M142.462 178.119L108.352 119.037L142.39 60L210.536 60.0409L244.647 119.122L210.611 178.163L142.462 178.119Z" stroke="url(#paint1_linear_788_855)"/>
</g>
<path d="M201.645 128.894C189.609 129.111 177.567 129.249 165.525 129.438C163.871 129.461 162.841 128.642 162.251 127.206C160.729 123.531 160.786 119.851 162.188 116.142C163.058 113.841 165.067 113.716 167.225 113.693C165.634 111.821 163.974 111.523 162.411 112.994C161.415 113.922 160.586 115.198 160.11 116.474C158.92 119.668 158.966 122.999 159.853 126.261C160.975 130.382 162.543 131.275 167.625 130.977C165.805 132.74 163.733 132.826 161.679 131.326C160.648 130.577 159.458 130.05 158.462 129.266C157.918 128.842 157.455 128.156 157.226 127.492C155.961 123.794 155.938 120.034 157.06 116.314C157.277 115.587 158.17 115.032 158.811 114.471C159.286 114.053 159.933 113.824 160.374 113.384C163.447 110.276 164.97 110.127 169.033 112.817C169.628 111.941 170.229 111.06 170.808 110.213C168.026 107.013 163.985 106.349 160.505 108.416C160.019 108.702 159.567 109.057 159.137 109.423C152.739 114.809 152.807 128.722 159.246 134.062C163.018 137.193 168.066 136.735 171.431 132.94C172.095 132.196 172.679 131.389 173.303 130.611C173.469 130.714 173.635 130.817 173.807 130.92C173.601 131.47 173.492 132.082 173.177 132.557C168.97 138.956 160.437 138.795 156.104 132.259C155.309 131.063 155.045 129.375 153.082 129.214C152.756 129.186 152.298 128.144 152.258 127.549C152.046 124.172 151.829 120.784 151.874 117.401C151.892 116.114 152.029 114.477 154.055 114.271C154.433 114.231 154.788 113.481 155.062 113.006C159.361 105.628 163.928 104.375 171.666 108.582C172.004 108.198 172.399 107.82 172.708 107.38C173.017 106.928 173.24 106.412 173.486 105.955C168.129 100.821 159.406 101.445 154.439 107.214C148.086 114.597 147.943 128.213 154.141 135.785C160.563 143.637 172.055 142.344 177.16 133.192C177.647 132.328 178.111 131.452 178.586 130.582C178.78 130.663 178.975 130.737 179.169 130.817C179.049 131.366 179.038 131.967 178.792 132.454C175.999 138.126 171.752 141.84 165.141 141.995C158.542 142.149 153.918 138.83 151.102 133.118C147.502 125.815 147.479 118.266 150.781 110.865C154.828 101.776 165.141 98.1421 173.606 104.152C175.999 103.928 177.744 103.642 179.49 103.637C182.048 103.631 184.607 103.797 187.159 103.946C189.712 104.1 190.965 105.119 190.914 106.899C190.868 108.593 189.758 109.434 187.297 109.623C184.979 109.801 182.661 109.972 180.343 110.15C180.32 110.362 180.303 110.573 180.28 110.785C180.932 110.928 181.585 111.209 182.231 111.186C184.315 111.117 186.398 110.985 188.47 110.768C189.191 110.694 190.187 110.493 190.53 109.995C192.396 107.242 195.109 107.969 198.377 107.941C195.332 112.119 192.574 115.908 189.7 119.857C191.045 119.988 192.688 120.137 194.325 120.315C196.013 120.498 197.748 120.526 199.379 120.944C201.731 121.534 203.368 123.09 204.043 125.477C204.656 127.658 203.889 128.854 201.645 128.894Z" fill="white"/>
<path d="M200.239 103.299C200.239 104.346 199.826 105.302 199.157 106.006H193.027L191.516 105.76C191.281 104.942 190.841 104.186 190.228 103.574C189.427 102.772 188.414 102.274 187.321 102.137C187.109 102.108 186.88 102.091 186.64 102.091H179.205C179.4 101.485 179.737 100.941 180.184 100.5C180.899 99.7791 181.889 99.3326 182.983 99.3326H196.272C196.604 99.3326 196.925 99.3727 197.228 99.4528C198.951 99.8821 200.239 101.45 200.239 103.299Z" fill="white"/>
<path d="M219.332 98.9663C219.332 100.014 218.92 100.97 218.251 101.673H212.121L210.61 101.427C210.375 100.609 209.935 99.8534 209.322 99.241C208.521 98.4398 207.508 97.9418 206.415 97.8045C206.203 97.7759 205.974 97.7587 205.734 97.7587H198.299C198.493 97.152 198.831 96.6083 199.278 96.1676C199.993 95.4464 200.983 95 202.076 95H215.366C215.698 95 216.018 95.0401 216.322 95.1202C218.045 95.5494 219.332 97.1177 219.332 98.9663Z" fill="white"/>
<path d="M197.713 99.0294C199.894 99.0294 201.679 100.815 201.679 102.996C201.679 103.98 201.313 104.89 200.706 105.583C200.643 105.657 200.58 105.726 200.512 105.794C200.014 106.298 199.378 106.664 198.669 106.842H204.1C205.193 106.842 206.184 106.395 206.899 105.674C207.62 104.959 208.067 103.969 208.067 102.875C208.067 100.695 206.281 98.9092 204.1 98.9092L197.713 99.0294Z" fill="white"/>
<path opacity="0.83" d="M210.033 303.162L143.04 303.119L109.506 245.037L142.967 187L209.959 187.041L243.492 245.123L210.033 303.162Z" stroke="url(#paint2_linear_788_855)" stroke-width="2"/>
<path opacity="0.83" d="M318.033 117.162L251.04 117.119L217.506 59.0369L250.967 1.00035L317.959 1.04051L351.492 59.1226L318.033 117.162Z" stroke="url(#paint3_linear_788_855)" stroke-width="2"/>
<path opacity="0.83" d="M102.033 118.162L35.0398 118.119L1.50606 60.0369L34.9671 2.00035L101.959 2.04051L135.492 60.1226L102.033 118.162Z" stroke="url(#paint4_linear_788_855)" stroke-width="2"/>
<defs>
<linearGradient id="paint0_linear_788_855" x1="108.352" y1="120.24" x2="244.647" y2="120.24" gradientUnits="userSpaceOnUse">
<stop stop-color="#8A15D5"/>
<stop offset="0.994792" stop-color="#FB3FFF"/>
</linearGradient>
<linearGradient id="paint1_linear_788_855" x1="243.743" y1="118.905" x2="108.978" y2="118.905" gradientUnits="userSpaceOnUse">
<stop stop-color="#8A15D5" stop-opacity="0.07"/>
<stop offset="0.994792" stop-color="#FB3FFF"/>
</linearGradient>
<linearGradient id="paint2_linear_788_855" x1="108.352" y1="246.24" x2="244.647" y2="246.24" gradientUnits="userSpaceOnUse">
<stop stop-color="#8A15D5" stop-opacity="0"/>
<stop offset="0.994792" stop-color="#FB3FFF"/>
</linearGradient>
<linearGradient id="paint3_linear_788_855" x1="216.352" y1="60.2398" x2="352.647" y2="60.2398" gradientUnits="userSpaceOnUse">
<stop stop-color="#8A15D5" stop-opacity="0"/>
<stop offset="0.994792" stop-color="#FB3FFF"/>
</linearGradient>
<linearGradient id="paint4_linear_788_855" x1="0.351562" y1="61.2398" x2="136.647" y2="61.2398" gradientUnits="userSpaceOnUse">
<stop stop-color="#8A15D5" stop-opacity="0"/>
<stop offset="0.994792" stop-color="#FB3FFF"/>
</linearGradient>
</defs>
</svg>
