<svg width="353" height="305" viewBox="0 0 353 305" fill="none" xmlns="http://www.w3.org/2000/svg">
<g opacity="0.83">
<path d="M142.462 179.119L108.352 120.037L142.39 61L210.536 61.0409L244.647 120.122L210.611 179.163L142.462 179.119Z" fill="url(#paint0_linear_788_742)"/>
<path d="M142.462 179.119L108.352 120.037L142.39 61L210.536 61.0409L244.647 120.122L210.611 179.163L142.462 179.119Z" stroke="url(#paint1_linear_788_742)"/>
</g>
<path d="M185.171 117.295C183.913 116.165 182.64 115.049 181.346 113.959C181.118 113.766 180.761 113.653 180.459 113.644C179.268 113.609 178.075 113.629 176.882 113.629C175.643 113.629 174.405 113.615 173.164 113.642C172.904 113.648 172.591 113.739 172.398 113.904C170.914 115.177 169.377 116.4 168.003 117.784C164.447 121.367 163.364 125.648 164.9 130.462C166.55 135.627 171.27 138.832 176.938 138.825C182.256 138.819 186.769 135.776 188.617 130.951C190.466 126.121 189.145 120.86 185.171 117.295ZM178.002 131.989V134.199H175.689V131.981H172.304V128.554H174.514C174.533 128.889 174.554 129.233 174.579 129.647C175.773 129.647 176.959 129.693 178.138 129.628C178.754 129.596 179.103 129.135 179.117 128.502C179.13 127.908 178.675 127.422 178.039 127.386C177.373 127.35 176.704 127.375 176.037 127.373C173.919 127.367 172.384 126.063 172.268 124.169C172.149 122.267 173.432 120.812 175.5 120.499C175.544 120.493 175.586 120.472 175.674 120.441V118.268H177.964V120.472H181.361V123.888H179.157C179.142 123.557 179.124 123.232 179.103 122.825C177.882 122.825 176.653 122.768 175.433 122.85C174.864 122.888 174.531 123.385 174.563 123.985C174.598 124.614 174.978 125.014 175.601 125.062C176.265 125.115 176.934 125.081 177.601 125.083C179.744 125.086 181.265 126.352 181.409 128.248C181.552 130.183 180.231 131.66 178.002 131.989Z" fill="white"/>
<path d="M207.592 117.006H203.119C200.606 104.319 193.032 96.7398 180.314 94.1955V89.7378C194.089 91.0549 206.119 102.622 207.592 117.006Z" fill="white"/>
<path d="M207.552 123.966C206.493 137.129 195.083 149.828 180.314 151.261V146.8C193.036 144.261 200.604 136.676 203.125 123.966H207.552Z" fill="white"/>
<path d="M173.381 146.691V151.208C160.988 150.332 147.673 139.467 146.086 123.993H150.662C151.509 129.873 153.975 134.978 158.196 139.191C162.397 143.387 167.486 145.836 173.381 146.691Z" fill="white"/>
<path d="M183.31 102.977C183.266 103.184 183.245 103.363 183.188 103.533C182.389 105.95 181.57 108.36 180.792 110.784C180.647 111.235 180.429 111.354 179.98 111.348C177.86 111.327 175.74 111.348 173.62 111.325C173.393 111.323 173.026 111.182 172.961 111.012C172.078 108.756 171.237 106.485 170.352 104.13C171.21 103.914 171.961 103.688 172.73 103.553C172.944 103.514 173.261 103.675 173.433 103.845C174.593 104.975 175.725 106.133 176.929 107.347C177.099 107.141 177.25 106.974 177.384 106.795C178.372 105.481 179.378 104.18 180.33 102.842C180.63 102.417 180.921 102.323 181.391 102.473C182.001 102.666 182.628 102.801 183.31 102.977Z" fill="white"/>
<path d="M212.325 88.4055C212.334 89.9882 211.273 91.355 209.723 91.7545C208.192 92.1483 206.707 91.4639 205.854 90.0188C205.73 89.8124 205.407 89.7225 205.174 89.5811C205.156 89.5696 205.128 89.5791 205.103 89.5791C203.864 89.5849 202.494 89.2637 201.423 89.6938C200.383 90.1125 199.647 91.2957 198.789 92.1521C198.181 92.7581 197.588 93.3793 196.942 94.0426C196.268 93.5647 195.669 93.1404 195.012 92.674C196.776 90.9115 198.502 89.1758 200.249 87.4631C200.391 87.3254 200.681 87.2987 200.903 87.2948C202.31 87.2815 203.715 87.2776 205.122 87.2967C205.497 87.3006 205.699 87.2012 205.888 86.8456C206.68 85.3737 208.2 84.7142 209.74 85.1157C211.258 85.5114 212.313 86.8552 212.325 88.4055Z" fill="white"/>
<path d="M158.661 148.321C156.894 150.09 155.168 151.829 153.421 153.544C153.282 153.681 152.989 153.704 152.765 153.706C151.36 153.72 149.954 153.725 148.547 153.704C148.166 153.699 147.971 153.813 147.784 154.163C146.996 155.627 145.467 156.287 143.925 155.883C142.409 155.484 141.359 154.136 141.352 152.584C141.346 151.028 142.386 149.669 143.894 149.26C145.433 148.843 146.995 149.497 147.767 150.944C147.969 151.323 148.182 151.441 148.585 151.431C149.632 151.407 150.684 151.454 151.731 151.405C152.068 151.387 152.473 151.235 152.71 151.003C154.062 149.694 155.373 148.34 156.743 146.955C157.42 147.438 158.018 147.861 158.661 148.321Z" fill="white"/>
<path d="M173.354 89.665V94.3044C172.607 94.442 171.863 94.5777 171.049 94.7288C170.755 93.2358 170.466 91.7773 170.158 90.227C171.29 90.0282 172.292 89.8524 173.354 89.665Z" fill="white"/>
<path d="M151.07 114.699C150.923 115.523 150.789 116.268 150.651 117.037H146.02C146.201 115.978 146.375 114.963 146.57 113.823C148.078 114.116 149.531 114.399 151.07 114.699Z" fill="white"/>
<path d="M168.831 95.3176C168.114 95.5852 167.431 95.8414 166.655 96.1319C166.076 94.7403 165.506 93.3697 164.902 91.9169C165.917 91.5384 166.887 91.1772 167.923 90.791C168.234 92.3451 168.529 93.8075 168.831 95.3176Z" fill="white"/>
<path d="M152.466 110.296C152.201 111.032 151.946 111.734 151.675 112.485C150.18 112.185 148.72 111.893 147.148 111.579C147.523 110.556 147.879 109.589 148.259 108.555C149.683 109.146 151.037 109.706 152.466 110.296Z" fill="white"/>
<path d="M164.576 97.1125C163.88 97.512 163.269 97.8656 162.601 98.2498C161.766 97.0035 160.952 95.7858 160.078 94.4822C160.98 93.9488 161.858 93.4289 162.81 92.865C163.416 94.3216 163.985 95.6922 164.576 97.1125Z" fill="white"/>
<path d="M154.6 106.255C154.208 106.928 153.854 107.538 153.457 108.222C152.065 107.645 150.679 107.072 149.217 106.466C149.769 105.519 150.282 104.648 150.823 103.724C152.107 104.586 153.338 105.41 154.6 106.255Z" fill="white"/>
<path d="M160.722 99.571C160.141 100.064 159.587 100.534 159.077 100.97C158 99.8922 156.945 98.837 155.861 97.7512C156.588 97.1376 157.349 96.4972 158.192 95.7861C159.063 97.0898 159.878 98.3056 160.722 99.571Z" fill="white"/>
<path d="M157.394 102.623C156.896 103.218 156.436 103.772 155.929 104.378C154.671 103.539 153.438 102.717 152.137 101.849C152.831 101.022 153.481 100.249 154.142 99.4617C154.281 99.5802 154.377 99.6528 154.459 99.735C155.425 100.683 156.388 101.633 157.394 102.623Z" fill="white"/>
<path opacity="0.83" d="M210.033 303.162L143.04 303.119L109.506 245.037L142.967 187L209.959 187.041L243.492 245.123L210.033 303.162Z" stroke="url(#paint2_linear_788_742)" stroke-width="2"/>
<path opacity="0.83" d="M318.033 117.162L251.04 117.119L217.506 59.0369L250.967 1.00035L317.959 1.04051L351.492 59.1226L318.033 117.162Z" stroke="url(#paint3_linear_788_742)" stroke-width="2"/>
<path opacity="0.83" d="M102.033 118.162L35.0398 118.119L1.50606 60.0369L34.9671 2.00035L101.959 2.04051L135.492 60.1226L102.033 118.162Z" stroke="url(#paint4_linear_788_742)" stroke-width="2"/>
<defs>
<linearGradient id="paint0_linear_788_742" x1="108.352" y1="121.24" x2="244.647" y2="121.24" gradientUnits="userSpaceOnUse">
<stop stop-color="#8A15D5"/>
<stop offset="0.994792" stop-color="#FB3FFF"/>
</linearGradient>
<linearGradient id="paint1_linear_788_742" x1="243.743" y1="119.905" x2="108.978" y2="119.905" gradientUnits="userSpaceOnUse">
<stop stop-color="#8A15D5" stop-opacity="0.07"/>
<stop offset="0.994792" stop-color="#FB3FFF"/>
</linearGradient>
<linearGradient id="paint2_linear_788_742" x1="108.352" y1="246.24" x2="244.647" y2="246.24" gradientUnits="userSpaceOnUse">
<stop stop-color="#8A15D5" stop-opacity="0"/>
<stop offset="0.994792" stop-color="#FB3FFF"/>
</linearGradient>
<linearGradient id="paint3_linear_788_742" x1="216.352" y1="60.2398" x2="352.647" y2="60.2398" gradientUnits="userSpaceOnUse">
<stop stop-color="#8A15D5" stop-opacity="0"/>
<stop offset="0.994792" stop-color="#FB3FFF"/>
</linearGradient>
<linearGradient id="paint4_linear_788_742" x1="0.351562" y1="61.2398" x2="136.647" y2="61.2398" gradientUnits="userSpaceOnUse">
<stop stop-color="#8A15D5" stop-opacity="0"/>
<stop offset="0.994792" stop-color="#FB3FFF"/>
</linearGradient>
</defs>
</svg>
