<svg width="353" height="305" viewBox="0 0 353 305" fill="none" xmlns="http://www.w3.org/2000/svg">
<g opacity="0.83">
<path d="M142.458 179.617L108.348 120.535L142.386 61.4982L210.532 61.539L244.643 120.62L210.607 179.661L142.458 179.617Z" fill="url(#paint0_linear_788_457)"/>
<path d="M142.458 179.617L108.348 120.535L142.386 61.4982L210.532 61.539L244.643 120.62L210.607 179.661L142.458 179.617Z" stroke="url(#paint1_linear_788_457)"/>
</g>
<path opacity="0.83" d="M210.033 303.162L143.04 303.119L109.506 245.037L142.967 187L209.959 187.041L243.492 245.123L210.033 303.162Z" stroke="url(#paint2_linear_788_457)" stroke-width="2"/>
<path opacity="0.83" d="M318.033 117.162L251.04 117.119L217.506 59.0369L250.967 1.00035L317.959 1.04051L351.492 59.1226L318.033 117.162Z" stroke="url(#paint3_linear_788_457)" stroke-width="2"/>
<path opacity="0.83" d="M102.033 118.162L35.0398 118.119L1.50606 60.0369L34.9671 2.00035L101.959 2.04051L135.492 60.1226L102.033 118.162Z" stroke="url(#paint4_linear_788_457)" stroke-width="2"/>
<path d="M209.385 124.206C204.279 116.047 197.361 109.943 188.555 106.001C187.762 105.643 186.991 105.243 186.005 104.761C187.948 101.991 189.072 99.0488 187.728 96.1892C186.515 93.6191 184.421 91.4624 182.477 88.8027C183.408 85.2059 187.666 86.3566 190.381 84.6891C186.874 83.0699 183.525 84.4962 180.19 88.7062H172.231C169.413 84.5444 165.045 82.7736 162.316 84.9096C165.079 86.2532 169.248 85.2404 170.219 89.6364C167.732 91.4486 165.465 93.3366 164.624 96.396C163.777 99.476 164.886 102.17 166.45 104.913C165.279 105.436 164.363 105.836 163.46 106.256C154.716 110.308 147.75 116.413 142.926 124.75C141.597 127.045 140.701 129.794 140.363 132.433C139.867 136.333 142.031 138.565 145.924 138.483C148.039 138.441 150.189 137.883 152.235 137.27C154.061 136.719 155.756 135.768 157.555 134.975C158.127 135.961 158.616 136.801 159.057 137.566H193.585C194.012 136.733 194.412 135.933 194.935 134.9C196.892 135.795 198.484 136.746 200.213 137.249C202.37 137.876 204.637 138.434 206.863 138.469C210.411 138.531 212.251 136.402 212.292 132.853C212.327 129.628 211.024 126.831 209.385 124.206ZM148.377 136.746C147.522 137.008 146.565 137.132 145.683 137.043C143.016 136.781 141.576 135.058 141.824 132.378C141.934 131.144 142.203 129.849 142.733 128.747C147.963 117.97 156.087 110.39 167.546 106.587C168.4 106.304 169.324 106.215 169.689 106.146C173.361 106.187 174.87 107.717 174.712 110.845C174.657 111.851 174.491 112.926 174.078 113.829C168.876 125.226 160.469 133.074 148.377 136.746ZM179.983 120.602C180.693 121.615 181.396 122.607 182.367 123.985H170.206C171.136 122.648 171.859 121.622 172.569 120.602H179.983ZM161.593 132.467C163.467 129.918 165.493 128.788 168.421 128.898C173.534 129.084 178.66 129.091 183.773 128.891C186.798 128.774 189.03 129.732 190.711 132.199C188.445 133.067 166.567 133.322 161.593 132.467ZM205.319 137.008C203.424 136.712 201.509 136.154 199.772 135.341C191.256 131.351 184.579 125.267 179.921 117.081C178.819 115.145 178.247 112.905 177.82 111.81C177.785 107.682 179.177 106.056 182.147 106.222C184.152 106.332 186.26 106.78 188.093 107.6C197.126 111.651 204.106 118.046 208.902 126.728C209.715 128.195 210.267 129.89 210.583 131.544C211.307 135.299 209.095 137.608 205.319 137.008Z" fill="white"/>
<path d="M192.125 141.48C190.699 144.911 188.439 147.309 185.779 149.404C185.242 149.824 184.684 150.293 184.057 150.513C180.598 151.726 177.78 153.621 176.801 157.349C176.284 157.218 175.981 157.231 175.933 157.121C174.417 153.91 172.019 151.885 168.664 150.5C164.97 148.977 162.352 145.594 160.574 141.48H192.125Z" fill="white"/>
<defs>
<linearGradient id="paint0_linear_788_457" x1="108.348" y1="121.738" x2="244.643" y2="121.738" gradientUnits="userSpaceOnUse">
<stop stop-color="#8A15D5"/>
<stop offset="0.994792" stop-color="#FB3FFF"/>
</linearGradient>
<linearGradient id="paint1_linear_788_457" x1="243.739" y1="120.403" x2="108.974" y2="120.403" gradientUnits="userSpaceOnUse">
<stop stop-color="#8A15D5" stop-opacity="0.07"/>
<stop offset="0.994792" stop-color="#FB3FFF"/>
</linearGradient>
<linearGradient id="paint2_linear_788_457" x1="108.352" y1="246.24" x2="244.647" y2="246.24" gradientUnits="userSpaceOnUse">
<stop stop-color="#8A15D5" stop-opacity="0"/>
<stop offset="0.994792" stop-color="#FB3FFF"/>
</linearGradient>
<linearGradient id="paint3_linear_788_457" x1="216.352" y1="60.2398" x2="352.647" y2="60.2398" gradientUnits="userSpaceOnUse">
<stop stop-color="#8A15D5" stop-opacity="0"/>
<stop offset="0.994792" stop-color="#FB3FFF"/>
</linearGradient>
<linearGradient id="paint4_linear_788_457" x1="0.351562" y1="61.2398" x2="136.647" y2="61.2398" gradientUnits="userSpaceOnUse">
<stop stop-color="#8A15D5" stop-opacity="0"/>
<stop offset="0.994792" stop-color="#FB3FFF"/>
</linearGradient>
</defs>
</svg>
