<svg width="353" height="305" viewBox="0 0 353 305" fill="none" xmlns="http://www.w3.org/2000/svg">
<g opacity="0.83">
<path d="M142.462 179.119L108.352 120.037L142.39 61L210.536 61.0409L244.647 120.122L210.611 179.163L142.462 179.119Z" fill="url(#paint0_linear_788_730)"/>
<path d="M142.462 179.119L108.352 120.037L142.39 61L210.536 61.0409L244.647 120.122L210.611 179.163L142.462 179.119Z" stroke="url(#paint1_linear_788_730)"/>
</g>
<path d="M195.273 105.783C193.189 102.508 190.632 99.7069 187.089 97.4474C188.331 101.901 188.343 106.057 186.753 110.418C186.33 109.367 186.015 108.545 185.672 107.736C182.856 101.085 179.629 94.6581 175.393 88.7876C173.154 85.6916 170.41 83.1196 166.843 81C167.998 87.2575 168.374 93.2679 167.659 99.3408C167.046 104.592 164.632 114.976 163.116 116.878C162.551 111.746 162.161 106.643 158.213 102.618C158.017 104.009 157.88 105.229 157.669 106.435C156.165 115.083 152.134 123.102 151.352 131.929V133.709C151.995 136.165 152.28 138.791 153.346 141.044C156.767 148.272 162.869 152.044 170.523 153.559C171.627 153.777 172.735 153.964 173.839 154.167H178.87C184.642 153.098 189.263 150.085 192.975 145.635C201.858 134.986 202.834 117.67 195.273 105.783ZM192.719 139.901C184.217 155.482 163.834 151.639 157.639 141.3C154.65 136.314 154.662 131.069 156.356 125.728C157.157 123.198 158.198 120.745 159.392 118.253C159.598 121.962 159.803 125.669 160.008 129.378C160.202 129.396 160.392 129.414 160.583 129.431C168.942 118.271 171.547 105.304 172.119 91.2704C177.724 100.612 182.978 109.632 184.997 120.346C188.685 117.125 190.924 113.386 191.707 108.269C192.359 109.599 192.868 110.51 193.267 111.466C197.25 121.025 197.78 130.628 192.719 139.901Z" fill="white"/>
<path opacity="0.83" d="M210.033 303.162L143.04 303.119L109.506 245.037L142.967 187L209.959 187.041L243.492 245.123L210.033 303.162Z" stroke="url(#paint2_linear_788_730)" stroke-width="2"/>
<path opacity="0.83" d="M318.033 117.162L251.04 117.119L217.506 59.0369L250.967 1.00035L317.959 1.04051L351.492 59.1226L318.033 117.162Z" stroke="url(#paint3_linear_788_730)" stroke-width="2"/>
<path opacity="0.83" d="M102.033 118.162L35.0398 118.119L1.50606 60.0369L34.9671 2.00035L101.959 2.04051L135.492 60.1226L102.033 118.162Z" stroke="url(#paint4_linear_788_730)" stroke-width="2"/>
<defs>
<linearGradient id="paint0_linear_788_730" x1="108.352" y1="121.24" x2="244.647" y2="121.24" gradientUnits="userSpaceOnUse">
<stop stop-color="#8A15D5"/>
<stop offset="0.994792" stop-color="#FB3FFF"/>
</linearGradient>
<linearGradient id="paint1_linear_788_730" x1="243.743" y1="119.905" x2="108.978" y2="119.905" gradientUnits="userSpaceOnUse">
<stop stop-color="#8A15D5" stop-opacity="0.07"/>
<stop offset="0.994792" stop-color="#FB3FFF"/>
</linearGradient>
<linearGradient id="paint2_linear_788_730" x1="108.352" y1="246.24" x2="244.647" y2="246.24" gradientUnits="userSpaceOnUse">
<stop stop-color="#8A15D5" stop-opacity="0"/>
<stop offset="0.994792" stop-color="#FB3FFF"/>
</linearGradient>
<linearGradient id="paint3_linear_788_730" x1="216.352" y1="60.2398" x2="352.647" y2="60.2398" gradientUnits="userSpaceOnUse">
<stop stop-color="#8A15D5" stop-opacity="0"/>
<stop offset="0.994792" stop-color="#FB3FFF"/>
</linearGradient>
<linearGradient id="paint4_linear_788_730" x1="0.351562" y1="61.2398" x2="136.647" y2="61.2398" gradientUnits="userSpaceOnUse">
<stop stop-color="#8A15D5" stop-opacity="0"/>
<stop offset="0.994792" stop-color="#FB3FFF"/>
</linearGradient>
</defs>
</svg>
