<svg width="353" height="305" viewBox="0 0 353 305" fill="none" xmlns="http://www.w3.org/2000/svg">
<g opacity="0.83">
<path d="M142.462 178.119L108.352 119.037L142.39 60L210.536 60.0409L244.647 119.122L210.611 178.163L142.462 178.119Z" fill="url(#paint0_linear_788_876)"/>
<path d="M142.462 178.119L108.352 119.037L142.39 60L210.536 60.0409L244.647 119.122L210.611 178.163L142.462 178.119Z" stroke="url(#paint1_linear_788_876)"/>
</g>
<path d="M162.931 101.02V106.827H161.241C161.227 106.809 161.185 106.783 161.179 106.749C161.111 106.424 161.196 105.96 160.675 105.992C160.126 106.026 160.242 106.497 160.242 106.849C160.235 109.273 160.242 111.696 160.237 114.12C160.234 116.174 158.924 117.179 156.96 116.64C155.121 116.137 153.286 115.621 151.447 115.113C151.257 115.06 151.062 115.025 150.79 114.963V115.828C150.79 123.818 150.79 131.809 150.789 139.798C150.789 140.065 150.793 140.335 150.758 140.598C150.67 141.246 150.157 141.714 149.513 141.763C148.897 141.81 148.306 141.388 148.153 140.751C148.084 140.456 148.065 140.142 148.065 139.838C148.06 131.519 148.059 123.199 148.067 114.881C148.068 114.429 148.005 114.123 147.569 113.817C146.305 112.93 146.362 111.015 147.647 110.144C147.962 109.931 148.074 109.73 148.07 109.361C148.05 107.887 148.062 106.414 148.062 104.911C146.688 104.728 145.056 105.37 144.352 103.562V91.972C144.558 91.7821 144.736 91.5335 144.978 91.4146C145.71 91.0533 146.425 91.5844 146.433 92.5032C146.45 94.373 146.439 96.2413 146.439 98.1112C146.439 99.1241 147.166 99.5951 148.093 99.1287C148.278 99.0361 148.419 98.6717 148.422 98.4293C148.45 96.6027 148.437 94.7745 148.437 92.9463C148.437 92.7811 148.429 92.6159 148.44 92.4522C148.482 91.7373 148.873 91.3096 149.473 91.3111C150.072 91.3142 150.489 91.7481 150.495 92.463C150.512 94.353 150.502 96.2429 150.502 98.1328C150.502 99.1195 151.289 99.6089 152.172 99.121C152.356 99.0207 152.48 98.6532 152.483 98.4077C152.509 96.5393 152.495 94.6695 152.498 92.7996C152.5 92.5757 152.497 92.3441 152.546 92.128C152.663 91.5983 153.015 91.3081 153.556 91.3204C154.065 91.3328 154.402 91.6138 154.505 92.1218C154.55 92.341 154.561 92.5696 154.561 92.7934C154.566 96.1008 154.566 99.4082 154.562 102.714C154.562 104.212 153.919 104.859 152.43 104.87C151.919 104.873 151.408 104.87 150.852 104.87C150.829 105.069 150.793 105.223 150.793 105.378C150.789 106.795 150.801 108.212 150.783 109.63C150.778 109.996 150.875 110.169 151.258 110.268C152.683 110.637 154.099 111.05 155.602 111.472C155.602 110.058 155.568 108.708 155.614 107.36C155.645 106.506 155.668 105.617 155.914 104.811C156.579 102.625 158.122 101.349 160.384 101.039C161.205 100.926 162.056 101.02 162.931 101.02Z" fill="white"/>
<path d="M205.677 138.51C203.887 136.983 201.902 136.646 199.715 137.579C199.535 137.658 199.224 137.726 199.112 137.632C198.408 137.048 197.742 136.416 197.055 135.794C197.612 134.916 198.128 134.102 198.644 133.288C199.47 131.988 200.316 130.7 201.114 129.385C201.831 128.207 201.165 127.01 199.796 126.957C199.632 126.951 199.468 126.954 199.303 126.954C192.132 126.967 184.962 126.923 177.791 127.027C175.875 127.055 174.204 126.805 172.808 125.413C172.35 124.956 171.754 124.913 171.138 125.055C169.239 125.492 167.338 125.924 165.439 126.36C164.418 126.595 163.919 127.206 164.095 128.004C164.273 128.81 164.972 129.158 166.001 128.949C166.081 128.932 166.16 128.908 166.24 128.889C167.841 128.528 169.439 128.154 171.045 127.821C171.285 127.771 171.615 127.842 171.816 127.983C172.912 128.745 173.99 129.534 175.049 130.345C175.273 130.516 175.467 130.797 175.552 131.066C176.165 133.022 176.754 134.988 177.331 136.955C177.416 137.242 177.442 137.561 177.427 137.86C177.299 140.363 177.13 142.864 177.025 145.367C176.965 146.83 177.901 147.813 179.363 147.927C179.772 147.958 180.184 147.954 180.595 147.972C182.303 148.049 183.351 147.353 183.93 145.743C184.665 143.697 185.41 141.654 186.112 139.597C186.265 139.152 186.46 138.995 186.932 139C189.027 139.018 191.124 138.983 193.219 138.993C194.132 138.998 194.983 138.893 195.599 138.059C196.201 138.606 196.76 139.112 197.328 139.628C197.26 139.785 197.209 139.918 197.149 140.045C195.367 143.78 197.799 147.818 201.923 147.977C204.099 148.06 206.245 146.632 207.082 144.543C207.908 142.48 207.323 139.915 205.677 138.51ZM183.274 139.704C182.734 141.228 182.189 142.749 181.645 144.271C181.21 145.489 181.082 145.553 179.683 145.201C179.795 143.179 179.91 141.143 180.025 139.069H183.459C183.392 139.299 183.344 139.506 183.274 139.704ZM203.914 143.741C203.186 144.584 201.967 144.848 200.948 144.384C199.907 143.91 199.356 142.895 199.525 141.626C200.05 142.097 200.495 142.515 200.96 142.914C201.678 143.528 202.456 143.531 202.98 142.937C203.494 142.353 203.393 141.564 202.715 140.927C202.297 140.533 201.868 140.153 201.448 139.764C201.423 139.741 201.428 139.69 201.42 139.653C202.458 139.349 203.528 139.747 204.125 140.658C204.744 141.604 204.658 142.88 203.914 143.741Z" fill="white"/>
<path d="M161.145 108.934V109.611C161.145 121.34 161.143 133.067 161.148 144.796C161.148 145.123 161.173 145.455 161.23 145.777C161.438 146.936 162.431 147.844 163.589 147.96C165.372 148.137 166.679 146.928 166.683 145.045C166.697 140.463 166.69 135.884 166.686 131.302C166.686 131.163 166.657 131.025 166.64 130.87C166.368 130.912 166.124 130.949 165.882 130.987C164.185 131.258 162.598 130.191 162.165 128.491C161.759 126.897 162.676 125.18 164.25 124.638C164.753 124.467 165.275 124.333 165.799 124.251C166.416 124.155 166.847 123.957 166.719 123.222C166.714 123.196 166.764 123.161 166.793 123.122H167.863C167.888 123.344 167.909 123.523 167.929 123.704C169.754 123.539 171.481 122.44 173.355 123.347V108.934H161.145ZM170.627 115.649C170.615 116.649 170.127 117.163 169.128 117.21C168.493 117.241 167.857 117.216 167.222 117.216C166.628 117.216 166.032 117.238 165.439 117.211C164.435 117.17 163.933 116.669 163.916 115.673C163.896 114.526 163.921 113.379 163.907 112.232C163.901 111.727 164.122 111.545 164.614 111.549C166.376 111.565 168.139 111.565 169.901 111.548C170.423 111.543 170.645 111.733 170.636 112.267C170.615 113.394 170.639 114.522 170.627 115.649Z" fill="white"/>
<path d="M175.808 93.4126C175.169 93.7986 174.434 94.0318 173.737 94.3205C173.588 94.3823 173.421 94.4162 173.259 94.4317C172.465 94.5058 172.043 94.7482 171.878 95.7148C171.501 97.9135 169.493 99.4097 167.282 99.4206C164.901 99.4314 162.879 97.6912 162.577 95.318C162.513 94.827 162.316 94.6587 161.85 94.5398C160.901 94.2973 159.936 94.0441 159.058 93.6288C157.949 93.1038 157.948 92.219 159.064 91.7095C160.021 91.271 161.071 91.0224 162.097 90.7506C162.526 90.6364 162.796 90.5113 162.952 90.0419C163.562 88.2029 165.334 86.9877 167.289 87.0001C169.258 87.0109 170.989 88.2245 171.6 90.079C171.739 90.4989 171.968 90.6441 172.36 90.7321C173.178 90.9174 173.994 91.1258 174.793 91.3775C175.156 91.4918 175.51 91.691 175.819 91.921C176.461 92.3981 176.486 93.0003 175.808 93.4126Z" fill="white"/>
<path d="M178.932 123.091C178.93 124.404 178.321 125.324 177.241 125.563C176.911 125.637 176.448 125.562 176.171 125.372C174.303 124.09 174.314 124.075 174.314 121.825V106.982C174.314 106.838 174.36 106.672 174.303 106.556C174.192 106.329 174.022 106.13 173.875 105.92C173.713 106.117 173.54 106.307 173.395 106.517C173.344 106.59 173.361 106.71 173.341 106.858H171.635V101.011C174.017 100.798 176.228 101.044 177.817 103.139C178.62 104.198 178.935 105.406 178.935 106.71C178.937 112.17 178.94 117.631 178.932 123.091Z" fill="white"/>
<path d="M173.435 145.09C173.426 147.173 171.56 148.51 169.689 147.815C168.577 147.403 167.904 146.385 167.901 145.062C167.893 142.145 167.898 139.228 167.898 136.312V130.558C168.894 130.335 169.851 130.111 170.815 129.911C170.95 129.884 171.133 129.95 171.258 130.027C173.432 131.391 173.43 131.392 173.432 133.937C173.435 137.653 173.452 141.372 173.435 145.09Z" fill="white"/>
<path d="M188.661 124.305C188.339 123.619 188.02 122.977 187.745 122.316C187.668 122.132 187.695 121.885 187.731 121.677C187.907 120.628 188.112 119.583 188.281 118.533C188.33 118.227 188.288 117.908 188.288 117.594C188.213 117.57 188.139 117.546 188.063 117.522C187.566 118.303 187.069 119.086 186.574 119.864C185.315 117.92 184.036 115.948 182.758 113.978L182.466 114.122C182.958 116.429 183.899 118.593 184.803 120.792C183.824 120.706 182.901 120.624 181.979 120.542C181.901 120.656 181.823 120.77 181.746 120.883C181.93 120.96 182.121 121.024 182.297 121.118C183.27 121.638 184.224 122.199 185.217 122.68C185.645 122.887 185.969 123.111 186.164 123.561C186.391 124.084 186.687 124.578 186.981 125.134C185.688 125.478 184.529 125.187 183.446 124.614C181.593 123.632 180.426 122.1 180.375 119.971C180.312 117.327 180.389 114.681 180.458 112.037C180.482 111.174 181.337 110.722 182.06 111.185C184.563 112.789 187.101 114.361 189.17 116.541C191.106 118.583 190.872 122.467 188.661 124.305Z" fill="white"/>
<path d="M200.941 116.467C200.306 119.145 196.964 121.061 194.269 120.276C194.66 119.617 195.026 118.958 195.44 118.331C195.548 118.167 195.798 118.085 195.995 117.993C197.031 117.506 198.075 117.032 199.11 116.541C199.286 116.458 199.432 116.313 199.556 116.061H196.683C197.7 113.919 198.741 111.816 199.283 109.496C197.59 111.156 196.304 113.12 195.012 115.115C194.513 114.224 194.064 113.419 193.613 112.615C193.54 112.636 193.468 112.66 193.395 112.681C193.369 112.891 193.306 113.106 193.324 113.311C193.434 114.432 193.582 115.55 193.676 116.673C193.702 116.994 193.659 117.355 193.533 117.647C193.279 118.227 192.946 118.771 192.62 119.379C191.175 117.894 190.849 116.151 191.161 114.23C191.374 112.907 192.041 111.813 193.116 111.06C195.314 109.52 197.558 108.043 199.815 106.587C200.507 106.14 201.395 106.593 201.41 107.39C201.468 110.425 201.648 113.475 200.941 116.467Z" fill="white"/>
<path d="M169.465 100.988H165.088V106.832H169.465V100.988Z" fill="white"/>
<path opacity="0.83" d="M210.033 303.162L143.04 303.119L109.506 245.037L142.967 187L209.959 187.041L243.492 245.123L210.033 303.162Z" stroke="url(#paint2_linear_788_876)" stroke-width="2"/>
<path opacity="0.83" d="M318.033 117.162L251.04 117.119L217.506 59.0369L250.967 1.00035L317.959 1.04051L351.492 59.1226L318.033 117.162Z" stroke="url(#paint3_linear_788_876)" stroke-width="2"/>
<path opacity="0.83" d="M102.033 118.162L35.0398 118.119L1.50606 60.0369L34.9671 2.00035L101.959 2.04051L135.492 60.1226L102.033 118.162Z" stroke="url(#paint4_linear_788_876)" stroke-width="2"/>
<defs>
<linearGradient id="paint0_linear_788_876" x1="108.352" y1="120.24" x2="244.647" y2="120.24" gradientUnits="userSpaceOnUse">
<stop stop-color="#8A15D5"/>
<stop offset="0.994792" stop-color="#FB3FFF"/>
</linearGradient>
<linearGradient id="paint1_linear_788_876" x1="243.743" y1="118.905" x2="108.978" y2="118.905" gradientUnits="userSpaceOnUse">
<stop stop-color="#8A15D5" stop-opacity="0.07"/>
<stop offset="0.994792" stop-color="#FB3FFF"/>
</linearGradient>
<linearGradient id="paint2_linear_788_876" x1="108.352" y1="246.24" x2="244.647" y2="246.24" gradientUnits="userSpaceOnUse">
<stop stop-color="#8A15D5" stop-opacity="0"/>
<stop offset="0.994792" stop-color="#FB3FFF"/>
</linearGradient>
<linearGradient id="paint3_linear_788_876" x1="216.352" y1="60.2398" x2="352.647" y2="60.2398" gradientUnits="userSpaceOnUse">
<stop stop-color="#8A15D5" stop-opacity="0"/>
<stop offset="0.994792" stop-color="#FB3FFF"/>
</linearGradient>
<linearGradient id="paint4_linear_788_876" x1="0.351562" y1="61.2398" x2="136.647" y2="61.2398" gradientUnits="userSpaceOnUse">
<stop stop-color="#8A15D5" stop-opacity="0"/>
<stop offset="0.994792" stop-color="#FB3FFF"/>
</linearGradient>
</defs>
</svg>
