<svg width="353" height="305" viewBox="0 0 353 305" fill="none" xmlns="http://www.w3.org/2000/svg">
<g opacity="0.83">
<path d="M142.462 179.119L108.352 120.037L142.39 61L210.536 61.0409L244.647 120.122L210.611 179.163L142.462 179.119Z" fill="url(#paint0_linear_788_720)"/>
<path d="M142.462 179.119L108.352 120.037L142.39 61L210.536 61.0409L244.647 120.122L210.611 179.163L142.462 179.119Z" stroke="url(#paint1_linear_788_720)"/>
</g>
<path fill-rule="evenodd" clip-rule="evenodd" d="M163.757 119.715C167.36 123.738 170.057 127.242 171.848 130.391C178.568 142.21 169.009 154.213 156.206 153.997C143.403 154.213 133.844 142.21 140.564 130.391C142.355 127.242 145.052 123.738 148.655 119.715C149.181 119.901 149.746 120.003 150.335 120.003H162.077C162.666 120.003 163.231 119.901 163.757 119.715ZM150.335 117.569H162.077C163.525 117.569 164.71 116.382 164.71 114.932C164.71 113.482 163.525 112.296 162.077 112.296H150.335C148.887 112.296 147.703 113.482 147.703 114.932C147.703 116.382 148.887 117.569 150.335 117.569ZM170.398 114.928C169.668 114.928 169.072 115.525 169.072 116.257V122.181C170.879 124.413 172.579 126.758 173.96 129.187C176.764 134.119 177.378 139.84 175.053 145.087C174.879 145.48 174.692 145.862 174.493 146.236H177.788V116.257C177.788 115.525 177.192 114.928 176.462 114.928H170.398ZM199.683 115.739L199.435 119.442C199.424 119.6 199.5 119.74 199.637 119.818C199.774 119.896 199.934 119.889 200.063 119.799L209.594 113.161C209.698 113.088 209.757 112.983 209.765 112.857C209.773 112.73 209.728 112.618 209.634 112.533L201.069 104.788C200.952 104.683 200.795 104.655 200.65 104.714C200.504 104.773 200.411 104.902 200.4 105.059L200.143 108.898C193.206 108.709 183.703 105.875 177.629 102.242C170.931 98.2356 166.536 93.4681 163.444 88C165.503 96.308 171.62 104.529 180.756 109.993C186.904 113.671 193.502 115.55 199.683 115.739ZM213.041 148.67H172.931C171.988 149.906 170.896 151.006 169.69 151.961H213.041C213.771 151.961 214.365 151.366 214.365 150.635V149.996C214.365 149.266 213.771 148.67 213.041 148.67ZM208.834 132.868H202.77C202.039 132.868 201.443 133.465 201.443 134.197V146.236H210.16V134.197C210.16 133.465 209.564 132.868 208.834 132.868ZM186.584 124.092H192.648C193.379 124.092 193.974 124.689 193.974 125.421V146.236H185.258V125.421C185.257 124.689 185.853 124.092 186.584 124.092ZM156.071 141.599C155.28 141.579 154.512 141.364 153.9 140.955C153.346 140.586 152.923 140.045 152.746 139.335C152.589 138.694 151.942 138.302 151.302 138.46C150.662 138.618 150.271 139.265 150.428 139.906C150.762 141.247 151.552 142.262 152.582 142.949C153.286 143.419 154.104 143.729 154.96 143.88V144.811C154.96 145.472 155.496 146.009 156.156 146.009C156.817 146.009 157.352 145.472 157.352 144.81V143.903C158.393 143.744 159.453 143.364 160.285 142.732C161.285 141.971 161.95 140.883 161.916 139.422C161.912 139.255 161.902 139.108 161.887 138.982C161.693 137.382 160.828 136.34 159.682 135.647C158.675 135.038 157.468 134.735 156.361 134.552C155.562 134.421 154.721 134.199 154.105 133.796C153.628 133.484 153.286 133.032 153.254 132.372C153.219 131.657 153.531 131.08 154.022 130.68C154.406 130.367 154.897 130.15 155.428 130.042C155.642 129.999 155.863 129.974 156.085 129.969C156.108 129.97 156.132 129.971 156.156 129.971C156.185 129.971 156.213 129.97 156.242 129.968C156.536 129.972 156.832 130.01 157.121 130.083C158.01 130.309 158.82 130.896 159.246 131.913C159.502 132.523 160.203 132.81 160.812 132.554C161.421 132.298 161.707 131.596 161.452 130.986C160.701 129.195 159.272 128.16 157.7 127.762C157.585 127.732 157.469 127.707 157.352 127.684V126.756C157.352 126.094 156.817 125.558 156.156 125.558C155.495 125.558 154.96 126.094 154.96 126.756V127.702C154.054 127.885 153.203 128.269 152.517 128.827C151.464 129.685 150.795 130.931 150.871 132.484C150.946 134.045 151.724 135.091 152.806 135.799C153.75 136.416 154.909 136.735 155.978 136.911C156.836 137.052 157.752 137.275 158.449 137.696C159.005 138.033 159.424 138.525 159.513 139.263C159.525 139.361 159.531 139.433 159.532 139.478C159.546 140.064 159.266 140.511 158.846 140.831C158.319 141.231 157.58 141.467 156.84 141.557C156.639 141.581 156.463 141.595 156.314 141.599L156.257 141.6C156.224 141.597 156.19 141.596 156.156 141.596C156.127 141.596 156.099 141.597 156.071 141.599ZM149.97 109.875L148.077 107.98C147.025 106.926 147.025 105.202 148.077 104.148C148.972 103.252 150.388 103.101 151.453 103.785C151.848 104.039 152.302 104.08 152.736 103.9C153.17 103.72 153.463 103.37 153.563 102.91C153.828 101.694 154.915 100.776 156.206 100.776C157.474 100.776 158.579 101.671 158.849 102.91C158.95 103.37 159.242 103.72 159.676 103.9C160.11 104.08 160.564 104.039 160.959 103.785C162.005 103.113 163.422 103.234 164.335 104.148V104.148C165.387 105.202 165.387 106.926 164.335 107.98L162.442 109.875C162.322 109.867 162.2 109.862 162.077 109.862H150.335C150.212 109.862 150.09 109.867 149.97 109.875Z" fill="white"/>
<path opacity="0.83" d="M210.033 303.162L143.04 303.119L109.506 245.037L142.967 187L209.959 187.041L243.492 245.123L210.033 303.162Z" stroke="url(#paint2_linear_788_720)" stroke-width="2"/>
<path opacity="0.83" d="M318.033 117.162L251.04 117.119L217.506 59.0369L250.967 1.00035L317.959 1.04051L351.492 59.1226L318.033 117.162Z" stroke="url(#paint3_linear_788_720)" stroke-width="2"/>
<path opacity="0.83" d="M102.033 118.162L35.0398 118.119L1.50606 60.0369L34.9671 2.00035L101.959 2.04051L135.492 60.1226L102.033 118.162Z" stroke="url(#paint4_linear_788_720)" stroke-width="2"/>
<defs>
<linearGradient id="paint0_linear_788_720" x1="108.352" y1="121.24" x2="244.647" y2="121.24" gradientUnits="userSpaceOnUse">
<stop stop-color="#8A15D5"/>
<stop offset="0.994792" stop-color="#FB3FFF"/>
</linearGradient>
<linearGradient id="paint1_linear_788_720" x1="243.743" y1="119.905" x2="108.978" y2="119.905" gradientUnits="userSpaceOnUse">
<stop stop-color="#8A15D5" stop-opacity="0.07"/>
<stop offset="0.994792" stop-color="#FB3FFF"/>
</linearGradient>
<linearGradient id="paint2_linear_788_720" x1="108.352" y1="246.24" x2="244.647" y2="246.24" gradientUnits="userSpaceOnUse">
<stop stop-color="#8A15D5" stop-opacity="0"/>
<stop offset="0.994792" stop-color="#FB3FFF"/>
</linearGradient>
<linearGradient id="paint3_linear_788_720" x1="216.352" y1="60.2398" x2="352.647" y2="60.2398" gradientUnits="userSpaceOnUse">
<stop stop-color="#8A15D5" stop-opacity="0"/>
<stop offset="0.994792" stop-color="#FB3FFF"/>
</linearGradient>
<linearGradient id="paint4_linear_788_720" x1="0.351562" y1="61.2398" x2="136.647" y2="61.2398" gradientUnits="userSpaceOnUse">
<stop stop-color="#8A15D5" stop-opacity="0"/>
<stop offset="0.994792" stop-color="#FB3FFF"/>
</linearGradient>
</defs>
</svg>
