<svg width="353" height="305" viewBox="0 0 353 305" fill="none" xmlns="http://www.w3.org/2000/svg">
<g opacity="0.83">
<path d="M142.458 179.617L108.348 120.535L142.386 61.498L210.532 61.5389L244.643 120.62L210.607 179.661L142.458 179.617Z" fill="url(#paint0_linear_788_711)"/>
<path d="M142.458 179.617L108.348 120.535L142.386 61.498L210.532 61.5389L244.643 120.62L210.607 179.661L142.458 179.617Z" stroke="url(#paint1_linear_788_711)"/>
</g>
<path d="M210.328 148.72C210.136 150.158 208.949 151.224 207.458 151.227C201.872 151.239 196.288 151.233 190.702 151.233H185.976C179.023 151.233 172.072 151.218 165.121 151.248C163.956 151.252 163.035 150.904 162.182 150.109C155.612 143.975 149.017 137.864 142.428 131.747C141.52 130.905 141.124 129.9 141.483 128.682C141.815 127.556 142.597 126.88 143.734 126.655C144.771 126.453 145.631 126.841 146.389 127.545C150.357 131.242 154.332 134.927 158.303 138.618C160.596 140.747 162.894 142.868 165.173 145.012C165.537 145.356 165.905 145.489 166.404 145.489C179.893 145.476 193.379 145.478 206.865 145.482C207.326 145.484 207.803 145.478 208.243 145.593C209.622 145.952 210.511 147.327 210.328 148.72Z" fill="white"/>
<path d="M205.732 141.746C205.501 141.761 205.267 141.754 205.037 141.754C193.75 141.754 182.463 141.741 171.177 141.765C169.048 141.77 167.266 141.09 165.7 139.645C161.855 136.092 157.967 132.583 154.096 129.057C152.653 127.742 152.82 126.259 154.525 125.295C156.319 124.279 158.112 123.265 159.91 122.258C162.282 120.93 164.521 120.934 166.746 122.702C169.482 124.879 172.317 126.934 175.107 129.042C175.31 129.193 175.503 129.354 175.789 129.579C174.795 130.09 173.904 130.582 172.977 130.996C172.785 131.082 172.412 130.946 172.208 130.796C169.8 129.027 167.406 127.238 165.011 125.451C163.878 124.604 162.639 124.309 161.279 124.758C159.736 125.271 158.801 126.356 158.552 127.961C158.307 129.545 158.898 130.833 160.161 131.789C162.36 133.452 164.578 135.087 166.791 136.733C167.775 137.466 168.76 138.198 169.744 138.932C171.162 139.991 172.67 140.134 174.247 139.341C176.974 137.966 179.697 136.58 182.413 135.183C182.757 135.007 182.991 134.983 183.338 135.219C183.656 135.434 184.091 135.577 184.473 135.577C191.404 135.598 198.333 135.59 205.262 135.594C207.038 135.596 208.247 136.508 208.568 138.059C208.945 139.887 207.604 141.633 205.732 141.746Z" fill="white"/>
<path d="M191.768 85.0001C183.104 84.9648 176.101 91.8956 176.036 100.571C175.971 109.166 183.007 116.249 191.645 116.286C200.272 116.323 207.297 109.32 207.323 100.656C207.349 92.033 200.396 85.0336 191.768 85.0001ZM191.66 113.68C184.421 113.661 178.616 107.819 178.633 100.567C178.649 93.3947 184.54 87.5432 191.718 87.5673C198.936 87.5915 204.801 93.4931 204.76 100.693C204.719 107.888 198.856 113.698 191.66 113.68Z" fill="white"/>
<path d="M186.917 130.385C184.117 131.825 181.309 133.248 178.506 134.678C176.793 135.549 175.084 136.428 173.366 137.288C173.042 137.45 172.684 137.546 172.262 137.7C171.881 137.526 171.447 137.409 171.109 137.16C167.938 134.823 164.78 132.469 161.627 130.108C160.648 129.377 160.442 128.364 161.065 127.517C161.698 126.651 162.755 126.555 163.756 127.296C166.177 129.089 168.606 130.87 170.999 132.702C172.006 133.473 172.961 133.551 174.083 132.969C177.802 131.039 181.541 129.15 185.277 127.253C186.378 126.696 187.43 126.997 187.886 127.968C188.321 128.895 187.955 129.852 186.917 130.385Z" fill="white"/>
<path d="M155.712 119.55C155.264 122.355 152.649 124.036 149.756 123.382C146.844 122.722 144.83 119.806 145.254 116.864C145.582 114.581 147.605 112.914 150.011 112.944C153.472 112.985 156.247 116.2 155.712 119.55Z" fill="white"/>
<path d="M200.108 133.292C199.825 133.328 199.66 133.365 199.495 133.365C198.128 133.37 196.76 133.393 195.395 133.348C195.072 133.339 194.685 133.168 194.448 132.943C193.744 132.278 193.099 131.55 192.382 130.794C191.457 131.504 190.571 132.139 189.74 132.839C189.243 133.255 188.726 133.421 188.091 133.376C187.517 133.335 186.936 133.369 186.289 133.244C186.466 133.144 186.64 133.042 186.818 132.945C187.368 132.652 187.953 132.406 188.466 132.057C189.88 131.095 190.48 129.741 190.21 128.045C190.147 127.645 190.205 127.395 190.573 127.198C190.939 127.001 191.266 126.733 191.628 126.529C192.367 126.111 193.289 126.169 193.879 126.778C195.945 128.899 197.975 131.056 200.108 133.292Z" fill="white"/>
<path d="M178.869 122.871C177.352 123.8 175.81 124.688 174.259 125.607C173.248 124.846 172.258 124.097 171.199 123.297C172.039 122.799 172.808 122.338 173.581 121.883C174.736 121.201 175.882 120.505 177.051 119.849C177.985 119.323 179.029 119.604 179.525 120.464C180.012 121.309 179.765 122.321 178.869 122.871Z" fill="white"/>
<path d="M158.461 103.883C158.461 105.454 158.466 107.028 158.459 108.601C158.455 109.443 158.063 109.914 157.378 109.931C156.657 109.948 156.239 109.469 156.237 108.592C156.233 105.447 156.233 102.3 156.237 99.1551C156.239 98.3229 156.644 97.8344 157.316 97.8158C158.015 97.7953 158.455 98.3062 158.459 99.1644C158.466 100.738 158.461 102.309 158.461 103.883Z" fill="white"/>
<path d="M165.253 114.087C165.251 114.898 164.807 115.404 164.144 115.411C163.472 115.418 163.039 114.924 163.033 114.107C163.026 112.511 163.031 110.916 163.031 109.32C163.031 107.748 163.026 106.175 163.033 104.603C163.037 103.779 163.457 103.279 164.122 103.272C164.777 103.266 165.249 103.784 165.253 104.581C165.262 107.75 165.26 110.917 165.253 114.087Z" fill="white"/>
<path d="M172.029 105.346C172.031 106.448 172.034 107.551 172.023 108.655C172.014 109.47 171.62 109.911 170.953 109.931C170.253 109.951 169.818 109.496 169.811 108.66C169.794 106.831 169.803 104.999 169.803 103.169C169.803 101.778 169.803 100.388 169.811 98.9971C169.813 98.4249 170.073 97.9364 170.639 97.8807C171.011 97.8435 171.492 98.0441 171.778 98.3005C171.984 98.4844 172.014 98.9358 172.018 99.2683C172.036 100.418 172.032 101.57 172.031 102.72C172.029 103.123 172.027 103.524 172.027 103.927C172.027 104.399 172.029 104.873 172.029 105.346Z" fill="white"/>
<path d="M191.726 89.7929C185.793 89.7613 180.884 94.6115 180.859 100.528C180.833 106.576 185.637 111.438 191.656 111.456C197.645 111.473 202.514 106.645 202.536 100.667C202.558 94.7062 197.704 89.8226 191.726 89.7929ZM196.618 104.02C196.525 105.564 195.59 106.496 194.264 107.098C193.826 107.299 193.348 107.41 192.847 107.576C192.835 107.81 192.839 108.062 192.804 108.309C192.724 108.902 192.224 109.335 191.663 109.318C191.087 109.301 190.569 108.859 190.604 108.254C190.642 107.615 190.335 107.455 189.815 107.288C188.31 106.803 187.27 105.815 186.822 104.267C186.622 103.574 186.886 103.017 187.487 102.802C188.095 102.584 188.728 102.843 188.912 103.526C189.505 105.727 192.633 105.711 193.878 104.747C194.637 104.156 194.58 102.98 193.681 102.462C193.055 102.101 192.312 101.936 191.611 101.717C190.972 101.516 190.3 101.418 189.679 101.174C188.125 100.565 187.172 99.4617 187.133 97.723C187.097 96.1255 188.06 94.7471 189.65 94.0672C189.945 93.9409 190.248 93.8406 190.534 93.7347C190.649 92.3842 190.956 91.9366 191.732 91.9626C192.486 91.9886 192.787 92.4455 192.839 93.7087C193.025 93.7756 193.233 93.8517 193.443 93.9261C194.656 94.3607 195.553 95.1502 196.122 96.3056C196.484 97.0394 196.33 97.671 195.726 97.9886C195.124 98.3063 194.533 98.0704 194.128 97.3533C193.354 95.9768 191.756 95.4827 190.382 96.1979C189.761 96.5211 189.358 97.0097 189.378 97.736C189.397 98.4233 189.835 98.8524 190.437 99.0586C191.113 99.289 191.829 99.4004 192.509 99.6159C193.253 99.8518 194.026 100.065 194.702 100.439C196.084 101.2 196.714 102.441 196.618 104.02Z" fill="white"/>
<path opacity="0.83" d="M210.033 303.162L143.04 303.119L109.506 245.037L142.967 187L209.959 187.041L243.492 245.123L210.033 303.162Z" stroke="url(#paint2_linear_788_711)" stroke-width="2"/>
<path opacity="0.83" d="M318.033 117.162L251.04 117.119L217.506 59.0369L250.967 1.00035L317.959 1.04051L351.492 59.1226L318.033 117.162Z" stroke="url(#paint3_linear_788_711)" stroke-width="2"/>
<path opacity="0.83" d="M102.033 118.162L35.0398 118.119L1.50606 60.0369L34.9671 2.00035L101.959 2.04051L135.492 60.1226L102.033 118.162Z" stroke="url(#paint4_linear_788_711)" stroke-width="2"/>
<defs>
<linearGradient id="paint0_linear_788_711" x1="108.348" y1="121.738" x2="244.643" y2="121.738" gradientUnits="userSpaceOnUse">
<stop stop-color="#8A15D5"/>
<stop offset="0.994792" stop-color="#FB3FFF"/>
</linearGradient>
<linearGradient id="paint1_linear_788_711" x1="243.739" y1="120.403" x2="108.974" y2="120.403" gradientUnits="userSpaceOnUse">
<stop stop-color="#8A15D5" stop-opacity="0.07"/>
<stop offset="0.994792" stop-color="#FB3FFF"/>
</linearGradient>
<linearGradient id="paint2_linear_788_711" x1="108.352" y1="246.24" x2="244.647" y2="246.24" gradientUnits="userSpaceOnUse">
<stop stop-color="#8A15D5" stop-opacity="0"/>
<stop offset="0.994792" stop-color="#FB3FFF"/>
</linearGradient>
<linearGradient id="paint3_linear_788_711" x1="216.352" y1="60.2398" x2="352.647" y2="60.2398" gradientUnits="userSpaceOnUse">
<stop stop-color="#8A15D5" stop-opacity="0"/>
<stop offset="0.994792" stop-color="#FB3FFF"/>
</linearGradient>
<linearGradient id="paint4_linear_788_711" x1="0.351562" y1="61.2398" x2="136.647" y2="61.2398" gradientUnits="userSpaceOnUse">
<stop stop-color="#8A15D5" stop-opacity="0"/>
<stop offset="0.994792" stop-color="#FB3FFF"/>
</linearGradient>
</defs>
</svg>
