<svg width="353" height="305" viewBox="0 0 353 305" fill="none" xmlns="http://www.w3.org/2000/svg">
<g opacity="0.83">
<path d="M142.462 178.119L108.352 119.037L142.39 60L210.536 60.0409L244.647 119.122L210.611 178.163L142.462 178.119Z" fill="url(#paint0_linear_788_826)"/>
<path d="M142.462 178.119L108.352 119.037L142.39 60L210.536 60.0409L244.647 119.122L210.611 178.163L142.462 178.119Z" stroke="url(#paint1_linear_788_826)"/>
</g>
<path d="M210.351 104.416V105.488C209.956 106.731 209 107.393 207.895 107.977C197.854 113.282 187.821 118.602 177.802 123.948C176.468 124.663 175.266 124.672 173.929 123.959C163.75 118.529 153.555 113.135 143.366 107.727C141.503 106.737 140.885 105.084 141.766 103.465C142.174 102.714 142.868 102.324 143.617 101.991C152.666 97.9791 161.715 93.962 170.764 89.9477C171.972 89.4136 173.185 88.8878 174.385 88.337C175.363 87.8891 176.317 87.8891 177.304 88.3286C187.639 92.9244 197.977 97.5145 208.321 102.088C209.386 102.561 210.021 103.343 210.351 104.416Z" fill="white"/>
<path d="M210.352 116.749V117.82C210.044 119.016 209.222 119.709 208.157 120.271C198.017 125.626 187.889 131.001 177.772 136.397C176.458 137.101 175.275 137.11 173.958 136.406C163.802 130.989 153.623 125.609 143.467 120.196C142.872 119.878 142.282 119.436 141.876 118.91C141.096 117.895 141.219 116.49 142.027 115.491C142.818 114.509 144.177 114.142 145.369 114.604C145.659 114.718 145.939 114.863 146.216 115.01C155.849 120.12 165.485 125.231 175.11 130.361C175.638 130.642 176.036 130.664 176.575 130.375C186.239 125.222 195.92 120.101 205.587 114.954C206.82 114.298 208.045 114.106 209.163 115.027C209.68 115.455 209.963 116.167 210.352 116.749Z" fill="white"/>
<path d="M210.351 128.277V129.351C210.004 130.522 209.176 131.212 208.114 131.774C198.036 137.096 187.964 142.432 177.908 147.806C176.479 148.568 175.224 148.563 173.795 147.801C163.644 142.373 153.466 136.993 143.298 131.596C141.679 130.736 141.02 129.337 141.531 127.857C142.065 126.299 143.785 125.49 145.345 126.079C145.72 126.218 146.078 126.416 146.433 126.605C156.03 131.693 165.627 136.779 175.213 141.883C175.682 142.134 176.023 142.134 176.493 141.883C186.199 136.717 195.913 131.568 205.628 126.416C207.085 125.645 208.343 125.662 209.302 126.611C209.758 127.059 210.01 127.715 210.351 128.277Z" fill="white"/>
<path opacity="0.83" d="M210.033 303.162L143.04 303.119L109.506 245.037L142.967 187L209.959 187.041L243.492 245.123L210.033 303.162Z" stroke="url(#paint2_linear_788_826)" stroke-width="2"/>
<path opacity="0.83" d="M318.033 117.162L251.04 117.119L217.506 59.0369L250.967 1.00035L317.959 1.04051L351.492 59.1226L318.033 117.162Z" stroke="url(#paint3_linear_788_826)" stroke-width="2"/>
<path opacity="0.83" d="M102.033 118.162L35.0398 118.119L1.50606 60.0369L34.9671 2.00035L101.959 2.04051L135.492 60.1226L102.033 118.162Z" stroke="url(#paint4_linear_788_826)" stroke-width="2"/>
<defs>
<linearGradient id="paint0_linear_788_826" x1="108.352" y1="120.24" x2="244.647" y2="120.24" gradientUnits="userSpaceOnUse">
<stop stop-color="#8A15D5"/>
<stop offset="0.994792" stop-color="#FB3FFF"/>
</linearGradient>
<linearGradient id="paint1_linear_788_826" x1="243.743" y1="118.905" x2="108.978" y2="118.905" gradientUnits="userSpaceOnUse">
<stop stop-color="#8A15D5" stop-opacity="0.07"/>
<stop offset="0.994792" stop-color="#FB3FFF"/>
</linearGradient>
<linearGradient id="paint2_linear_788_826" x1="108.352" y1="246.24" x2="244.647" y2="246.24" gradientUnits="userSpaceOnUse">
<stop stop-color="#8A15D5" stop-opacity="0"/>
<stop offset="0.994792" stop-color="#FB3FFF"/>
</linearGradient>
<linearGradient id="paint3_linear_788_826" x1="216.352" y1="60.2398" x2="352.647" y2="60.2398" gradientUnits="userSpaceOnUse">
<stop stop-color="#8A15D5" stop-opacity="0"/>
<stop offset="0.994792" stop-color="#FB3FFF"/>
</linearGradient>
<linearGradient id="paint4_linear_788_826" x1="0.351562" y1="61.2398" x2="136.647" y2="61.2398" gradientUnits="userSpaceOnUse">
<stop stop-color="#8A15D5" stop-opacity="0"/>
<stop offset="0.994792" stop-color="#FB3FFF"/>
</linearGradient>
</defs>
</svg>
